ISO-10303-21;
HEADER;
/* Generated by software containing ST-Developer
 * from STEP Tools, Inc. (www.steptools.com) 
 */
/* OPTION: using custom renumber hook */

FILE_DESCRIPTION(
/* description */ ('STEP AP242 Edition 2',
'CAx-IF Rec.Pracs.---Representation and Presentation of Product Manufa
cturing Information (PMI)---4.0---2014-10-13',
'CAx-IF Rec.Pracs.---3D Tessellated Geometry---0.4---2014-09-14','2;1',
'CAx-IF Rec.Pracs.---User Defined Attributes---1.5---2016-08-15'),
/* implementation_level */ '2;1');

FILE_NAME(
/* name */ 'Back Plate',
/* time_stamp */ '2026-09-07T05:38:54Z',
/* author */ (''),
/* organization */ (''),
/* preprocessor_version */ 'ST-DEVELOPER v20',
/* originating_system */ 'ONSHAPE BY PTC INC, 1.220',
/* authorisation */ '  ');

FILE_SCHEMA (('AP242_MANAGED_MODEL_BASED_3D_ENGINEERING_MIM_LF { 1 0 10303 442 3 1 4 }'));
ENDSEC;

DATA;
#10=SHAPE_REPRESENTATION_RELATIONSHIP('','',#449,#11);
#11=ADVANCED_BREP_SHAPE_REPRESENTATION('',(#447),#691);
#12=ORIENTED_EDGE('',*,*,#132,.F.);
#13=ORIENTED_EDGE('',*,*,#133,.F.);
#14=ORIENTED_EDGE('',*,*,#134,.T.);
#15=ORIENTED_EDGE('',*,*,#135,.F.);
#16=ORIENTED_EDGE('',*,*,#136,.T.);
#17=ORIENTED_EDGE('',*,*,#137,.T.);
#18=ORIENTED_EDGE('',*,*,#138,.F.);
#19=ORIENTED_EDGE('',*,*,#139,.F.);
#20=ORIENTED_EDGE('',*,*,#140,.F.);
#21=ORIENTED_EDGE('',*,*,#141,.F.);
#22=ORIENTED_EDGE('',*,*,#142,.T.);
#23=ORIENTED_EDGE('',*,*,#143,.F.);
#24=ORIENTED_EDGE('',*,*,#138,.T.);
#25=ORIENTED_EDGE('',*,*,#144,.T.);
#26=ORIENTED_EDGE('',*,*,#145,.F.);
#27=ORIENTED_EDGE('',*,*,#146,.F.);
#28=ORIENTED_EDGE('',*,*,#147,.F.);
#29=ORIENTED_EDGE('',*,*,#148,.T.);
#30=ORIENTED_EDGE('',*,*,#149,.T.);
#31=ORIENTED_EDGE('',*,*,#150,.F.);
#32=ORIENTED_EDGE('',*,*,#137,.F.);
#33=ORIENTED_EDGE('',*,*,#151,.T.);
#34=ORIENTED_EDGE('',*,*,#152,.T.);
#35=ORIENTED_EDGE('',*,*,#144,.F.);
#36=ORIENTED_EDGE('',*,*,#153,.F.);
#37=ORIENTED_EDGE('',*,*,#154,.F.);
#38=ORIENTED_EDGE('',*,*,#155,.T.);
#39=ORIENTED_EDGE('',*,*,#156,.F.);
#40=ORIENTED_EDGE('',*,*,#157,.F.);
#41=ORIENTED_EDGE('',*,*,#139,.T.);
#42=ORIENTED_EDGE('',*,*,#143,.T.);
#43=ORIENTED_EDGE('',*,*,#158,.T.);
#44=ORIENTED_EDGE('',*,*,#159,.F.);
#45=ORIENTED_EDGE('',*,*,#146,.T.);
#46=ORIENTED_EDGE('',*,*,#160,.F.);
#47=ORIENTED_EDGE('',*,*,#161,.F.);
#48=ORIENTED_EDGE('',*,*,#162,.T.);
#49=ORIENTED_EDGE('',*,*,#163,.T.);
#50=ORIENTED_EDGE('',*,*,#164,.F.);
#51=ORIENTED_EDGE('',*,*,#165,.F.);
#52=ORIENTED_EDGE('',*,*,#166,.F.);
#53=ORIENTED_EDGE('',*,*,#135,.T.);
#54=ORIENTED_EDGE('',*,*,#167,.T.);
#55=ORIENTED_EDGE('',*,*,#168,.T.);
#56=ORIENTED_EDGE('',*,*,#162,.F.);
#57=ORIENTED_EDGE('',*,*,#169,.F.);
#58=ORIENTED_EDGE('',*,*,#147,.T.);
#59=ORIENTED_EDGE('',*,*,#170,.T.);
#60=ORIENTED_EDGE('',*,*,#165,.T.);
#61=ORIENTED_EDGE('',*,*,#171,.F.);
#62=ORIENTED_EDGE('',*,*,#148,.F.);
#63=ORIENTED_EDGE('',*,*,#169,.T.);
#64=ORIENTED_EDGE('',*,*,#164,.T.);
#65=ORIENTED_EDGE('',*,*,#172,.F.);
#66=ORIENTED_EDGE('',*,*,#149,.F.);
#67=ORIENTED_EDGE('',*,*,#171,.T.);
#68=ORIENTED_EDGE('',*,*,#163,.F.);
#69=ORIENTED_EDGE('',*,*,#170,.F.);
#70=ORIENTED_EDGE('',*,*,#150,.T.);
#71=ORIENTED_EDGE('',*,*,#172,.T.);
#72=ORIENTED_EDGE('',*,*,#173,.F.);
#73=ORIENTED_EDGE('',*,*,#174,.T.);
#74=ORIENTED_EDGE('',*,*,#175,.T.);
#75=ORIENTED_EDGE('',*,*,#153,.T.);
#76=ORIENTED_EDGE('',*,*,#176,.T.);
#77=ORIENTED_EDGE('',*,*,#151,.F.);
#78=ORIENTED_EDGE('',*,*,#136,.F.);
#79=ORIENTED_EDGE('',*,*,#166,.T.);
#80=ORIENTED_EDGE('',*,*,#177,.F.);
#81=ORIENTED_EDGE('',*,*,#178,.T.);
#82=ORIENTED_EDGE('',*,*,#179,.T.);
#83=ORIENTED_EDGE('',*,*,#160,.T.);
#84=ORIENTED_EDGE('',*,*,#145,.T.);
#85=ORIENTED_EDGE('',*,*,#152,.F.);
#86=ORIENTED_EDGE('',*,*,#176,.F.);
#87=ORIENTED_EDGE('',*,*,#156,.T.);
#88=ORIENTED_EDGE('',*,*,#157,.T.);
#89=ORIENTED_EDGE('',*,*,#180,.F.);
#90=ORIENTED_EDGE('',*,*,#181,.F.);
#91=ORIENTED_EDGE('',*,*,#132,.T.);
#92=ORIENTED_EDGE('',*,*,#158,.F.);
#93=ORIENTED_EDGE('',*,*,#142,.F.);
#94=ORIENTED_EDGE('',*,*,#182,.T.);
#95=ORIENTED_EDGE('',*,*,#180,.T.);
#96=ORIENTED_EDGE('',*,*,#159,.T.);
#97=ORIENTED_EDGE('',*,*,#183,.F.);
#98=ORIENTED_EDGE('',*,*,#184,.F.);
#99=ORIENTED_EDGE('',*,*,#140,.T.);
#100=ORIENTED_EDGE('',*,*,#161,.T.);
#101=ORIENTED_EDGE('',*,*,#179,.F.);
#102=ORIENTED_EDGE('',*,*,#185,.F.);
#103=ORIENTED_EDGE('',*,*,#183,.T.);
#104=ORIENTED_EDGE('',*,*,#155,.F.);
#105=ORIENTED_EDGE('',*,*,#186,.F.);
#106=ORIENTED_EDGE('',*,*,#187,.T.);
#107=ORIENTED_EDGE('',*,*,#177,.T.);
#108=ORIENTED_EDGE('',*,*,#154,.T.);
#109=ORIENTED_EDGE('',*,*,#175,.F.);
#110=ORIENTED_EDGE('',*,*,#188,.F.);
#111=ORIENTED_EDGE('',*,*,#186,.T.);
#112=ORIENTED_EDGE('',*,*,#168,.F.);
#113=ORIENTED_EDGE('',*,*,#189,.F.);
#114=ORIENTED_EDGE('',*,*,#190,.T.);
#115=ORIENTED_EDGE('',*,*,#173,.T.);
#116=ORIENTED_EDGE('',*,*,#167,.F.);
#117=ORIENTED_EDGE('',*,*,#134,.F.);
#118=ORIENTED_EDGE('',*,*,#191,.T.);
#119=ORIENTED_EDGE('',*,*,#189,.T.);
#120=ORIENTED_EDGE('',*,*,#133,.T.);
#121=ORIENTED_EDGE('',*,*,#181,.T.);
#122=ORIENTED_EDGE('',*,*,#182,.F.);
#123=ORIENTED_EDGE('',*,*,#141,.T.);
#124=ORIENTED_EDGE('',*,*,#184,.T.);
#125=ORIENTED_EDGE('',*,*,#185,.T.);
#126=ORIENTED_EDGE('',*,*,#178,.F.);
#127=ORIENTED_EDGE('',*,*,#187,.F.);
#128=ORIENTED_EDGE('',*,*,#188,.T.);
#129=ORIENTED_EDGE('',*,*,#174,.F.);
#130=ORIENTED_EDGE('',*,*,#190,.F.);
#131=ORIENTED_EDGE('',*,*,#191,.F.);
#132=EDGE_CURVE('',#192,#193,#232,.T.);
#133=EDGE_CURVE('',#194,#192,#233,.T.);
#134=EDGE_CURVE('',#194,#195,#234,.T.);
#135=EDGE_CURVE('',#196,#195,#235,.T.);
#136=EDGE_CURVE('',#196,#197,#236,.T.);
#137=EDGE_CURVE('',#197,#198,#237,.T.);
#138=EDGE_CURVE('',#199,#198,#238,.T.);
#139=EDGE_CURVE('',#193,#199,#239,.T.);
#140=EDGE_CURVE('',#200,#201,#240,.T.);
#141=EDGE_CURVE('',#202,#200,#241,.T.);
#142=EDGE_CURVE('',#202,#203,#242,.T.);
#143=EDGE_CURVE('',#199,#203,#243,.T.);
#144=EDGE_CURVE('',#198,#204,#244,.T.);
#145=EDGE_CURVE('',#205,#204,#245,.T.);
#146=EDGE_CURVE('',#201,#205,#246,.T.);
#147=EDGE_CURVE('',#206,#207,#247,.T.);
#148=EDGE_CURVE('',#206,#208,#248,.T.);
#149=EDGE_CURVE('',#208,#209,#249,.T.);
#150=EDGE_CURVE('',#207,#209,#250,.T.);
#151=EDGE_CURVE('',#197,#210,#251,.T.);
#152=EDGE_CURVE('',#210,#204,#252,.T.);
#153=EDGE_CURVE('',#211,#212,#253,.T.);
#154=EDGE_CURVE('',#213,#211,#254,.T.);
#155=EDGE_CURVE('',#213,#214,#255,.T.);
#156=EDGE_CURVE('',#212,#214,#256,.T.);
#157=EDGE_CURVE('',#193,#215,#257,.T.);
#158=EDGE_CURVE('',#203,#215,#258,.T.);
#159=EDGE_CURVE('',#201,#216,#259,.T.);
#160=EDGE_CURVE('',#217,#205,#260,.T.);
#161=EDGE_CURVE('',#216,#217,#261,.T.);
#162=EDGE_CURVE('',#218,#219,#262,.T.);
#163=EDGE_CURVE('',#219,#220,#263,.T.);
#164=EDGE_CURVE('',#221,#220,#264,.T.);
#165=EDGE_CURVE('',#218,#221,#265,.T.);
#166=EDGE_CURVE('',#196,#222,#266,.T.);
#167=EDGE_CURVE('',#195,#223,#267,.T.);
#168=EDGE_CURVE('',#223,#222,#268,.T.);
#169=EDGE_CURVE('',#206,#218,#269,.T.);
#170=EDGE_CURVE('',#207,#219,#270,.T.);
#171=EDGE_CURVE('',#208,#221,#271,.T.);
#172=EDGE_CURVE('',#209,#220,#272,.T.);
#173=EDGE_CURVE('',#224,#222,#273,.T.);
#174=EDGE_CURVE('',#224,#225,#274,.T.);
#175=EDGE_CURVE('',#225,#211,#275,.T.);
#176=EDGE_CURVE('',#212,#210,#276,.T.);
#177=EDGE_CURVE('',#226,#214,#277,.T.);
#178=EDGE_CURVE('',#226,#227,#278,.T.);
#179=EDGE_CURVE('',#227,#217,#279,.T.);
#180=EDGE_CURVE('',#228,#215,#280,.T.);
#181=EDGE_CURVE('',#192,#228,#281,.T.);
#182=EDGE_CURVE('',#202,#228,#282,.T.);
#183=EDGE_CURVE('',#229,#216,#283,.T.);
#184=EDGE_CURVE('',#200,#229,#284,.T.);
#185=EDGE_CURVE('',#229,#227,#285,.T.);
#186=EDGE_CURVE('',#230,#213,#286,.T.);
#187=EDGE_CURVE('',#230,#226,#287,.T.);
#188=EDGE_CURVE('',#230,#225,#288,.T.);
#189=EDGE_CURVE('',#231,#223,#289,.T.);
#190=EDGE_CURVE('',#231,#224,#290,.T.);
#191=EDGE_CURVE('',#194,#231,#291,.T.);
#192=VERTEX_POINT('',#573);
#193=VERTEX_POINT('',#574);
#194=VERTEX_POINT('',#576);
#195=VERTEX_POINT('',#578);
#196=VERTEX_POINT('',#580);
#197=VERTEX_POINT('',#582);
#198=VERTEX_POINT('',#584);
#199=VERTEX_POINT('',#586);
#200=VERTEX_POINT('',#590);
#201=VERTEX_POINT('',#591);
#202=VERTEX_POINT('',#593);
#203=VERTEX_POINT('',#595);
#204=VERTEX_POINT('',#598);
#205=VERTEX_POINT('',#600);
#206=VERTEX_POINT('',#604);
#207=VERTEX_POINT('',#605);
#208=VERTEX_POINT('',#607);
#209=VERTEX_POINT('',#609);
#210=VERTEX_POINT('',#612);
#211=VERTEX_POINT('',#616);
#212=VERTEX_POINT('',#617);
#213=VERTEX_POINT('',#619);
#214=VERTEX_POINT('',#621);
#215=VERTEX_POINT('',#624);
#216=VERTEX_POINT('',#627);
#217=VERTEX_POINT('',#629);
#218=VERTEX_POINT('',#632);
#219=VERTEX_POINT('',#633);
#220=VERTEX_POINT('',#635);
#221=VERTEX_POINT('',#637);
#222=VERTEX_POINT('',#640);
#223=VERTEX_POINT('',#642);
#224=VERTEX_POINT('',#654);
#225=VERTEX_POINT('',#656);
#226=VERTEX_POINT('',#661);
#227=VERTEX_POINT('',#663);
#228=VERTEX_POINT('',#667);
#229=VERTEX_POINT('',#673);
#230=VERTEX_POINT('',#679);
#231=VERTEX_POINT('',#685);
#232=LINE('',#572,#292);
#233=LINE('',#575,#293);
#234=LINE('',#577,#294);
#235=LINE('',#579,#295);
#236=LINE('',#581,#296);
#237=LINE('',#583,#297);
#238=LINE('',#585,#298);
#239=LINE('',#587,#299);
#240=LINE('',#589,#300);
#241=LINE('',#592,#301);
#242=LINE('',#594,#302);
#243=LINE('',#596,#303);
#244=LINE('',#597,#304);
#245=LINE('',#599,#305);
#246=LINE('',#601,#306);
#247=LINE('',#603,#307);
#248=LINE('',#606,#308);
#249=LINE('',#608,#309);
#250=LINE('',#610,#310);
#251=LINE('',#611,#311);
#252=LINE('',#613,#312);
#253=LINE('',#615,#313);
#254=LINE('',#618,#314);
#255=LINE('',#620,#315);
#256=LINE('',#622,#316);
#257=LINE('',#623,#317);
#258=LINE('',#625,#318);
#259=LINE('',#626,#319);
#260=LINE('',#628,#320);
#261=LINE('',#630,#321);
#262=LINE('',#631,#322);
#263=LINE('',#634,#323);
#264=LINE('',#636,#324);
#265=LINE('',#638,#325);
#266=LINE('',#639,#326);
#267=LINE('',#641,#327);
#268=LINE('',#643,#328);
#269=LINE('',#645,#329);
#270=LINE('',#646,#330);
#271=LINE('',#648,#331);
#272=LINE('',#650,#332);
#273=LINE('',#653,#333);
#274=LINE('',#655,#334);
#275=LINE('',#657,#335);
#276=LINE('',#658,#336);
#277=LINE('',#660,#337);
#278=LINE('',#662,#338);
#279=LINE('',#664,#339);
#280=LINE('',#666,#340);
#281=LINE('',#668,#341);
#282=LINE('',#670,#342);
#283=LINE('',#672,#343);
#284=LINE('',#674,#344);
#285=LINE('',#676,#345);
#286=LINE('',#678,#346);
#287=LINE('',#680,#347);
#288=LINE('',#682,#348);
#289=LINE('',#684,#349);
#290=LINE('',#686,#350);
#291=LINE('',#688,#351);
#292=VECTOR('',#474,1.);
#293=VECTOR('',#475,1.);
#294=VECTOR('',#476,1.);
#295=VECTOR('',#477,1.);
#296=VECTOR('',#478,1.);
#297=VECTOR('',#479,1.);
#298=VECTOR('',#480,1.);
#299=VECTOR('',#481,1.);
#300=VECTOR('',#484,1.);
#301=VECTOR('',#485,1.);
#302=VECTOR('',#486,1.);
#303=VECTOR('',#487,1.);
#304=VECTOR('',#488,1.);
#305=VECTOR('',#489,1.);
#306=VECTOR('',#490,1.);
#307=VECTOR('',#493,1.);
#308=VECTOR('',#494,1.);
#309=VECTOR('',#495,1.);
#310=VECTOR('',#496,1.);
#311=VECTOR('',#497,1.);
#312=VECTOR('',#498,1.);
#313=VECTOR('',#501,1.);
#314=VECTOR('',#502,1.);
#315=VECTOR('',#503,1.);
#316=VECTOR('',#504,1.);
#317=VECTOR('',#505,1.);
#318=VECTOR('',#506,1.);
#319=VECTOR('',#507,1.);
#320=VECTOR('',#508,1.);
#321=VECTOR('',#509,1.);
#322=VECTOR('',#510,1.);
#323=VECTOR('',#511,1.);
#324=VECTOR('',#512,1.);
#325=VECTOR('',#513,1.);
#326=VECTOR('',#514,1.);
#327=VECTOR('',#515,1.);
#328=VECTOR('',#516,1.);
#329=VECTOR('',#519,1.);
#330=VECTOR('',#520,1.);
#331=VECTOR('',#523,1.);
#332=VECTOR('',#526,1.);
#333=VECTOR('',#531,1.);
#334=VECTOR('',#532,1.);
#335=VECTOR('',#533,1.);
#336=VECTOR('',#534,1.);
#337=VECTOR('',#537,1.);
#338=VECTOR('',#538,1.);
#339=VECTOR('',#539,1.);
#340=VECTOR('',#542,1.);
#341=VECTOR('',#543,1.);
#342=VECTOR('',#546,1.);
#343=VECTOR('',#549,1.);
#344=VECTOR('',#550,1.);
#345=VECTOR('',#553,1.);
#346=VECTOR('',#556,1.);
#347=VECTOR('',#557,1.);
#348=VECTOR('',#560,1.);
#349=VECTOR('',#563,1.);
#350=VECTOR('',#564,1.);
#351=VECTOR('',#567,1.);
#352=EDGE_LOOP('',(#12,#13,#14,#15,#16,#17,#18,#19));
#353=EDGE_LOOP('',(#20,#21,#22,#23,#24,#25,#26,#27));
#354=EDGE_LOOP('',(#28,#29,#30,#31));
#355=EDGE_LOOP('',(#32,#33,#34,#35));
#356=EDGE_LOOP('',(#36,#37,#38,#39));
#357=EDGE_LOOP('',(#40,#41,#42,#43));
#358=EDGE_LOOP('',(#44,#45,#46,#47));
#359=EDGE_LOOP('',(#48,#49,#50,#51));
#360=EDGE_LOOP('',(#52,#53,#54,#55));
#361=EDGE_LOOP('',(#56,#57,#58,#59));
#362=EDGE_LOOP('',(#60,#61,#62,#63));
#363=EDGE_LOOP('',(#64,#65,#66,#67));
#364=EDGE_LOOP('',(#68,#69,#70,#71));
#365=EDGE_LOOP('',(#72,#73,#74,#75,#76,#77,#78,#79));
#366=EDGE_LOOP('',(#80,#81,#82,#83,#84,#85,#86,#87));
#367=EDGE_LOOP('',(#88,#89,#90,#91));
#368=EDGE_LOOP('',(#92,#93,#94,#95));
#369=EDGE_LOOP('',(#96,#97,#98,#99));
#370=EDGE_LOOP('',(#100,#101,#102,#103));
#371=EDGE_LOOP('',(#104,#105,#106,#107));
#372=EDGE_LOOP('',(#108,#109,#110,#111));
#373=EDGE_LOOP('',(#112,#113,#114,#115));
#374=EDGE_LOOP('',(#116,#117,#118,#119));
#375=EDGE_LOOP('',(#120,#121,#122,#123,#124,#125,#126,#127,#128,#129,#130,
#131));
#376=FACE_BOUND('',#352,.T.);
#377=FACE_BOUND('',#353,.T.);
#378=FACE_BOUND('',#354,.T.);
#379=FACE_BOUND('',#355,.T.);
#380=FACE_BOUND('',#356,.T.);
#381=FACE_BOUND('',#357,.T.);
#382=FACE_BOUND('',#358,.T.);
#383=FACE_BOUND('',#359,.T.);
#384=FACE_BOUND('',#360,.T.);
#385=FACE_BOUND('',#361,.T.);
#386=FACE_BOUND('',#362,.T.);
#387=FACE_BOUND('',#363,.T.);
#388=FACE_BOUND('',#364,.T.);
#389=FACE_BOUND('',#365,.T.);
#390=FACE_BOUND('',#366,.T.);
#391=FACE_BOUND('',#367,.T.);
#392=FACE_BOUND('',#368,.T.);
#393=FACE_BOUND('',#369,.T.);
#394=FACE_BOUND('',#370,.T.);
#395=FACE_BOUND('',#371,.T.);
#396=FACE_BOUND('',#372,.T.);
#397=FACE_BOUND('',#373,.T.);
#398=FACE_BOUND('',#374,.T.);
#399=FACE_BOUND('',#375,.T.);
#400=PLANE('',#451);
#401=PLANE('',#452);
#402=PLANE('',#453);
#403=PLANE('',#454);
#404=PLANE('',#455);
#405=PLANE('',#456);
#406=PLANE('',#457);
#407=PLANE('',#458);
#408=PLANE('',#459);
#409=PLANE('',#460);
#410=PLANE('',#461);
#411=PLANE('',#462);
#412=PLANE('',#463);
#413=PLANE('',#464);
#414=PLANE('',#465);
#415=PLANE('',#466);
#416=PLANE('',#467);
#417=PLANE('',#468);
#418=PLANE('',#469);
#419=ADVANCED_FACE('',(#376),#400,.F.);
#420=ADVANCED_FACE('',(#377),#401,.F.);
#421=ADVANCED_FACE('',(#378,#379),#402,.T.);
#422=ADVANCED_FACE('',(#380,#381,#382,#383,#384),#403,.F.);
#423=ADVANCED_FACE('',(#385),#404,.T.);
#424=ADVANCED_FACE('',(#386),#405,.F.);
#425=ADVANCED_FACE('',(#387),#406,.F.);
#426=ADVANCED_FACE('',(#388),#407,.T.);
#427=ADVANCED_FACE('',(#389),#408,.T.);
#428=ADVANCED_FACE('',(#390),#409,.T.);
#429=ADVANCED_FACE('',(#391),#410,.F.);
#430=ADVANCED_FACE('',(#392),#411,.T.);
#431=ADVANCED_FACE('',(#393),#412,.F.);
#432=ADVANCED_FACE('',(#394),#413,.F.);
#433=ADVANCED_FACE('',(#395),#414,.T.);
#434=ADVANCED_FACE('',(#396),#415,.F.);
#435=ADVANCED_FACE('',(#397),#416,.T.);
#436=ADVANCED_FACE('',(#398),#417,.T.);
#437=ADVANCED_FACE('',(#399),#418,.T.);
#438=CLOSED_SHELL('',(#419,#420,#421,#422,#423,#424,#425,#426,#427,#428,
#429,#430,#431,#432,#433,#434,#435,#436,#437));
#439=STYLED_ITEM('',(#440),#447);
#440=PRESENTATION_STYLE_ASSIGNMENT((#441));
#441=SURFACE_STYLE_USAGE(.BOTH.,#442);
#442=SURFACE_SIDE_STYLE('',(#443));
#443=SURFACE_STYLE_FILL_AREA(#444);
#444=FILL_AREA_STYLE('',(#445));
#445=FILL_AREA_STYLE_COLOUR('',#446);
#446=COLOUR_RGB('',0.901960784313726,0.87843137254902,0.811764705882353);
#447=MANIFOLD_SOLID_BREP('Part 1',#438);
#448=SHAPE_DEFINITION_REPRESENTATION(#696,#449);
#449=SHAPE_REPRESENTATION('Part 1',(#450),#691);
#450=AXIS2_PLACEMENT_3D('',#570,#470,#471);
#451=AXIS2_PLACEMENT_3D('',#571,#472,#473);
#452=AXIS2_PLACEMENT_3D('',#588,#482,#483);
#453=AXIS2_PLACEMENT_3D('',#602,#491,#492);
#454=AXIS2_PLACEMENT_3D('',#614,#499,#500);
#455=AXIS2_PLACEMENT_3D('',#644,#517,#518);
#456=AXIS2_PLACEMENT_3D('',#647,#521,#522);
#457=AXIS2_PLACEMENT_3D('',#649,#524,#525);
#458=AXIS2_PLACEMENT_3D('',#651,#527,#528);
#459=AXIS2_PLACEMENT_3D('',#652,#529,#530);
#460=AXIS2_PLACEMENT_3D('',#659,#535,#536);
#461=AXIS2_PLACEMENT_3D('',#665,#540,#541);
#462=AXIS2_PLACEMENT_3D('',#669,#544,#545);
#463=AXIS2_PLACEMENT_3D('',#671,#547,#548);
#464=AXIS2_PLACEMENT_3D('',#675,#551,#552);
#465=AXIS2_PLACEMENT_3D('',#677,#554,#555);
#466=AXIS2_PLACEMENT_3D('',#681,#558,#559);
#467=AXIS2_PLACEMENT_3D('',#683,#561,#562);
#468=AXIS2_PLACEMENT_3D('',#687,#565,#566);
#469=AXIS2_PLACEMENT_3D('',#689,#568,#569);
#470=DIRECTION('',(0.,0.,1.));
#471=DIRECTION('',(1.,0.,0.));
#472=DIRECTION('',(1.,0.,0.));
#473=DIRECTION('',(0.,0.,-1.));
#474=DIRECTION('',(0.,0.,-1.));
#475=DIRECTION('',(0.,1.,0.));
#476=DIRECTION('',(0.,0.,-1.));
#477=DIRECTION('',(0.,1.,0.));
#478=DIRECTION('',(0.,0.,1.));
#479=DIRECTION('',(0.,1.,0.));
#480=DIRECTION('',(0.,0.,1.));
#481=DIRECTION('',(0.,1.,0.));
#482=DIRECTION('',(-1.15648231731787E-16,1.,0.));
#483=DIRECTION('',(-1.,-1.15648231731787E-16,0.));
#484=DIRECTION('',(0.,0.,-1.));
#485=DIRECTION('',(-1.,0.,0.));
#486=DIRECTION('',(0.,0.,-1.));
#487=DIRECTION('',(-1.,-1.15648231731787E-16,0.));
#488=DIRECTION('',(-1.,-1.15648231731787E-16,0.));
#489=DIRECTION('',(0.,0.,1.));
#490=DIRECTION('',(-1.,-1.15648231731787E-16,0.));
#491=DIRECTION('',(0.,0.,1.));
#492=DIRECTION('',(1.,0.,0.));
#493=DIRECTION('',(1.,0.,0.));
#494=DIRECTION('',(-2.01858731750028E-16,-1.,0.));
#495=DIRECTION('',(1.,0.,0.));
#496=DIRECTION('',(-2.01858731750028E-16,-1.,0.));
#497=DIRECTION('',(-1.,-1.15648231731787E-16,0.));
#498=DIRECTION('',(5.78241158658936E-17,1.,0.));
#499=DIRECTION('',(0.,0.,1.));
#500=DIRECTION('',(1.,0.,0.));
#501=DIRECTION('',(-1.,-1.15648231731787E-16,0.));
#502=DIRECTION('',(0.,-1.,0.));
#503=DIRECTION('',(-1.,3.12250225675826E-16,0.));
#504=DIRECTION('',(5.78241158658936E-17,1.,0.));
#505=DIRECTION('',(-1.,3.12250225675826E-16,0.));
#506=DIRECTION('',(0.,-1.,0.));
#507=DIRECTION('',(0.,-1.,0.));
#508=DIRECTION('',(5.78241158658936E-17,1.,0.));
#509=DIRECTION('',(-1.,3.12250225675826E-16,0.));
#510=DIRECTION('',(1.,0.,0.));
#511=DIRECTION('',(-2.01858731750028E-16,-1.,0.));
#512=DIRECTION('',(1.,0.,0.));
#513=DIRECTION('',(-2.01858731750028E-16,-1.,0.));
#514=DIRECTION('',(-1.,-1.15648231731787E-16,0.));
#515=DIRECTION('',(-1.,3.12250225675826E-16,0.));
#516=DIRECTION('',(0.,-1.,0.));
#517=DIRECTION('',(0.,1.,0.));
#518=DIRECTION('',(0.,0.,1.));
#519=DIRECTION('',(0.,0.,-1.));
#520=DIRECTION('',(0.,0.,-1.));
#521=DIRECTION('',(1.,-2.01858731750028E-16,0.));
#522=DIRECTION('',(2.01858731750028E-16,1.,0.));
#523=DIRECTION('',(0.,0.,-1.));
#524=DIRECTION('',(0.,1.,0.));
#525=DIRECTION('',(0.,0.,1.));
#526=DIRECTION('',(0.,0.,-1.));
#527=DIRECTION('',(1.,-2.01858731750028E-16,0.));
#528=DIRECTION('',(2.01858731750028E-16,1.,0.));
#529=DIRECTION('',(-1.15648231731787E-16,1.,0.));
#530=DIRECTION('',(-1.,-1.15648231731787E-16,0.));
#531=DIRECTION('',(0.,0.,-1.));
#532=DIRECTION('',(-1.,0.,0.));
#533=DIRECTION('',(0.,0.,-1.));
#534=DIRECTION('',(0.,0.,1.));
#535=DIRECTION('',(1.,-5.78241158658936E-17,0.));
#536=DIRECTION('',(5.78241158658936E-17,1.,0.));
#537=DIRECTION('',(0.,0.,-1.));
#538=DIRECTION('',(3.46944695195362E-16,1.,0.));
#539=DIRECTION('',(0.,0.,-1.));
#540=DIRECTION('',(-3.12250225675826E-16,-1.,0.));
#541=DIRECTION('',(1.,-3.12250225675826E-16,0.));
#542=DIRECTION('',(0.,0.,-1.));
#543=DIRECTION('',(-1.,3.12250225675826E-16,0.));
#544=DIRECTION('',(1.,0.,0.));
#545=DIRECTION('',(0.,0.,-1.));
#546=DIRECTION('',(0.,-1.,0.));
#547=DIRECTION('',(1.,0.,0.));
#548=DIRECTION('',(0.,0.,-1.));
#549=DIRECTION('',(0.,0.,-1.));
#550=DIRECTION('',(0.,-1.,0.));
#551=DIRECTION('',(-3.12250225675826E-16,-1.,0.));
#552=DIRECTION('',(1.,-3.12250225675826E-16,0.));
#553=DIRECTION('',(-1.,3.12250225675826E-16,0.));
#554=DIRECTION('',(-3.12250225675826E-16,-1.,0.));
#555=DIRECTION('',(1.,-3.12250225675826E-16,0.));
#556=DIRECTION('',(0.,0.,-1.));
#557=DIRECTION('',(-1.,3.12250225675826E-16,0.));
#558=DIRECTION('',(1.,0.,0.));
#559=DIRECTION('',(0.,0.,-1.));
#560=DIRECTION('',(0.,-1.,0.));
#561=DIRECTION('',(1.,0.,0.));
#562=DIRECTION('',(0.,0.,-1.));
#563=DIRECTION('',(0.,0.,-1.));
#564=DIRECTION('',(0.,-1.,0.));
#565=DIRECTION('',(-3.12250225675826E-16,-1.,0.));
#566=DIRECTION('',(1.,-3.12250225675826E-16,0.));
#567=DIRECTION('',(-1.,3.12250225675826E-16,0.));
#568=DIRECTION('',(0.,0.,1.));
#569=DIRECTION('',(1.,0.,0.));
#570=CARTESIAN_POINT('',(0.,0.,0.));
#571=CARTESIAN_POINT('',(0.045,0.,0.));
#572=CARTESIAN_POINT('',(0.045,0.0025,0.002));
#573=CARTESIAN_POINT('',(0.045,0.0025,0.002));
#574=CARTESIAN_POINT('',(0.045,0.0025,0.));
#575=CARTESIAN_POINT('',(0.045,1.3010426069826E-18,0.002));
#576=CARTESIAN_POINT('',(0.045,-0.0025,0.002));
#577=CARTESIAN_POINT('',(0.045,-0.0025,0.002));
#578=CARTESIAN_POINT('',(0.045,-0.0025,0.));
#579=CARTESIAN_POINT('',(0.045,0.,0.));
#580=CARTESIAN_POINT('',(0.045,-0.015,0.));
#581=CARTESIAN_POINT('',(0.045,-0.015,0.));
#582=CARTESIAN_POINT('',(0.045,-0.015,0.0025));
#583=CARTESIAN_POINT('',(0.045,0.,0.0025));
#584=CARTESIAN_POINT('',(0.045,0.015,0.0025));
#585=CARTESIAN_POINT('',(0.045,0.015,0.));
#586=CARTESIAN_POINT('',(0.045,0.015,0.));
#587=CARTESIAN_POINT('',(0.045,0.,0.));
#588=CARTESIAN_POINT('',(0.03,0.015,0.));
#589=CARTESIAN_POINT('',(0.0275,0.015,0.002));
#590=CARTESIAN_POINT('',(0.0275,0.015,0.002));
#591=CARTESIAN_POINT('',(0.0275,0.015,0.));
#592=CARTESIAN_POINT('',(0.03,0.015,0.002));
#593=CARTESIAN_POINT('',(0.0325,0.015,0.002));
#594=CARTESIAN_POINT('',(0.0325,0.015,0.002));
#595=CARTESIAN_POINT('',(0.0325,0.015,0.));
#596=CARTESIAN_POINT('',(0.03,0.015,0.));
#597=CARTESIAN_POINT('',(0.03,0.015,0.0025));
#598=CARTESIAN_POINT('',(0.015,0.015,0.0025));
#599=CARTESIAN_POINT('',(0.015,0.015,0.));
#600=CARTESIAN_POINT('',(0.015,0.015,0.));
#601=CARTESIAN_POINT('',(0.03,0.015,0.));
#602=CARTESIAN_POINT('',(0.,0.,0.0025));
#603=CARTESIAN_POINT('',(1.38777878078145E-17,0.06875,0.0025));
#604=CARTESIAN_POINT('',(-0.07,0.06875,0.0025));
#605=CARTESIAN_POINT('',(0.07,0.06875,0.0025));
#606=CARTESIAN_POINT('',(-0.07,0.,0.0025));
#607=CARTESIAN_POINT('',(-0.07,-0.06875,0.0025));
#608=CARTESIAN_POINT('',(-1.38777878078145E-17,-0.06875,0.0025));
#609=CARTESIAN_POINT('',(0.07,-0.06875,0.0025));
#610=CARTESIAN_POINT('',(0.07,0.,0.0025));
#611=CARTESIAN_POINT('',(0.03,-0.015,0.0025));
#612=CARTESIAN_POINT('',(0.015,-0.015,0.0025));
#613=CARTESIAN_POINT('',(0.015,-6.93889390390723E-18,0.0025));
#614=CARTESIAN_POINT('',(0.,0.,0.));
#615=CARTESIAN_POINT('',(0.03,-0.015,0.));
#616=CARTESIAN_POINT('',(0.0275,-0.015,0.));
#617=CARTESIAN_POINT('',(0.015,-0.015,0.));
#618=CARTESIAN_POINT('',(0.0275,-0.00875,0.));
#619=CARTESIAN_POINT('',(0.0275,-0.0025,0.));
#620=CARTESIAN_POINT('',(0.02125,-0.0025,0.));
#621=CARTESIAN_POINT('',(0.015,-0.0025,0.));
#622=CARTESIAN_POINT('',(0.015,-6.93889390390723E-18,0.));
#623=CARTESIAN_POINT('',(0.03875,0.0025,0.));
#624=CARTESIAN_POINT('',(0.0325,0.0025,0.));
#625=CARTESIAN_POINT('',(0.0325,0.00875,0.));
#626=CARTESIAN_POINT('',(0.0275,0.00875,0.));
#627=CARTESIAN_POINT('',(0.0275,0.0025,0.));
#628=CARTESIAN_POINT('',(0.015,-6.93889390390723E-18,0.));
#629=CARTESIAN_POINT('',(0.015,0.0025,0.));
#630=CARTESIAN_POINT('',(0.02125,0.0025,0.));
#631=CARTESIAN_POINT('',(1.38777878078145E-17,0.06875,0.));
#632=CARTESIAN_POINT('',(-0.07,0.06875,0.));
#633=CARTESIAN_POINT('',(0.07,0.06875,0.));
#634=CARTESIAN_POINT('',(0.07,0.,0.));
#635=CARTESIAN_POINT('',(0.07,-0.06875,0.));
#636=CARTESIAN_POINT('',(-1.38777878078145E-17,-0.06875,0.));
#637=CARTESIAN_POINT('',(-0.07,-0.06875,0.));
#638=CARTESIAN_POINT('',(-0.07,0.,0.));
#639=CARTESIAN_POINT('',(0.03,-0.015,0.));
#640=CARTESIAN_POINT('',(0.0325,-0.015,0.));
#641=CARTESIAN_POINT('',(0.03875,-0.0025,0.));
#642=CARTESIAN_POINT('',(0.0325,-0.0025,0.));
#643=CARTESIAN_POINT('',(0.0325,-0.00875,0.));
#644=CARTESIAN_POINT('',(1.38777878078145E-17,0.06875,0.0025));
#645=CARTESIAN_POINT('',(-0.07,0.06875,0.0025));
#646=CARTESIAN_POINT('',(0.07,0.06875,0.0025));
#647=CARTESIAN_POINT('',(-0.07,0.,0.0025));
#648=CARTESIAN_POINT('',(-0.07,-0.06875,0.0025));
#649=CARTESIAN_POINT('',(-1.38777878078145E-17,-0.06875,0.0025));
#650=CARTESIAN_POINT('',(0.07,-0.06875,0.0025));
#651=CARTESIAN_POINT('',(0.07,0.,0.0025));
#652=CARTESIAN_POINT('',(0.03,-0.015,0.));
#653=CARTESIAN_POINT('',(0.0325,-0.015,0.002));
#654=CARTESIAN_POINT('',(0.0325,-0.015,0.002));
#655=CARTESIAN_POINT('',(0.03,-0.015,0.002));
#656=CARTESIAN_POINT('',(0.0275,-0.015,0.002));
#657=CARTESIAN_POINT('',(0.0275,-0.015,0.002));
#658=CARTESIAN_POINT('',(0.015,-0.015,0.));
#659=CARTESIAN_POINT('',(0.015,-6.93889390390723E-18,0.));
#660=CARTESIAN_POINT('',(0.015,-0.0025,0.002));
#661=CARTESIAN_POINT('',(0.015,-0.0025,0.002));
#662=CARTESIAN_POINT('',(0.015,9.97465998686664E-18,0.002));
#663=CARTESIAN_POINT('',(0.015,0.0025,0.002));
#664=CARTESIAN_POINT('',(0.015,0.0025,0.002));
#665=CARTESIAN_POINT('',(0.03875,0.0025,0.002));
#666=CARTESIAN_POINT('',(0.0325,0.0025,0.002));
#667=CARTESIAN_POINT('',(0.0325,0.0025,0.002));
#668=CARTESIAN_POINT('',(0.03875,0.0025,0.002));
#669=CARTESIAN_POINT('',(0.0325,0.00875,0.002));
#670=CARTESIAN_POINT('',(0.0325,0.00875,0.002));
#671=CARTESIAN_POINT('',(0.0275,0.00875,0.002));
#672=CARTESIAN_POINT('',(0.0275,0.0025,0.002));
#673=CARTESIAN_POINT('',(0.0275,0.0025,0.002));
#674=CARTESIAN_POINT('',(0.0275,0.00875,0.002));
#675=CARTESIAN_POINT('',(0.02125,0.0025,0.002));
#676=CARTESIAN_POINT('',(0.02125,0.0025,0.002));
#677=CARTESIAN_POINT('',(0.02125,-0.0025,0.002));
#678=CARTESIAN_POINT('',(0.0275,-0.0025,0.002));
#679=CARTESIAN_POINT('',(0.0275,-0.0025,0.002));
#680=CARTESIAN_POINT('',(0.02125,-0.0025,0.002));
#681=CARTESIAN_POINT('',(0.0275,-0.00875,0.002));
#682=CARTESIAN_POINT('',(0.0275,-0.00875,0.002));
#683=CARTESIAN_POINT('',(0.0325,-0.00875,0.002));
#684=CARTESIAN_POINT('',(0.0325,-0.0025,0.002));
#685=CARTESIAN_POINT('',(0.0325,-0.0025,0.002));
#686=CARTESIAN_POINT('',(0.0325,-0.00875,0.002));
#687=CARTESIAN_POINT('',(0.03875,-0.0025,0.002));
#688=CARTESIAN_POINT('',(0.03875,-0.0025,0.002));
#689=CARTESIAN_POINT('',(0.03,0.,0.002));
#690=MECHANICAL_DESIGN_GEOMETRIC_PRESENTATION_REPRESENTATION('',(#439),
#691);
#691=(
GEOMETRIC_REPRESENTATION_CONTEXT(3)
GLOBAL_UNCERTAINTY_ASSIGNED_CONTEXT((#692))
GLOBAL_UNIT_ASSIGNED_CONTEXT((#695,#694,#693))
REPRESENTATION_CONTEXT('Part 1','TOP_LEVEL_ASSEMBLY_PART')
);
#692=UNCERTAINTY_MEASURE_WITH_UNIT(LENGTH_MEASURE(1.E-8),#695,
'DISTANCE_ACCURACY_VALUE','Maximum Tolerance applied to model');
#693=(
NAMED_UNIT(*)
SI_UNIT($,.STERADIAN.)
SOLID_ANGLE_UNIT()
);
#694=(
NAMED_UNIT(*)
PLANE_ANGLE_UNIT()
SI_UNIT($,.RADIAN.)
);
#695=(
LENGTH_UNIT()
NAMED_UNIT(*)
SI_UNIT($,.METRE.)
);
#696=PRODUCT_DEFINITION_SHAPE('','',#697);
#697=PRODUCT_DEFINITION('','',#699,#698);
#698=PRODUCT_DEFINITION_CONTEXT('',#705,'design');
#699=PRODUCT_DEFINITION_FORMATION_WITH_SPECIFIED_SOURCE('','',#701,
 .NOT_KNOWN.);
#700=PRODUCT_RELATED_PRODUCT_CATEGORY('','',(#701));
#701=PRODUCT('Part 1','Part 1','Part 1',(#703));
#702=PRODUCT_CATEGORY('','');
#703=PRODUCT_CONTEXT('',#705,'mechanical');
#704=APPLICATION_PROTOCOL_DEFINITION('international standard',
'ap242_managed_model_based_3d_engineering',2020,#705);
#705=APPLICATION_CONTEXT('managed model based 3d engineering');
ENDSEC;
END-ISO-10303-21;
