ISO-10303-21;
HEADER;
/* Generated by software containing ST-Developer
 * from STEP Tools, Inc. (www.steptools.com) 
 */
/* OPTION: using custom renumber hook */

FILE_DESCRIPTION(
/* description */ ('STEP AP242 Edition 2',
'CAx-IF Rec.Pracs.---Representation and Presentation of Product Manufa
cturing Information (PMI)---4.0---2014-10-13',
'CAx-IF Rec.Pracs.---3D Tessellated Geometry---0.4---2014-09-14','2;1',
'CAx-IF Rec.Pracs.---User Defined Attributes---1.5---2016-08-15'),
/* implementation_level */ '2;1');

FILE_NAME(
/* name */ 'CakePlate',
/* time_stamp */ '2026-09-07T05:40:27Z',
/* author */ (''),
/* organization */ (''),
/* preprocessor_version */ 'ST-DEVELOPER v20',
/* originating_system */ 'ONSHAPE BY PTC INC, 1.220',
/* authorisation */ '  ');

FILE_SCHEMA (('AP242_MANAGED_MODEL_BASED_3D_ENGINEERING_MIM_LF { 1 0 10303 442 3 1 4 }'));
ENDSEC;

DATA;
#10=SHAPE_REPRESENTATION_RELATIONSHIP('','',#315,#11);
#11=ADVANCED_BREP_SHAPE_REPRESENTATION('',(#313),#457);
#12=ELLIPSE('',#332,0.00102426406871193,0.000724264068711929);
#13=ELLIPSE('',#333,0.00102426406871193,0.000724264068711929);
#14=ELLIPSE('',#335,0.00102426406871193,0.000724264068711929);
#15=ELLIPSE('',#337,0.00102426406871193,0.000724264068711929);
#16=TOROIDAL_SURFACE('',#324,0.00601715728752538,0.000482842712474619);
#17=TOROIDAL_SURFACE('',#325,0.00601715728752538,0.000482842712474619);
#18=LINE('',#408,#34);
#19=LINE('',#411,#35);
#20=LINE('',#413,#36);
#21=LINE('',#415,#37);
#22=LINE('',#424,#38);
#23=LINE('',#426,#39);
#24=LINE('',#428,#40);
#25=LINE('',#430,#41);
#26=LINE('',#432,#42);
#27=LINE('',#434,#43);
#28=LINE('',#436,#44);
#29=LINE('',#438,#45);
#30=LINE('',#440,#46);
#31=LINE('',#443,#47);
#32=LINE('',#445,#48);
#33=LINE('',#447,#49);
#34=VECTOR('',#349,1.);
#35=VECTOR('',#350,1.);
#36=VECTOR('',#351,1.);
#37=VECTOR('',#352,1.);
#38=VECTOR('',#365,1.);
#39=VECTOR('',#366,1.);
#40=VECTOR('',#367,1.);
#41=VECTOR('',#370,1.);
#42=VECTOR('',#371,1.);
#43=VECTOR('',#374,1.);
#44=VECTOR('',#375,1.);
#45=VECTOR('',#378,1.);
#46=VECTOR('',#381,1.);
#47=VECTOR('',#382,1.);
#48=VECTOR('',#383,1.);
#49=VECTOR('',#384,1.);
#50=PLANE('',#320);
#51=PLANE('',#322);
#52=PLANE('',#326);
#53=PLANE('',#327);
#54=PLANE('',#328);
#55=PLANE('',#329);
#56=PLANE('',#330);
#57=ORIENTED_EDGE('',*,*,#105,.T.);
#58=ORIENTED_EDGE('',*,*,#106,.T.);
#59=ORIENTED_EDGE('',*,*,#107,.T.);
#60=ORIENTED_EDGE('',*,*,#108,.T.);
#61=ORIENTED_EDGE('',*,*,#109,.F.);
#62=ORIENTED_EDGE('',*,*,#110,.F.);
#63=ORIENTED_EDGE('',*,*,#111,.T.);
#64=ORIENTED_EDGE('',*,*,#112,.T.);
#65=ORIENTED_EDGE('',*,*,#105,.F.);
#66=ORIENTED_EDGE('',*,*,#111,.F.);
#67=ORIENTED_EDGE('',*,*,#112,.F.);
#68=ORIENTED_EDGE('',*,*,#106,.F.);
#69=ORIENTED_EDGE('',*,*,#113,.F.);
#70=ORIENTED_EDGE('',*,*,#114,.T.);
#71=ORIENTED_EDGE('',*,*,#115,.T.);
#72=ORIENTED_EDGE('',*,*,#107,.F.);
#73=ORIENTED_EDGE('',*,*,#116,.F.);
#74=ORIENTED_EDGE('',*,*,#117,.T.);
#75=ORIENTED_EDGE('',*,*,#113,.T.);
#76=ORIENTED_EDGE('',*,*,#110,.T.);
#77=ORIENTED_EDGE('',*,*,#118,.F.);
#78=ORIENTED_EDGE('',*,*,#119,.T.);
#79=ORIENTED_EDGE('',*,*,#116,.T.);
#80=ORIENTED_EDGE('',*,*,#109,.T.);
#81=ORIENTED_EDGE('',*,*,#115,.F.);
#82=ORIENTED_EDGE('',*,*,#120,.T.);
#83=ORIENTED_EDGE('',*,*,#118,.T.);
#84=ORIENTED_EDGE('',*,*,#108,.F.);
#85=ORIENTED_EDGE('',*,*,#121,.T.);
#86=ORIENTED_EDGE('',*,*,#122,.T.);
#87=ORIENTED_EDGE('',*,*,#123,.T.);
#88=ORIENTED_EDGE('',*,*,#124,.T.);
#89=ORIENTED_EDGE('',*,*,#125,.F.);
#90=ORIENTED_EDGE('',*,*,#121,.F.);
#91=ORIENTED_EDGE('',*,*,#126,.F.);
#92=ORIENTED_EDGE('',*,*,#117,.F.);
#93=ORIENTED_EDGE('',*,*,#126,.T.);
#94=ORIENTED_EDGE('',*,*,#124,.F.);
#95=ORIENTED_EDGE('',*,*,#127,.F.);
#96=ORIENTED_EDGE('',*,*,#114,.F.);
#97=ORIENTED_EDGE('',*,*,#125,.T.);
#98=ORIENTED_EDGE('',*,*,#119,.F.);
#99=ORIENTED_EDGE('',*,*,#128,.F.);
#100=ORIENTED_EDGE('',*,*,#122,.F.);
#101=ORIENTED_EDGE('',*,*,#127,.T.);
#102=ORIENTED_EDGE('',*,*,#123,.F.);
#103=ORIENTED_EDGE('',*,*,#128,.T.);
#104=ORIENTED_EDGE('',*,*,#120,.F.);
#105=EDGE_CURVE('',#129,#129,#145,.F.);
#106=EDGE_CURVE('',#130,#130,#146,.T.);
#107=EDGE_CURVE('',#131,#132,#18,.T.);
#108=EDGE_CURVE('',#132,#133,#19,.T.);
#109=EDGE_CURVE('',#134,#133,#20,.T.);
#110=EDGE_CURVE('',#131,#134,#21,.T.);
#111=EDGE_CURVE('',#135,#135,#147,.T.);
#112=EDGE_CURVE('',#136,#136,#148,.F.);
#113=EDGE_CURVE('',#137,#131,#22,.T.);
#114=EDGE_CURVE('',#137,#138,#23,.T.);
#115=EDGE_CURVE('',#138,#132,#24,.T.);
#116=EDGE_CURVE('',#139,#134,#25,.T.);
#117=EDGE_CURVE('',#139,#137,#26,.F.);
#118=EDGE_CURVE('',#140,#133,#27,.T.);
#119=EDGE_CURVE('',#140,#139,#28,.F.);
#120=EDGE_CURVE('',#138,#140,#29,.T.);
#121=EDGE_CURVE('',#141,#142,#30,.T.);
#122=EDGE_CURVE('',#142,#143,#31,.T.);
#123=EDGE_CURVE('',#143,#144,#32,.F.);
#124=EDGE_CURVE('',#144,#141,#33,.F.);
#125=EDGE_CURVE('',#142,#139,#12,.F.);
#126=EDGE_CURVE('',#137,#141,#13,.T.);
#127=EDGE_CURVE('',#138,#144,#14,.T.);
#128=EDGE_CURVE('',#143,#140,#15,.F.);
#129=VERTEX_POINT('',#404);
#130=VERTEX_POINT('',#406);
#131=VERTEX_POINT('',#409);
#132=VERTEX_POINT('',#410);
#133=VERTEX_POINT('',#412);
#134=VERTEX_POINT('',#414);
#135=VERTEX_POINT('',#417);
#136=VERTEX_POINT('',#420);
#137=VERTEX_POINT('',#425);
#138=VERTEX_POINT('',#427);
#139=VERTEX_POINT('',#431);
#140=VERTEX_POINT('',#435);
#141=VERTEX_POINT('',#441);
#142=VERTEX_POINT('',#442);
#143=VERTEX_POINT('',#444);
#144=VERTEX_POINT('',#446);
#145=CIRCLE('',#318,0.0065);
#146=CIRCLE('',#319,0.0065);
#147=CIRCLE('',#321,0.00601715728752538);
#148=CIRCLE('',#323,0.00601715728752538);
#149=EDGE_LOOP('',(#57));
#150=EDGE_LOOP('',(#58));
#151=EDGE_LOOP('',(#59,#60,#61,#62));
#152=EDGE_LOOP('',(#63));
#153=EDGE_LOOP('',(#64));
#154=EDGE_LOOP('',(#65));
#155=EDGE_LOOP('',(#66));
#156=EDGE_LOOP('',(#67));
#157=EDGE_LOOP('',(#68));
#158=EDGE_LOOP('',(#69,#70,#71,#72));
#159=EDGE_LOOP('',(#73,#74,#75,#76));
#160=EDGE_LOOP('',(#77,#78,#79,#80));
#161=EDGE_LOOP('',(#81,#82,#83,#84));
#162=EDGE_LOOP('',(#85,#86,#87,#88));
#163=EDGE_LOOP('',(#89,#90,#91,#92));
#164=EDGE_LOOP('',(#93,#94,#95,#96));
#165=EDGE_LOOP('',(#97,#98,#99,#100));
#166=EDGE_LOOP('',(#101,#102,#103,#104));
#167=FACE_BOUND('',#149,.T.);
#168=FACE_BOUND('',#150,.T.);
#169=FACE_BOUND('',#151,.T.);
#170=FACE_BOUND('',#152,.T.);
#171=FACE_BOUND('',#153,.T.);
#172=FACE_BOUND('',#154,.T.);
#173=FACE_BOUND('',#155,.T.);
#174=FACE_BOUND('',#156,.T.);
#175=FACE_BOUND('',#157,.T.);
#176=FACE_BOUND('',#158,.T.);
#177=FACE_BOUND('',#159,.T.);
#178=FACE_BOUND('',#160,.T.);
#179=FACE_BOUND('',#161,.T.);
#180=FACE_BOUND('',#162,.T.);
#181=FACE_BOUND('',#163,.T.);
#182=FACE_BOUND('',#164,.T.);
#183=FACE_BOUND('',#165,.T.);
#184=FACE_BOUND('',#166,.T.);
#185=CYLINDRICAL_SURFACE('',#317,0.0065);
#186=CYLINDRICAL_SURFACE('',#331,0.000724264068711929);
#187=CYLINDRICAL_SURFACE('',#334,0.000724264068711929);
#188=CYLINDRICAL_SURFACE('',#336,0.000724264068711929);
#189=CYLINDRICAL_SURFACE('',#338,0.000724264068711929);
#190=OVER_RIDING_STYLED_ITEM('',(#221),#204,#219);
#191=OVER_RIDING_STYLED_ITEM('',(#222),#205,#219);
#192=OVER_RIDING_STYLED_ITEM('',(#223),#206,#219);
#193=OVER_RIDING_STYLED_ITEM('',(#224),#207,#219);
#194=OVER_RIDING_STYLED_ITEM('',(#225),#208,#219);
#195=OVER_RIDING_STYLED_ITEM('',(#226),#209,#219);
#196=OVER_RIDING_STYLED_ITEM('',(#227),#210,#219);
#197=OVER_RIDING_STYLED_ITEM('',(#228),#211,#219);
#198=OVER_RIDING_STYLED_ITEM('',(#229),#212,#219);
#199=OVER_RIDING_STYLED_ITEM('',(#230),#213,#219);
#200=OVER_RIDING_STYLED_ITEM('',(#231),#214,#219);
#201=OVER_RIDING_STYLED_ITEM('',(#232),#215,#219);
#202=OVER_RIDING_STYLED_ITEM('',(#233),#216,#219);
#203=OVER_RIDING_STYLED_ITEM('',(#234),#217,#219);
#204=ADVANCED_FACE('Face appearance 1',(#167,#168),#185,.T.);
#205=ADVANCED_FACE('Face appearance 1',(#169,#170),#50,.T.);
#206=ADVANCED_FACE('Face appearance 1',(#171),#51,.F.);
#207=ADVANCED_FACE('Face appearance 2',(#172,#173),#16,.T.);
#208=ADVANCED_FACE('Face appearance 2',(#174,#175),#17,.T.);
#209=ADVANCED_FACE('Face appearance 3',(#176),#52,.T.);
#210=ADVANCED_FACE('Face appearance 3',(#177),#53,.F.);
#211=ADVANCED_FACE('Face appearance 3',(#178),#54,.F.);
#212=ADVANCED_FACE('Face appearance 3',(#179),#55,.T.);
#213=ADVANCED_FACE('Face appearance 3',(#180),#56,.T.);
#214=ADVANCED_FACE('Face appearance 3',(#181),#186,.T.);
#215=ADVANCED_FACE('Face appearance 3',(#182),#187,.T.);
#216=ADVANCED_FACE('Face appearance 3',(#183),#188,.T.);
#217=ADVANCED_FACE('Face appearance 3',(#184),#189,.T.);
#218=CLOSED_SHELL('',(#204,#205,#206,#207,#208,#209,#210,#211,#212,#213,
#214,#215,#216,#217));
#219=STYLED_ITEM('',(#220),#313);
#220=PRESENTATION_STYLE_ASSIGNMENT((#235));
#221=PRESENTATION_STYLE_ASSIGNMENT((#236));
#222=PRESENTATION_STYLE_ASSIGNMENT((#237));
#223=PRESENTATION_STYLE_ASSIGNMENT((#238));
#224=PRESENTATION_STYLE_ASSIGNMENT((#239));
#225=PRESENTATION_STYLE_ASSIGNMENT((#240));
#226=PRESENTATION_STYLE_ASSIGNMENT((#241));
#227=PRESENTATION_STYLE_ASSIGNMENT((#242));
#228=PRESENTATION_STYLE_ASSIGNMENT((#243));
#229=PRESENTATION_STYLE_ASSIGNMENT((#244));
#230=PRESENTATION_STYLE_ASSIGNMENT((#245));
#231=PRESENTATION_STYLE_ASSIGNMENT((#246));
#232=PRESENTATION_STYLE_ASSIGNMENT((#247));
#233=PRESENTATION_STYLE_ASSIGNMENT((#248));
#234=PRESENTATION_STYLE_ASSIGNMENT((#249));
#235=SURFACE_STYLE_USAGE(.BOTH.,#250);
#236=SURFACE_STYLE_USAGE(.BOTH.,#251);
#237=SURFACE_STYLE_USAGE(.BOTH.,#252);
#238=SURFACE_STYLE_USAGE(.BOTH.,#253);
#239=SURFACE_STYLE_USAGE(.BOTH.,#254);
#240=SURFACE_STYLE_USAGE(.BOTH.,#255);
#241=SURFACE_STYLE_USAGE(.BOTH.,#256);
#242=SURFACE_STYLE_USAGE(.BOTH.,#257);
#243=SURFACE_STYLE_USAGE(.BOTH.,#258);
#244=SURFACE_STYLE_USAGE(.BOTH.,#259);
#245=SURFACE_STYLE_USAGE(.BOTH.,#260);
#246=SURFACE_STYLE_USAGE(.BOTH.,#261);
#247=SURFACE_STYLE_USAGE(.BOTH.,#262);
#248=SURFACE_STYLE_USAGE(.BOTH.,#263);
#249=SURFACE_STYLE_USAGE(.BOTH.,#264);
#250=SURFACE_SIDE_STYLE('',(#265));
#251=SURFACE_SIDE_STYLE('',(#266));
#252=SURFACE_SIDE_STYLE('',(#267));
#253=SURFACE_SIDE_STYLE('',(#268));
#254=SURFACE_SIDE_STYLE('',(#269));
#255=SURFACE_SIDE_STYLE('',(#270));
#256=SURFACE_SIDE_STYLE('',(#271));
#257=SURFACE_SIDE_STYLE('',(#272));
#258=SURFACE_SIDE_STYLE('',(#273));
#259=SURFACE_SIDE_STYLE('',(#274));
#260=SURFACE_SIDE_STYLE('',(#275));
#261=SURFACE_SIDE_STYLE('',(#276));
#262=SURFACE_SIDE_STYLE('',(#277));
#263=SURFACE_SIDE_STYLE('',(#278));
#264=SURFACE_SIDE_STYLE('',(#279));
#265=SURFACE_STYLE_FILL_AREA(#280);
#266=SURFACE_STYLE_FILL_AREA(#281);
#267=SURFACE_STYLE_FILL_AREA(#282);
#268=SURFACE_STYLE_FILL_AREA(#283);
#269=SURFACE_STYLE_FILL_AREA(#284);
#270=SURFACE_STYLE_FILL_AREA(#285);
#271=SURFACE_STYLE_FILL_AREA(#286);
#272=SURFACE_STYLE_FILL_AREA(#287);
#273=SURFACE_STYLE_FILL_AREA(#288);
#274=SURFACE_STYLE_FILL_AREA(#289);
#275=SURFACE_STYLE_FILL_AREA(#290);
#276=SURFACE_STYLE_FILL_AREA(#291);
#277=SURFACE_STYLE_FILL_AREA(#292);
#278=SURFACE_STYLE_FILL_AREA(#293);
#279=SURFACE_STYLE_FILL_AREA(#294);
#280=FILL_AREA_STYLE('',(#295));
#281=FILL_AREA_STYLE('',(#296));
#282=FILL_AREA_STYLE('',(#297));
#283=FILL_AREA_STYLE('',(#298));
#284=FILL_AREA_STYLE('',(#299));
#285=FILL_AREA_STYLE('',(#300));
#286=FILL_AREA_STYLE('',(#301));
#287=FILL_AREA_STYLE('',(#302));
#288=FILL_AREA_STYLE('',(#303));
#289=FILL_AREA_STYLE('',(#304));
#290=FILL_AREA_STYLE('',(#305));
#291=FILL_AREA_STYLE('',(#306));
#292=FILL_AREA_STYLE('',(#307));
#293=FILL_AREA_STYLE('',(#308));
#294=FILL_AREA_STYLE('',(#309));
#295=FILL_AREA_STYLE_COLOUR('',#310);
#296=FILL_AREA_STYLE_COLOUR('',#311);
#297=FILL_AREA_STYLE_COLOUR('',#311);
#298=FILL_AREA_STYLE_COLOUR('',#311);
#299=FILL_AREA_STYLE_COLOUR('',#311);
#300=FILL_AREA_STYLE_COLOUR('',#311);
#301=FILL_AREA_STYLE_COLOUR('',#312);
#302=FILL_AREA_STYLE_COLOUR('',#312);
#303=FILL_AREA_STYLE_COLOUR('',#312);
#304=FILL_AREA_STYLE_COLOUR('',#312);
#305=FILL_AREA_STYLE_COLOUR('',#312);
#306=FILL_AREA_STYLE_COLOUR('',#312);
#307=FILL_AREA_STYLE_COLOUR('',#312);
#308=FILL_AREA_STYLE_COLOUR('',#312);
#309=FILL_AREA_STYLE_COLOUR('',#312);
#310=COLOUR_RGB('',0.615686274509804,0.811764705882353,0.929411764705882);
#311=COLOUR_RGB('',0.917647058823529,0.917647058823529,0.917647058823529);
#312=COLOUR_RGB('',0.917647058823529,0.725490196078431,0.490196078431373);
#313=MANIFOLD_SOLID_BREP('Part 1',#218);
#314=SHAPE_DEFINITION_REPRESENTATION(#462,#315);
#315=SHAPE_REPRESENTATION('Part 1',(#316),#457);
#316=AXIS2_PLACEMENT_3D('',#401,#339,#340);
#317=AXIS2_PLACEMENT_3D('',#402,#341,#342);
#318=AXIS2_PLACEMENT_3D('',#403,#343,#344);
#319=AXIS2_PLACEMENT_3D('',#405,#345,#346);
#320=AXIS2_PLACEMENT_3D('',#407,#347,#348);
#321=AXIS2_PLACEMENT_3D('',#416,#353,#354);
#322=AXIS2_PLACEMENT_3D('',#418,#355,#356);
#323=AXIS2_PLACEMENT_3D('',#419,#357,#358);
#324=AXIS2_PLACEMENT_3D('',#421,#359,#360);
#325=AXIS2_PLACEMENT_3D('',#422,#361,#362);
#326=AXIS2_PLACEMENT_3D('',#423,#363,#364);
#327=AXIS2_PLACEMENT_3D('',#429,#368,#369);
#328=AXIS2_PLACEMENT_3D('',#433,#372,#373);
#329=AXIS2_PLACEMENT_3D('',#437,#376,#377);
#330=AXIS2_PLACEMENT_3D('',#439,#379,#380);
#331=AXIS2_PLACEMENT_3D('',#448,#385,#386);
#332=AXIS2_PLACEMENT_3D('',#449,#387,#388);
#333=AXIS2_PLACEMENT_3D('',#450,#389,#390);
#334=AXIS2_PLACEMENT_3D('',#451,#391,#392);
#335=AXIS2_PLACEMENT_3D('',#452,#393,#394);
#336=AXIS2_PLACEMENT_3D('',#453,#395,#396);
#337=AXIS2_PLACEMENT_3D('',#454,#397,#398);
#338=AXIS2_PLACEMENT_3D('',#455,#399,#400);
#339=DIRECTION('',(0.,0.,1.));
#340=DIRECTION('',(1.,0.,0.));
#341=DIRECTION('',(0.,0.,-1.));
#342=DIRECTION('',(-1.,0.,0.));
#343=DIRECTION('',(0.,0.,1.));
#344=DIRECTION('',(1.,0.,0.));
#345=DIRECTION('',(0.,0.,1.));
#346=DIRECTION('',(1.,0.,0.));
#347=DIRECTION('',(0.,0.,1.));
#348=DIRECTION('',(1.,0.,0.));
#349=DIRECTION('',(-1.,-7.2280144832367E-17,0.));
#350=DIRECTION('',(7.2280144832367E-17,1.,0.));
#351=DIRECTION('',(-1.,-1.44560289664734E-16,0.));
#352=DIRECTION('',(7.2280144832367E-17,1.,0.));
#353=DIRECTION('',(0.,0.,1.));
#354=DIRECTION('',(1.,0.,0.));
#355=DIRECTION('',(0.,0.,1.));
#356=DIRECTION('',(1.,0.,0.));
#357=DIRECTION('',(0.,0.,1.));
#358=DIRECTION('',(1.,0.,0.));
#359=DIRECTION('',(0.,0.,1.));
#360=DIRECTION('',(1.,0.,0.));
#361=DIRECTION('',(0.,0.,1.));
#362=DIRECTION('',(1.,0.,0.));
#363=DIRECTION('',(7.2280144832367E-17,-1.,0.));
#364=DIRECTION('',(1.,7.2280144832367E-17,0.));
#365=DIRECTION('',(0.,0.,-1.));
#366=DIRECTION('',(-1.,-7.2280144832367E-17,0.));
#367=DIRECTION('',(0.,0.,-1.));
#368=DIRECTION('',(-1.,7.2280144832367E-17,0.));
#369=DIRECTION('',(-7.2280144832367E-17,-1.,0.));
#370=DIRECTION('',(0.,0.,-1.));
#371=DIRECTION('',(7.2280144832367E-17,1.,0.));
#372=DIRECTION('',(1.44560289664734E-16,-1.,0.));
#373=DIRECTION('',(1.,1.44560289664734E-16,0.));
#374=DIRECTION('',(0.,0.,-1.));
#375=DIRECTION('',(-1.,-1.44560289664734E-16,0.));
#376=DIRECTION('',(-1.,7.2280144832367E-17,0.));
#377=DIRECTION('',(-7.2280144832367E-17,-1.,0.));
#378=DIRECTION('',(7.2280144832367E-17,1.,0.));
#379=DIRECTION('',(0.,0.,1.));
#380=DIRECTION('',(1.,0.,0.));
#381=DIRECTION('',(7.2280144832367E-17,1.,0.));
#382=DIRECTION('',(-1.,-1.44560289664734E-16,0.));
#383=DIRECTION('',(7.2280144832367E-17,1.,0.));
#384=DIRECTION('',(-1.,-7.2280144832367E-17,0.));
#385=DIRECTION('',(-7.2280144832367E-17,-1.,0.));
#386=DIRECTION('',(1.,-7.2280144832367E-17,0.));
#387=DIRECTION('',(0.707106781186548,-0.707106781186548,0.));
#388=DIRECTION('',(0.707106781186548,0.707106781186548,0.));
#389=DIRECTION('',(-0.707106781186548,-0.707106781186548,0.));
#390=DIRECTION('',(-0.707106781186548,0.707106781186548,0.));
#391=DIRECTION('',(-1.,-7.2280144832367E-17,0.));
#392=DIRECTION('',(7.2280144832367E-17,-1.,0.));
#393=DIRECTION('',(-0.707106781186548,0.707106781186548,0.));
#394=DIRECTION('',(-0.707106781186548,-0.707106781186548,0.));
#395=DIRECTION('',(1.,1.44560289664734E-16,0.));
#396=DIRECTION('',(-1.44560289664734E-16,1.,0.));
#397=DIRECTION('',(0.707106781186548,0.707106781186548,0.));
#398=DIRECTION('',(0.707106781186548,-0.707106781186548,0.));
#399=DIRECTION('',(7.2280144832367E-17,1.,0.));
#400=DIRECTION('',(-1.,7.2280144832367E-17,0.));
#401=CARTESIAN_POINT('',(0.,0.,0.));
#402=CARTESIAN_POINT('',(0.,3.9801020972289E-19,0.001));
#403=CARTESIAN_POINT('',(0.,3.9801020972289E-19,0.000517157287525381));
#404=CARTESIAN_POINT('',(0.0065,3.9801020972289E-19,0.000517157287525381));
#405=CARTESIAN_POINT('',(0.,3.9801020972289E-19,0.000482842712474619));
#406=CARTESIAN_POINT('',(0.0065,3.9801020972289E-19,0.000482842712474619));
#407=CARTESIAN_POINT('',(0.,0.,0.001));
#408=CARTESIAN_POINT('',(-2.16840434497101E-19,-0.003,0.001));
#409=CARTESIAN_POINT('',(0.003,-0.003,0.001));
#410=CARTESIAN_POINT('',(-0.003,-0.003,0.001));
#411=CARTESIAN_POINT('',(-0.003,0.,0.001));
#412=CARTESIAN_POINT('',(-0.003,0.003,0.001));
#413=CARTESIAN_POINT('',(0.,0.003,0.001));
#414=CARTESIAN_POINT('',(0.003,0.003,0.001));
#415=CARTESIAN_POINT('',(0.003,8.67361737988404E-19,0.001));
#416=CARTESIAN_POINT('',(0.,3.9801020972289E-19,0.001));
#417=CARTESIAN_POINT('',(0.00601715728752538,3.9801020972289E-19,0.001));
#418=CARTESIAN_POINT('',(0.,0.,0.));
#419=CARTESIAN_POINT('',(0.,3.9801020972289E-19,0.));
#420=CARTESIAN_POINT('',(0.00601715728752538,3.9801020972289E-19,0.));
#421=CARTESIAN_POINT('',(0.,3.9801020972289E-19,0.000517157287525381));
#422=CARTESIAN_POINT('',(0.,3.9801020972289E-19,0.000482842712474619));
#423=CARTESIAN_POINT('',(-2.16840434497101E-19,-0.003,0.006));
#424=CARTESIAN_POINT('',(0.003,-0.003,0.006));
#425=CARTESIAN_POINT('',(0.003,-0.003,0.00527573593128807));
#426=CARTESIAN_POINT('',(-2.16840434497101E-19,-0.003,0.00527573593128807));
#427=CARTESIAN_POINT('',(-0.003,-0.003,0.00527573593128807));
#428=CARTESIAN_POINT('',(-0.003,-0.003,0.006));
#429=CARTESIAN_POINT('',(0.003,8.67361737988404E-19,0.006));
#430=CARTESIAN_POINT('',(0.003,0.003,0.006));
#431=CARTESIAN_POINT('',(0.003,0.003,0.00527573593128807));
#432=CARTESIAN_POINT('',(0.003,-0.003,0.00527573593128807));
#433=CARTESIAN_POINT('',(0.,0.003,0.006));
#434=CARTESIAN_POINT('',(-0.003,0.003,0.006));
#435=CARTESIAN_POINT('',(-0.003,0.003,0.00527573593128807));
#436=CARTESIAN_POINT('',(0.003,0.003,0.00527573593128807));
#437=CARTESIAN_POINT('',(-0.003,0.,0.006));
#438=CARTESIAN_POINT('',(-0.003,0.,0.00527573593128807));
#439=CARTESIAN_POINT('',(0.,0.,0.006));
#440=CARTESIAN_POINT('',(0.00227573593128807,0.003,0.006));
#441=CARTESIAN_POINT('',(0.00227573593128807,-0.00227573593128807,0.006));
#442=CARTESIAN_POINT('',(0.00227573593128807,0.00227573593128807,0.006));
#443=CARTESIAN_POINT('',(-0.003,0.00227573593128807,0.006));
#444=CARTESIAN_POINT('',(-0.00227573593128807,0.00227573593128807,0.006));
#445=CARTESIAN_POINT('',(-0.00227573593128807,1.64490522713724E-19,0.006));
#446=CARTESIAN_POINT('',(-0.00227573593128807,-0.00227573593128807,0.006));
#447=CARTESIAN_POINT('',(1.64490522713724E-19,-0.00227573593128807,0.006));
#448=CARTESIAN_POINT('',(0.00227573593128807,-1.64490522713724E-19,0.00527573593128807));
#449=CARTESIAN_POINT('',(0.00227573593128807,0.00227573593128807,0.00527573593128807));
#450=CARTESIAN_POINT('',(0.00227573593128807,-0.00227573593128807,0.00527573593128807));
#451=CARTESIAN_POINT('',(-2.69190346280479E-19,-0.00227573593128807,0.00527573593128807));
#452=CARTESIAN_POINT('',(-0.00227573593128807,-0.00227573593128807,0.00527573593128807));
#453=CARTESIAN_POINT('',(-3.28981045427446E-19,0.00227573593128807,0.00527573593128807));
#454=CARTESIAN_POINT('',(-0.00227573593128807,0.00227573593128807,0.00527573593128807));
#455=CARTESIAN_POINT('',(-0.00227573593128807,-5.23499117833776E-20,0.00527573593128807));
#456=MECHANICAL_DESIGN_GEOMETRIC_PRESENTATION_REPRESENTATION('',(#219,#190,
#191,#192,#193,#194,#195,#196,#197,#198,#199,#200,#201,#202,#203),#457);
#457=(
GEOMETRIC_REPRESENTATION_CONTEXT(3)
GLOBAL_UNCERTAINTY_ASSIGNED_CONTEXT((#458))
GLOBAL_UNIT_ASSIGNED_CONTEXT((#461,#460,#459))
REPRESENTATION_CONTEXT('Part 1','TOP_LEVEL_ASSEMBLY_PART')
);
#458=UNCERTAINTY_MEASURE_WITH_UNIT(LENGTH_MEASURE(1.E-8),#461,
'DISTANCE_ACCURACY_VALUE','Maximum Tolerance applied to model');
#459=(
NAMED_UNIT(*)
SI_UNIT($,.STERADIAN.)
SOLID_ANGLE_UNIT()
);
#460=(
NAMED_UNIT(*)
PLANE_ANGLE_UNIT()
SI_UNIT($,.RADIAN.)
);
#461=(
LENGTH_UNIT()
NAMED_UNIT(*)
SI_UNIT($,.METRE.)
);
#462=PRODUCT_DEFINITION_SHAPE('','',#463);
#463=PRODUCT_DEFINITION('','',#465,#464);
#464=PRODUCT_DEFINITION_CONTEXT('',#471,'design');
#465=PRODUCT_DEFINITION_FORMATION_WITH_SPECIFIED_SOURCE('','',#467,
 .NOT_KNOWN.);
#466=PRODUCT_RELATED_PRODUCT_CATEGORY('','',(#467));
#467=PRODUCT('Part 1','Part 1','Part 1',(#469));
#468=PRODUCT_CATEGORY('','');
#469=PRODUCT_CONTEXT('',#471,'mechanical');
#470=APPLICATION_PROTOCOL_DEFINITION('international standard',
'ap242_managed_model_based_3d_engineering',2020,#471);
#471=APPLICATION_CONTEXT('managed model based 3d engineering');
ENDSEC;
END-ISO-10303-21;
