ISO-10303-21;
HEADER;
/* Generated by software containing ST-Developer
 * from STEP Tools, Inc. (www.steptools.com) 
 */
/* OPTION: using custom renumber hook */

FILE_DESCRIPTION(
/* description */ ('STEP AP242 Edition 2',
'CAx-IF Rec.Pracs.---Representation and Presentation of Product Manufa
cturing Information (PMI)---4.0---2014-10-13',
'CAx-IF Rec.Pracs.---3D Tessellated Geometry---0.4---2014-09-14','2;1',
'CAx-IF Rec.Pracs.---User Defined Attributes---1.5---2016-08-15'),
/* implementation_level */ '2;1');

FILE_NAME(
/* name */ 'Chair',
/* time_stamp */ '2026-09-07T05:39:28Z',
/* author */ (''),
/* organization */ (''),
/* preprocessor_version */ 'ST-DEVELOPER v20',
/* originating_system */ 'ONSHAPE BY PTC INC, 1.220',
/* authorisation */ '  ');

FILE_SCHEMA (('AP242_MANAGED_MODEL_BASED_3D_ENGINEERING_MIM_LF { 1 0 10303 442 3 1 4 }'));
ENDSEC;

DATA;
#10=SHAPE_REPRESENTATION_RELATIONSHIP('','',#527,#12);
#11=SHAPE_REPRESENTATION_RELATIONSHIP('','',#528,#13);
#12=ADVANCED_BREP_SHAPE_REPRESENTATION('',(#523),#839);
#13=ADVANCED_BREP_SHAPE_REPRESENTATION('',(#524),#840);
#14=ELLIPSE('',#537,0.000682842712474619,0.000482842712474619);
#15=ELLIPSE('',#538,0.000682842712474619,0.000482842712474619);
#16=ELLIPSE('',#540,0.000682842712474619,0.000482842712474619);
#17=ELLIPSE('',#542,0.000682842712474619,0.000482842712474619);
#18=CYLINDRICAL_SURFACE('',#536,0.000482842712474619);
#19=CYLINDRICAL_SURFACE('',#539,0.000482842712474619);
#20=CYLINDRICAL_SURFACE('',#541,0.000482842712474619);
#21=CYLINDRICAL_SURFACE('',#543,0.000482842712474619);
#22=ORIENTED_EDGE('',*,*,#158,.F.);
#23=ORIENTED_EDGE('',*,*,#159,.T.);
#24=ORIENTED_EDGE('',*,*,#160,.T.);
#25=ORIENTED_EDGE('',*,*,#161,.T.);
#26=ORIENTED_EDGE('',*,*,#162,.F.);
#27=ORIENTED_EDGE('',*,*,#163,.T.);
#28=ORIENTED_EDGE('',*,*,#158,.T.);
#29=ORIENTED_EDGE('',*,*,#164,.T.);
#30=ORIENTED_EDGE('',*,*,#165,.F.);
#31=ORIENTED_EDGE('',*,*,#166,.T.);
#32=ORIENTED_EDGE('',*,*,#162,.T.);
#33=ORIENTED_EDGE('',*,*,#167,.F.);
#34=ORIENTED_EDGE('',*,*,#160,.F.);
#35=ORIENTED_EDGE('',*,*,#168,.T.);
#36=ORIENTED_EDGE('',*,*,#165,.T.);
#37=ORIENTED_EDGE('',*,*,#169,.T.);
#38=ORIENTED_EDGE('',*,*,#170,.T.);
#39=ORIENTED_EDGE('',*,*,#171,.T.);
#40=ORIENTED_EDGE('',*,*,#172,.T.);
#41=ORIENTED_EDGE('',*,*,#173,.T.);
#42=ORIENTED_EDGE('',*,*,#161,.F.);
#43=ORIENTED_EDGE('',*,*,#169,.F.);
#44=ORIENTED_EDGE('',*,*,#167,.T.);
#45=ORIENTED_EDGE('',*,*,#164,.F.);
#46=ORIENTED_EDGE('',*,*,#174,.F.);
#47=ORIENTED_EDGE('',*,*,#170,.F.);
#48=ORIENTED_EDGE('',*,*,#175,.F.);
#49=ORIENTED_EDGE('',*,*,#159,.F.);
#50=ORIENTED_EDGE('',*,*,#175,.T.);
#51=ORIENTED_EDGE('',*,*,#173,.F.);
#52=ORIENTED_EDGE('',*,*,#176,.F.);
#53=ORIENTED_EDGE('',*,*,#168,.F.);
#54=ORIENTED_EDGE('',*,*,#174,.T.);
#55=ORIENTED_EDGE('',*,*,#163,.F.);
#56=ORIENTED_EDGE('',*,*,#177,.F.);
#57=ORIENTED_EDGE('',*,*,#171,.F.);
#58=ORIENTED_EDGE('',*,*,#176,.T.);
#59=ORIENTED_EDGE('',*,*,#172,.F.);
#60=ORIENTED_EDGE('',*,*,#177,.T.);
#61=ORIENTED_EDGE('',*,*,#166,.F.);
#62=ORIENTED_EDGE('',*,*,#178,.F.);
#63=ORIENTED_EDGE('',*,*,#179,.T.);
#64=ORIENTED_EDGE('',*,*,#180,.F.);
#65=ORIENTED_EDGE('',*,*,#181,.F.);
#66=ORIENTED_EDGE('',*,*,#182,.T.);
#67=ORIENTED_EDGE('',*,*,#183,.F.);
#68=ORIENTED_EDGE('',*,*,#184,.F.);
#69=ORIENTED_EDGE('',*,*,#185,.T.);
#70=ORIENTED_EDGE('',*,*,#186,.T.);
#71=ORIENTED_EDGE('',*,*,#187,.F.);
#72=ORIENTED_EDGE('',*,*,#188,.T.);
#73=ORIENTED_EDGE('',*,*,#189,.T.);
#74=ORIENTED_EDGE('',*,*,#190,.T.);
#75=ORIENTED_EDGE('',*,*,#191,.F.);
#76=ORIENTED_EDGE('',*,*,#192,.F.);
#77=ORIENTED_EDGE('',*,*,#193,.T.);
#78=ORIENTED_EDGE('',*,*,#194,.T.);
#79=ORIENTED_EDGE('',*,*,#183,.T.);
#80=ORIENTED_EDGE('',*,*,#195,.F.);
#81=ORIENTED_EDGE('',*,*,#196,.F.);
#82=ORIENTED_EDGE('',*,*,#197,.F.);
#83=ORIENTED_EDGE('',*,*,#198,.T.);
#84=ORIENTED_EDGE('',*,*,#199,.T.);
#85=ORIENTED_EDGE('',*,*,#186,.F.);
#86=ORIENTED_EDGE('',*,*,#200,.F.);
#87=ORIENTED_EDGE('',*,*,#201,.F.);
#88=ORIENTED_EDGE('',*,*,#192,.T.);
#89=ORIENTED_EDGE('',*,*,#202,.T.);
#90=ORIENTED_EDGE('',*,*,#203,.F.);
#91=ORIENTED_EDGE('',*,*,#204,.T.);
#92=ORIENTED_EDGE('',*,*,#205,.T.);
#93=ORIENTED_EDGE('',*,*,#189,.F.);
#94=ORIENTED_EDGE('',*,*,#206,.F.);
#95=ORIENTED_EDGE('',*,*,#207,.F.);
#96=ORIENTED_EDGE('',*,*,#197,.T.);
#97=ORIENTED_EDGE('',*,*,#208,.T.);
#98=ORIENTED_EDGE('',*,*,#203,.T.);
#99=ORIENTED_EDGE('',*,*,#209,.F.);
#100=ORIENTED_EDGE('',*,*,#190,.F.);
#101=ORIENTED_EDGE('',*,*,#210,.T.);
#102=ORIENTED_EDGE('',*,*,#211,.T.);
#103=ORIENTED_EDGE('',*,*,#180,.T.);
#104=ORIENTED_EDGE('',*,*,#212,.F.);
#105=ORIENTED_EDGE('',*,*,#213,.F.);
#106=ORIENTED_EDGE('',*,*,#209,.T.);
#107=ORIENTED_EDGE('',*,*,#208,.F.);
#108=ORIENTED_EDGE('',*,*,#202,.F.);
#109=ORIENTED_EDGE('',*,*,#191,.T.);
#110=ORIENTED_EDGE('',*,*,#182,.F.);
#111=ORIENTED_EDGE('',*,*,#214,.F.);
#112=ORIENTED_EDGE('',*,*,#215,.F.);
#113=ORIENTED_EDGE('',*,*,#195,.T.);
#114=ORIENTED_EDGE('',*,*,#214,.T.);
#115=ORIENTED_EDGE('',*,*,#181,.T.);
#116=ORIENTED_EDGE('',*,*,#211,.F.);
#117=ORIENTED_EDGE('',*,*,#216,.T.);
#118=ORIENTED_EDGE('',*,*,#210,.F.);
#119=ORIENTED_EDGE('',*,*,#196,.T.);
#120=ORIENTED_EDGE('',*,*,#215,.T.);
#121=ORIENTED_EDGE('',*,*,#216,.F.);
#122=ORIENTED_EDGE('',*,*,#188,.F.);
#123=ORIENTED_EDGE('',*,*,#217,.F.);
#124=ORIENTED_EDGE('',*,*,#218,.F.);
#125=ORIENTED_EDGE('',*,*,#206,.T.);
#126=ORIENTED_EDGE('',*,*,#217,.T.);
#127=ORIENTED_EDGE('',*,*,#187,.T.);
#128=ORIENTED_EDGE('',*,*,#199,.F.);
#129=ORIENTED_EDGE('',*,*,#219,.T.);
#130=ORIENTED_EDGE('',*,*,#198,.F.);
#131=ORIENTED_EDGE('',*,*,#207,.T.);
#132=ORIENTED_EDGE('',*,*,#218,.T.);
#133=ORIENTED_EDGE('',*,*,#219,.F.);
#134=ORIENTED_EDGE('',*,*,#185,.F.);
#135=ORIENTED_EDGE('',*,*,#220,.F.);
#136=ORIENTED_EDGE('',*,*,#221,.F.);
#137=ORIENTED_EDGE('',*,*,#200,.T.);
#138=ORIENTED_EDGE('',*,*,#220,.T.);
#139=ORIENTED_EDGE('',*,*,#184,.T.);
#140=ORIENTED_EDGE('',*,*,#194,.F.);
#141=ORIENTED_EDGE('',*,*,#222,.T.);
#142=ORIENTED_EDGE('',*,*,#193,.F.);
#143=ORIENTED_EDGE('',*,*,#201,.T.);
#144=ORIENTED_EDGE('',*,*,#221,.T.);
#145=ORIENTED_EDGE('',*,*,#222,.F.);
#146=ORIENTED_EDGE('',*,*,#179,.F.);
#147=ORIENTED_EDGE('',*,*,#223,.F.);
#148=ORIENTED_EDGE('',*,*,#224,.F.);
#149=ORIENTED_EDGE('',*,*,#212,.T.);
#150=ORIENTED_EDGE('',*,*,#223,.T.);
#151=ORIENTED_EDGE('',*,*,#178,.T.);
#152=ORIENTED_EDGE('',*,*,#205,.F.);
#153=ORIENTED_EDGE('',*,*,#225,.T.);
#154=ORIENTED_EDGE('',*,*,#204,.F.);
#155=ORIENTED_EDGE('',*,*,#213,.T.);
#156=ORIENTED_EDGE('',*,*,#224,.T.);
#157=ORIENTED_EDGE('',*,*,#225,.F.);
#158=EDGE_CURVE('',#226,#227,#270,.T.);
#159=EDGE_CURVE('',#226,#228,#271,.F.);
#160=EDGE_CURVE('',#228,#229,#272,.T.);
#161=EDGE_CURVE('',#229,#227,#273,.T.);
#162=EDGE_CURVE('',#230,#231,#274,.T.);
#163=EDGE_CURVE('',#230,#226,#275,.F.);
#164=EDGE_CURVE('',#227,#231,#276,.T.);
#165=EDGE_CURVE('',#232,#233,#277,.T.);
#166=EDGE_CURVE('',#232,#230,#278,.T.);
#167=EDGE_CURVE('',#233,#231,#279,.T.);
#168=EDGE_CURVE('',#228,#232,#280,.F.);
#169=EDGE_CURVE('',#233,#229,#281,.T.);
#170=EDGE_CURVE('',#234,#235,#282,.T.);
#171=EDGE_CURVE('',#235,#236,#283,.T.);
#172=EDGE_CURVE('',#236,#237,#284,.F.);
#173=EDGE_CURVE('',#237,#234,#285,.T.);
#174=EDGE_CURVE('',#235,#226,#14,.F.);
#175=EDGE_CURVE('',#228,#234,#15,.T.);
#176=EDGE_CURVE('',#232,#237,#16,.T.);
#177=EDGE_CURVE('',#236,#230,#17,.F.);
#178=EDGE_CURVE('',#238,#239,#286,.T.);
#179=EDGE_CURVE('',#238,#240,#287,.T.);
#180=EDGE_CURVE('',#241,#240,#288,.T.);
#181=EDGE_CURVE('',#242,#241,#289,.T.);
#182=EDGE_CURVE('',#242,#243,#290,.T.);
#183=EDGE_CURVE('',#244,#243,#291,.T.);
#184=EDGE_CURVE('',#245,#244,#292,.T.);
#185=EDGE_CURVE('',#245,#246,#293,.T.);
#186=EDGE_CURVE('',#246,#247,#294,.T.);
#187=EDGE_CURVE('',#248,#247,#295,.T.);
#188=EDGE_CURVE('',#248,#249,#296,.T.);
#189=EDGE_CURVE('',#249,#239,#297,.T.);
#190=EDGE_CURVE('',#250,#251,#298,.T.);
#191=EDGE_CURVE('',#252,#251,#299,.T.);
#192=EDGE_CURVE('',#253,#252,#300,.T.);
#193=EDGE_CURVE('',#253,#254,#301,.T.);
#194=EDGE_CURVE('',#254,#244,#302,.T.);
#195=EDGE_CURVE('',#255,#243,#303,.T.);
#196=EDGE_CURVE('',#250,#255,#304,.T.);
#197=EDGE_CURVE('',#256,#257,#305,.T.);
#198=EDGE_CURVE('',#256,#258,#306,.T.);
#199=EDGE_CURVE('',#258,#247,#307,.T.);
#200=EDGE_CURVE('',#259,#246,#308,.T.);
#201=EDGE_CURVE('',#253,#259,#309,.T.);
#202=EDGE_CURVE('',#252,#257,#310,.T.);
#203=EDGE_CURVE('',#260,#261,#311,.T.);
#204=EDGE_CURVE('',#260,#262,#312,.T.);
#205=EDGE_CURVE('',#262,#239,#313,.T.);
#206=EDGE_CURVE('',#263,#249,#314,.T.);
#207=EDGE_CURVE('',#256,#263,#315,.T.);
#208=EDGE_CURVE('',#257,#261,#316,.T.);
#209=EDGE_CURVE('',#251,#261,#317,.T.);
#210=EDGE_CURVE('',#250,#264,#318,.T.);
#211=EDGE_CURVE('',#264,#241,#319,.T.);
#212=EDGE_CURVE('',#265,#240,#320,.T.);
#213=EDGE_CURVE('',#260,#265,#321,.T.);
#214=EDGE_CURVE('',#266,#242,#322,.T.);
#215=EDGE_CURVE('',#255,#266,#323,.T.);
#216=EDGE_CURVE('',#264,#266,#324,.T.);
#217=EDGE_CURVE('',#267,#248,#325,.T.);
#218=EDGE_CURVE('',#263,#267,#326,.T.);
#219=EDGE_CURVE('',#258,#267,#327,.T.);
#220=EDGE_CURVE('',#268,#245,#328,.T.);
#221=EDGE_CURVE('',#259,#268,#329,.T.);
#222=EDGE_CURVE('',#254,#268,#330,.T.);
#223=EDGE_CURVE('',#269,#238,#331,.T.);
#224=EDGE_CURVE('',#265,#269,#332,.T.);
#225=EDGE_CURVE('',#262,#269,#333,.T.);
#226=VERTEX_POINT('',#698);
#227=VERTEX_POINT('',#699);
#228=VERTEX_POINT('',#701);
#229=VERTEX_POINT('',#703);
#230=VERTEX_POINT('',#707);
#231=VERTEX_POINT('',#708);
#232=VERTEX_POINT('',#713);
#233=VERTEX_POINT('',#714);
#234=VERTEX_POINT('',#722);
#235=VERTEX_POINT('',#723);
#236=VERTEX_POINT('',#725);
#237=VERTEX_POINT('',#727);
#238=VERTEX_POINT('',#741);
#239=VERTEX_POINT('',#742);
#240=VERTEX_POINT('',#744);
#241=VERTEX_POINT('',#746);
#242=VERTEX_POINT('',#748);
#243=VERTEX_POINT('',#750);
#244=VERTEX_POINT('',#752);
#245=VERTEX_POINT('',#754);
#246=VERTEX_POINT('',#756);
#247=VERTEX_POINT('',#758);
#248=VERTEX_POINT('',#760);
#249=VERTEX_POINT('',#762);
#250=VERTEX_POINT('',#766);
#251=VERTEX_POINT('',#767);
#252=VERTEX_POINT('',#769);
#253=VERTEX_POINT('',#771);
#254=VERTEX_POINT('',#773);
#255=VERTEX_POINT('',#776);
#256=VERTEX_POINT('',#780);
#257=VERTEX_POINT('',#781);
#258=VERTEX_POINT('',#783);
#259=VERTEX_POINT('',#786);
#260=VERTEX_POINT('',#791);
#261=VERTEX_POINT('',#792);
#262=VERTEX_POINT('',#794);
#263=VERTEX_POINT('',#797);
#264=VERTEX_POINT('',#803);
#265=VERTEX_POINT('',#806);
#266=VERTEX_POINT('',#811);
#267=VERTEX_POINT('',#818);
#268=VERTEX_POINT('',#825);
#269=VERTEX_POINT('',#832);
#270=LINE('',#697,#334);
#271=LINE('',#700,#335);
#272=LINE('',#702,#336);
#273=LINE('',#704,#337);
#274=LINE('',#706,#338);
#275=LINE('',#709,#339);
#276=LINE('',#710,#340);
#277=LINE('',#712,#341);
#278=LINE('',#715,#342);
#279=LINE('',#716,#343);
#280=LINE('',#718,#344);
#281=LINE('',#719,#345);
#282=LINE('',#721,#346);
#283=LINE('',#724,#347);
#284=LINE('',#726,#348);
#285=LINE('',#728,#349);
#286=LINE('',#740,#350);
#287=LINE('',#743,#351);
#288=LINE('',#745,#352);
#289=LINE('',#747,#353);
#290=LINE('',#749,#354);
#291=LINE('',#751,#355);
#292=LINE('',#753,#356);
#293=LINE('',#755,#357);
#294=LINE('',#757,#358);
#295=LINE('',#759,#359);
#296=LINE('',#761,#360);
#297=LINE('',#763,#361);
#298=LINE('',#765,#362);
#299=LINE('',#768,#363);
#300=LINE('',#770,#364);
#301=LINE('',#772,#365);
#302=LINE('',#774,#366);
#303=LINE('',#775,#367);
#304=LINE('',#777,#368);
#305=LINE('',#779,#369);
#306=LINE('',#782,#370);
#307=LINE('',#784,#371);
#308=LINE('',#785,#372);
#309=LINE('',#787,#373);
#310=LINE('',#788,#374);
#311=LINE('',#790,#375);
#312=LINE('',#793,#376);
#313=LINE('',#795,#377);
#314=LINE('',#796,#378);
#315=LINE('',#798,#379);
#316=LINE('',#799,#380);
#317=LINE('',#801,#381);
#318=LINE('',#802,#382);
#319=LINE('',#804,#383);
#320=LINE('',#805,#384);
#321=LINE('',#807,#385);
#322=LINE('',#810,#386);
#323=LINE('',#812,#387);
#324=LINE('',#814,#388);
#325=LINE('',#817,#389);
#326=LINE('',#819,#390);
#327=LINE('',#821,#391);
#328=LINE('',#824,#392);
#329=LINE('',#826,#393);
#330=LINE('',#828,#394);
#331=LINE('',#831,#395);
#332=LINE('',#833,#396);
#333=LINE('',#835,#397);
#334=VECTOR('',#567,1.);
#335=VECTOR('',#568,1.);
#336=VECTOR('',#569,1.);
#337=VECTOR('',#570,1.);
#338=VECTOR('',#573,1.);
#339=VECTOR('',#574,1.);
#340=VECTOR('',#575,1.);
#341=VECTOR('',#578,1.);
#342=VECTOR('',#579,1.);
#343=VECTOR('',#580,1.);
#344=VECTOR('',#583,1.);
#345=VECTOR('',#584,1.);
#346=VECTOR('',#587,1.);
#347=VECTOR('',#588,1.);
#348=VECTOR('',#589,1.);
#349=VECTOR('',#590,1.);
#350=VECTOR('',#613,1.);
#351=VECTOR('',#614,1.);
#352=VECTOR('',#615,1.);
#353=VECTOR('',#616,1.);
#354=VECTOR('',#617,1.);
#355=VECTOR('',#618,1.);
#356=VECTOR('',#619,1.);
#357=VECTOR('',#620,1.);
#358=VECTOR('',#621,1.);
#359=VECTOR('',#622,1.);
#360=VECTOR('',#623,1.);
#361=VECTOR('',#624,1.);
#362=VECTOR('',#627,1.);
#363=VECTOR('',#628,1.);
#364=VECTOR('',#629,1.);
#365=VECTOR('',#630,1.);
#366=VECTOR('',#631,1.);
#367=VECTOR('',#632,1.);
#368=VECTOR('',#633,1.);
#369=VECTOR('',#636,1.);
#370=VECTOR('',#637,1.);
#371=VECTOR('',#638,1.);
#372=VECTOR('',#639,1.);
#373=VECTOR('',#640,1.);
#374=VECTOR('',#641,1.);
#375=VECTOR('',#644,1.);
#376=VECTOR('',#645,1.);
#377=VECTOR('',#646,1.);
#378=VECTOR('',#647,1.);
#379=VECTOR('',#648,1.);
#380=VECTOR('',#649,1.);
#381=VECTOR('',#652,1.);
#382=VECTOR('',#653,1.);
#383=VECTOR('',#654,1.);
#384=VECTOR('',#655,1.);
#385=VECTOR('',#656,1.);
#386=VECTOR('',#661,1.);
#387=VECTOR('',#662,1.);
#388=VECTOR('',#665,1.);
#389=VECTOR('',#670,1.);
#390=VECTOR('',#671,1.);
#391=VECTOR('',#674,1.);
#392=VECTOR('',#679,1.);
#393=VECTOR('',#680,1.);
#394=VECTOR('',#683,1.);
#395=VECTOR('',#688,1.);
#396=VECTOR('',#689,1.);
#397=VECTOR('',#692,1.);
#398=EDGE_LOOP('',(#22,#23,#24,#25));
#399=EDGE_LOOP('',(#26,#27,#28,#29));
#400=EDGE_LOOP('',(#30,#31,#32,#33));
#401=EDGE_LOOP('',(#34,#35,#36,#37));
#402=EDGE_LOOP('',(#38,#39,#40,#41));
#403=EDGE_LOOP('',(#42,#43,#44,#45));
#404=EDGE_LOOP('',(#46,#47,#48,#49));
#405=EDGE_LOOP('',(#50,#51,#52,#53));
#406=EDGE_LOOP('',(#54,#55,#56,#57));
#407=EDGE_LOOP('',(#58,#59,#60,#61));
#408=EDGE_LOOP('',(#62,#63,#64,#65,#66,#67,#68,#69,#70,#71,#72,#73));
#409=EDGE_LOOP('',(#74,#75,#76,#77,#78,#79,#80,#81));
#410=EDGE_LOOP('',(#82,#83,#84,#85,#86,#87,#88,#89));
#411=EDGE_LOOP('',(#90,#91,#92,#93,#94,#95,#96,#97));
#412=EDGE_LOOP('',(#98,#99,#100,#101,#102,#103,#104,#105));
#413=EDGE_LOOP('',(#106,#107,#108,#109));
#414=EDGE_LOOP('',(#110,#111,#112,#113));
#415=EDGE_LOOP('',(#114,#115,#116,#117));
#416=EDGE_LOOP('',(#118,#119,#120,#121));
#417=EDGE_LOOP('',(#122,#123,#124,#125));
#418=EDGE_LOOP('',(#126,#127,#128,#129));
#419=EDGE_LOOP('',(#130,#131,#132,#133));
#420=EDGE_LOOP('',(#134,#135,#136,#137));
#421=EDGE_LOOP('',(#138,#139,#140,#141));
#422=EDGE_LOOP('',(#142,#143,#144,#145));
#423=EDGE_LOOP('',(#146,#147,#148,#149));
#424=EDGE_LOOP('',(#150,#151,#152,#153));
#425=EDGE_LOOP('',(#154,#155,#156,#157));
#426=FACE_BOUND('',#398,.T.);
#427=FACE_BOUND('',#399,.T.);
#428=FACE_BOUND('',#400,.T.);
#429=FACE_BOUND('',#401,.T.);
#430=FACE_BOUND('',#402,.T.);
#431=FACE_BOUND('',#403,.T.);
#432=FACE_BOUND('',#404,.T.);
#433=FACE_BOUND('',#405,.T.);
#434=FACE_BOUND('',#406,.T.);
#435=FACE_BOUND('',#407,.T.);
#436=FACE_BOUND('',#408,.T.);
#437=FACE_BOUND('',#409,.T.);
#438=FACE_BOUND('',#410,.T.);
#439=FACE_BOUND('',#411,.T.);
#440=FACE_BOUND('',#412,.T.);
#441=FACE_BOUND('',#413,.T.);
#442=FACE_BOUND('',#414,.T.);
#443=FACE_BOUND('',#415,.T.);
#444=FACE_BOUND('',#416,.T.);
#445=FACE_BOUND('',#417,.T.);
#446=FACE_BOUND('',#418,.T.);
#447=FACE_BOUND('',#419,.T.);
#448=FACE_BOUND('',#420,.T.);
#449=FACE_BOUND('',#421,.T.);
#450=FACE_BOUND('',#422,.T.);
#451=FACE_BOUND('',#423,.T.);
#452=FACE_BOUND('',#424,.T.);
#453=FACE_BOUND('',#425,.T.);
#454=PLANE('',#530);
#455=PLANE('',#531);
#456=PLANE('',#532);
#457=PLANE('',#533);
#458=PLANE('',#534);
#459=PLANE('',#535);
#460=PLANE('',#545);
#461=PLANE('',#546);
#462=PLANE('',#547);
#463=PLANE('',#548);
#464=PLANE('',#549);
#465=PLANE('',#550);
#466=PLANE('',#551);
#467=PLANE('',#552);
#468=PLANE('',#553);
#469=PLANE('',#554);
#470=PLANE('',#555);
#471=PLANE('',#556);
#472=PLANE('',#557);
#473=PLANE('',#558);
#474=PLANE('',#559);
#475=PLANE('',#560);
#476=PLANE('',#561);
#477=PLANE('',#562);
#478=ADVANCED_FACE('',(#426),#454,.F.);
#479=ADVANCED_FACE('',(#427),#455,.F.);
#480=ADVANCED_FACE('',(#428),#456,.T.);
#481=ADVANCED_FACE('',(#429),#457,.F.);
#482=ADVANCED_FACE('',(#430),#458,.T.);
#483=ADVANCED_FACE('',(#431),#459,.F.);
#484=ADVANCED_FACE('',(#432),#18,.T.);
#485=ADVANCED_FACE('',(#433),#19,.T.);
#486=ADVANCED_FACE('',(#434),#20,.T.);
#487=ADVANCED_FACE('',(#435),#21,.T.);
#488=ADVANCED_FACE('',(#436),#460,.T.);
#489=ADVANCED_FACE('',(#437),#461,.T.);
#490=ADVANCED_FACE('',(#438),#462,.F.);
#491=ADVANCED_FACE('',(#439),#463,.F.);
#492=ADVANCED_FACE('',(#440),#464,.T.);
#493=ADVANCED_FACE('',(#441),#465,.F.);
#494=ADVANCED_FACE('',(#442),#466,.F.);
#495=ADVANCED_FACE('',(#443),#467,.T.);
#496=ADVANCED_FACE('',(#444),#468,.T.);
#497=ADVANCED_FACE('',(#445),#469,.F.);
#498=ADVANCED_FACE('',(#446),#470,.T.);
#499=ADVANCED_FACE('',(#447),#471,.T.);
#500=ADVANCED_FACE('',(#448),#472,.F.);
#501=ADVANCED_FACE('',(#449),#473,.T.);
#502=ADVANCED_FACE('',(#450),#474,.T.);
#503=ADVANCED_FACE('',(#451),#475,.F.);
#504=ADVANCED_FACE('',(#452),#476,.T.);
#505=ADVANCED_FACE('',(#453),#477,.T.);
#506=CLOSED_SHELL('',(#478,#479,#480,#481,#482,#483,#484,#485,#486,#487));
#507=CLOSED_SHELL('',(#488,#489,#490,#491,#492,#493,#494,#495,#496,#497,
#498,#499,#500,#501,#502,#503,#504,#505));
#508=STYLED_ITEM('',(#510),#523);
#509=STYLED_ITEM('',(#511),#524);
#510=PRESENTATION_STYLE_ASSIGNMENT((#512));
#511=PRESENTATION_STYLE_ASSIGNMENT((#513));
#512=SURFACE_STYLE_USAGE(.BOTH.,#514);
#513=SURFACE_STYLE_USAGE(.BOTH.,#515);
#514=SURFACE_SIDE_STYLE('',(#516));
#515=SURFACE_SIDE_STYLE('',(#517));
#516=SURFACE_STYLE_FILL_AREA(#518);
#517=SURFACE_STYLE_FILL_AREA(#519);
#518=FILL_AREA_STYLE('',(#520));
#519=FILL_AREA_STYLE('',(#521));
#520=FILL_AREA_STYLE_COLOUR('',#522);
#521=FILL_AREA_STYLE_COLOUR('',#522);
#522=COLOUR_RGB('',0.576470588235294,0.388235294117647,0.172549019607843);
#523=MANIFOLD_SOLID_BREP('Part 2',#506);
#524=MANIFOLD_SOLID_BREP('Part 1',#507);
#525=SHAPE_DEFINITION_REPRESENTATION(#849,#527);
#526=SHAPE_DEFINITION_REPRESENTATION(#850,#528);
#527=SHAPE_REPRESENTATION('Part 2',(#529),#839);
#528=SHAPE_REPRESENTATION('Part 1',(#544),#840);
#529=AXIS2_PLACEMENT_3D('',#695,#563,#564);
#530=AXIS2_PLACEMENT_3D('',#696,#565,#566);
#531=AXIS2_PLACEMENT_3D('',#705,#571,#572);
#532=AXIS2_PLACEMENT_3D('',#711,#576,#577);
#533=AXIS2_PLACEMENT_3D('',#717,#581,#582);
#534=AXIS2_PLACEMENT_3D('',#720,#585,#586);
#535=AXIS2_PLACEMENT_3D('',#729,#591,#592);
#536=AXIS2_PLACEMENT_3D('',#730,#593,#594);
#537=AXIS2_PLACEMENT_3D('',#731,#595,#596);
#538=AXIS2_PLACEMENT_3D('',#732,#597,#598);
#539=AXIS2_PLACEMENT_3D('',#733,#599,#600);
#540=AXIS2_PLACEMENT_3D('',#734,#601,#602);
#541=AXIS2_PLACEMENT_3D('',#735,#603,#604);
#542=AXIS2_PLACEMENT_3D('',#736,#605,#606);
#543=AXIS2_PLACEMENT_3D('',#737,#607,#608);
#544=AXIS2_PLACEMENT_3D('',#738,#609,#610);
#545=AXIS2_PLACEMENT_3D('',#739,#611,#612);
#546=AXIS2_PLACEMENT_3D('',#764,#625,#626);
#547=AXIS2_PLACEMENT_3D('',#778,#634,#635);
#548=AXIS2_PLACEMENT_3D('',#789,#642,#643);
#549=AXIS2_PLACEMENT_3D('',#800,#650,#651);
#550=AXIS2_PLACEMENT_3D('',#808,#657,#658);
#551=AXIS2_PLACEMENT_3D('',#809,#659,#660);
#552=AXIS2_PLACEMENT_3D('',#813,#663,#664);
#553=AXIS2_PLACEMENT_3D('',#815,#666,#667);
#554=AXIS2_PLACEMENT_3D('',#816,#668,#669);
#555=AXIS2_PLACEMENT_3D('',#820,#672,#673);
#556=AXIS2_PLACEMENT_3D('',#822,#675,#676);
#557=AXIS2_PLACEMENT_3D('',#823,#677,#678);
#558=AXIS2_PLACEMENT_3D('',#827,#681,#682);
#559=AXIS2_PLACEMENT_3D('',#829,#684,#685);
#560=AXIS2_PLACEMENT_3D('',#830,#686,#687);
#561=AXIS2_PLACEMENT_3D('',#834,#690,#691);
#562=AXIS2_PLACEMENT_3D('',#836,#693,#694);
#563=DIRECTION('',(0.,0.,1.));
#564=DIRECTION('',(1.,0.,0.));
#565=DIRECTION('',(1.,-8.67361737988404E-17,0.));
#566=DIRECTION('',(8.67361737988404E-17,1.,0.));
#567=DIRECTION('',(0.,0.,1.));
#568=DIRECTION('',(8.67361737988404E-17,1.,0.));
#569=DIRECTION('',(0.,0.,1.));
#570=DIRECTION('',(8.67361737988404E-17,1.,0.));
#571=DIRECTION('',(0.,-1.,0.));
#572=DIRECTION('',(0.,0.,-1.));
#573=DIRECTION('',(0.,0.,1.));
#574=DIRECTION('',(1.,0.,0.));
#575=DIRECTION('',(1.,0.,0.));
#576=DIRECTION('',(1.,-8.67361737988404E-17,0.));
#577=DIRECTION('',(8.67361737988404E-17,1.,0.));
#578=DIRECTION('',(0.,0.,1.));
#579=DIRECTION('',(8.67361737988404E-17,1.,0.));
#580=DIRECTION('',(8.67361737988404E-17,1.,0.));
#581=DIRECTION('',(-1.73472347597681E-16,1.,0.));
#582=DIRECTION('',(-1.,-1.73472347597681E-16,0.));
#583=DIRECTION('',(-1.,-1.73472347597681E-16,0.));
#584=DIRECTION('',(-1.,-1.7347234759768E-16,0.));
#585=DIRECTION('',(0.,0.,-1.));
#586=DIRECTION('',(1.,0.,0.));
#587=DIRECTION('',(8.67361737988404E-17,1.,0.));
#588=DIRECTION('',(1.,0.,0.));
#589=DIRECTION('',(8.67361737988404E-17,1.,0.));
#590=DIRECTION('',(-1.,-1.73472347597681E-16,0.));
#591=DIRECTION('',(0.,0.,-1.));
#592=DIRECTION('',(1.,0.,0.));
#593=DIRECTION('',(-8.67361737988404E-17,-1.,0.));
#594=DIRECTION('',(1.,-8.67361737988404E-17,0.));
#595=DIRECTION('',(-0.707106781186548,-0.707106781186548,0.));
#596=DIRECTION('',(-0.707106781186548,0.707106781186548,0.));
#597=DIRECTION('',(0.707106781186548,-0.707106781186548,0.));
#598=DIRECTION('',(0.707106781186548,0.707106781186548,0.));
#599=DIRECTION('',(1.,1.73472347597681E-16,0.));
#600=DIRECTION('',(-1.73472347597681E-16,1.,0.));
#601=DIRECTION('',(0.707106781186548,0.707106781186548,0.));
#602=DIRECTION('',(0.707106781186548,-0.707106781186548,0.));
#603=DIRECTION('',(-1.,0.,0.));
#604=DIRECTION('',(0.,0.,1.));
#605=DIRECTION('',(-0.707106781186548,0.707106781186548,0.));
#606=DIRECTION('',(-0.707106781186548,-0.707106781186548,0.));
#607=DIRECTION('',(8.67361737988404E-17,1.,0.));
#608=DIRECTION('',(-1.,8.67361737988404E-17,0.));
#609=DIRECTION('',(0.,0.,1.));
#610=DIRECTION('',(1.,0.,0.));
#611=DIRECTION('',(0.,0.,1.));
#612=DIRECTION('',(1.,0.,0.));
#613=DIRECTION('',(0.,1.,0.));
#614=DIRECTION('',(-1.,0.,0.));
#615=DIRECTION('',(8.67361737988404E-17,1.,0.));
#616=DIRECTION('',(-1.,0.,0.));
#617=DIRECTION('',(0.,-1.,0.));
#618=DIRECTION('',(-1.,-1.7347234759768E-16,0.));
#619=DIRECTION('',(0.,-1.,0.));
#620=DIRECTION('',(1.,0.,0.));
#621=DIRECTION('',(8.67361737988404E-17,1.,0.));
#622=DIRECTION('',(1.,0.,0.));
#623=DIRECTION('',(0.,1.,0.));
#624=DIRECTION('',(-1.,-1.7347234759768E-16,0.));
#625=DIRECTION('',(1.73472347597681E-16,-1.,0.));
#626=DIRECTION('',(1.,1.73472347597681E-16,0.));
#627=DIRECTION('',(0.,0.,-1.));
#628=DIRECTION('',(-1.,-1.7347234759768E-16,0.));
#629=DIRECTION('',(0.,0.,-1.));
#630=DIRECTION('',(-1.,0.,0.));
#631=DIRECTION('',(0.,0.,-1.));
#632=DIRECTION('',(0.,0.,-1.));
#633=DIRECTION('',(1.,0.,0.));
#634=DIRECTION('',(-1.,8.67361737988404E-17,0.));
#635=DIRECTION('',(-8.67361737988404E-17,-1.,0.));
#636=DIRECTION('',(0.,0.,-1.));
#637=DIRECTION('',(0.,-1.,0.));
#638=DIRECTION('',(0.,0.,-1.));
#639=DIRECTION('',(0.,0.,-1.));
#640=DIRECTION('',(0.,1.,0.));
#641=DIRECTION('',(8.67361737988404E-17,1.,0.));
#642=DIRECTION('',(1.7347234759768E-16,-1.,0.));
#643=DIRECTION('',(1.,1.7347234759768E-16,0.));
#644=DIRECTION('',(0.,0.,-1.));
#645=DIRECTION('',(1.,0.,0.));
#646=DIRECTION('',(0.,0.,-1.));
#647=DIRECTION('',(0.,0.,-1.));
#648=DIRECTION('',(-1.,0.,0.));
#649=DIRECTION('',(-1.,-1.7347234759768E-16,0.));
#650=DIRECTION('',(-1.,8.67361737988404E-17,0.));
#651=DIRECTION('',(-8.67361737988404E-17,-1.,0.));
#652=DIRECTION('',(8.67361737988404E-17,1.,0.));
#653=DIRECTION('',(0.,1.,0.));
#654=DIRECTION('',(0.,0.,-1.));
#655=DIRECTION('',(0.,0.,-1.));
#656=DIRECTION('',(0.,-1.,0.));
#657=DIRECTION('',(0.,0.,1.));
#658=DIRECTION('',(1.,0.,0.));
#659=DIRECTION('',(-1.,0.,0.));
#660=DIRECTION('',(0.,0.,1.));
#661=DIRECTION('',(0.,0.,-1.));
#662=DIRECTION('',(0.,1.,0.));
#663=DIRECTION('',(0.,1.,0.));
#664=DIRECTION('',(0.,0.,1.));
#665=DIRECTION('',(1.,0.,0.));
#666=DIRECTION('',(0.,0.,1.));
#667=DIRECTION('',(1.,0.,0.));
#668=DIRECTION('',(1.,0.,0.));
#669=DIRECTION('',(0.,0.,-1.));
#670=DIRECTION('',(0.,0.,-1.));
#671=DIRECTION('',(0.,-1.,0.));
#672=DIRECTION('',(0.,-1.,0.));
#673=DIRECTION('',(0.,0.,-1.));
#674=DIRECTION('',(-1.,0.,0.));
#675=DIRECTION('',(0.,0.,1.));
#676=DIRECTION('',(1.,0.,0.));
#677=DIRECTION('',(0.,-1.,0.));
#678=DIRECTION('',(0.,0.,-1.));
#679=DIRECTION('',(0.,0.,-1.));
#680=DIRECTION('',(-1.,0.,0.));
#681=DIRECTION('',(-1.,0.,0.));
#682=DIRECTION('',(0.,0.,1.));
#683=DIRECTION('',(0.,1.,0.));
#684=DIRECTION('',(0.,0.,1.));
#685=DIRECTION('',(1.,0.,0.));
#686=DIRECTION('',(0.,1.,0.));
#687=DIRECTION('',(0.,0.,1.));
#688=DIRECTION('',(0.,0.,-1.));
#689=DIRECTION('',(1.,0.,0.));
#690=DIRECTION('',(1.,0.,0.));
#691=DIRECTION('',(0.,0.,-1.));
#692=DIRECTION('',(0.,-1.,0.));
#693=DIRECTION('',(0.,0.,1.));
#694=DIRECTION('',(1.,0.,0.));
#695=CARTESIAN_POINT('',(0.,0.,0.));
#696=CARTESIAN_POINT('',(-0.01,-1.7347234759768E-18,-0.02));
#697=CARTESIAN_POINT('',(-0.01,-0.0075,-0.02));
#698=CARTESIAN_POINT('',(-0.01,-0.0075,-0.0195171572875254));
#699=CARTESIAN_POINT('',(-0.01,-0.0075,0.));
#700=CARTESIAN_POINT('',(-0.01,-0.01,-0.0195171572875254));
#701=CARTESIAN_POINT('',(-0.01,-0.01,-0.0195171572875254));
#702=CARTESIAN_POINT('',(-0.01,-0.01,-0.02));
#703=CARTESIAN_POINT('',(-0.01,-0.01,0.));
#704=CARTESIAN_POINT('',(-0.01,-1.7347234759768E-18,0.));
#705=CARTESIAN_POINT('',(0.,-0.0075,-0.02));
#706=CARTESIAN_POINT('',(0.01,-0.0075,-0.02));
#707=CARTESIAN_POINT('',(0.01,-0.0075,-0.0195171572875254));
#708=CARTESIAN_POINT('',(0.01,-0.0075,0.));
#709=CARTESIAN_POINT('',(-0.01,-0.0075,-0.0195171572875254));
#710=CARTESIAN_POINT('',(0.,-0.0075,0.));
#711=CARTESIAN_POINT('',(0.01,1.7347234759768E-18,-0.02));
#712=CARTESIAN_POINT('',(0.01,-0.01,-0.02));
#713=CARTESIAN_POINT('',(0.01,-0.01,-0.0195171572875254));
#714=CARTESIAN_POINT('',(0.01,-0.01,0.));
#715=CARTESIAN_POINT('',(0.01,1.7347234759768E-18,-0.0195171572875254));
#716=CARTESIAN_POINT('',(0.01,1.7347234759768E-18,0.));
#717=CARTESIAN_POINT('',(-8.67361737988404E-19,-0.01,-0.02));
#718=CARTESIAN_POINT('',(0.01,-0.01,-0.0195171572875254));
#719=CARTESIAN_POINT('',(-8.67361737988404E-19,-0.01,0.));
#720=CARTESIAN_POINT('',(0.,0.,-0.02));
#721=CARTESIAN_POINT('',(-0.00951715728752538,-0.0075,-0.02));
#722=CARTESIAN_POINT('',(-0.00951715728752538,-0.00951715728752538,-0.02));
#723=CARTESIAN_POINT('',(-0.00951715728752538,-0.00798284271247462,-0.02));
#724=CARTESIAN_POINT('',(0.01,-0.00798284271247462,-0.02));
#725=CARTESIAN_POINT('',(0.00951715728752538,-0.00798284271247462,-0.02));
#726=CARTESIAN_POINT('',(0.00951715728752538,-8.25481808561701E-19,-0.02));
#727=CARTESIAN_POINT('',(0.00951715728752538,-0.00951715728752538,-0.02));
#728=CARTESIAN_POINT('',(-0.01,-0.00951715728752538,-0.02));
#729=CARTESIAN_POINT('',(0.,0.,0.));
#730=CARTESIAN_POINT('',(-0.00951715728752538,8.25481808561701E-19,-0.0195171572875254));
#731=CARTESIAN_POINT('',(-0.00951715728752538,-0.00798284271247462,-0.0195171572875254));
#732=CARTESIAN_POINT('',(-0.00951715728752538,-0.00951715728752538,-0.0195171572875254));
#733=CARTESIAN_POINT('',(1.6509636171234E-18,-0.00951715728752538,-0.0195171572875254));
#734=CARTESIAN_POINT('',(0.00951715728752538,-0.00951715728752538,-0.0195171572875254));
#735=CARTESIAN_POINT('',(0.,-0.00798284271247462,-0.0195171572875254));
#736=CARTESIAN_POINT('',(0.00951715728752538,-0.00798284271247462,-0.0195171572875254));
#737=CARTESIAN_POINT('',(0.00951715728752538,1.77660340540351E-18,-0.0195171572875254));
#738=CARTESIAN_POINT('',(0.,0.,0.));
#739=CARTESIAN_POINT('',(0.,0.,0.0025));
#740=CARTESIAN_POINT('',(-0.007,0.,0.0025));
#741=CARTESIAN_POINT('',(-0.007,0.007,0.0025));
#742=CARTESIAN_POINT('',(-0.007,0.01,0.0025));
#743=CARTESIAN_POINT('',(0.,0.007,0.0025));
#744=CARTESIAN_POINT('',(-0.01,0.007,0.0025));
#745=CARTESIAN_POINT('',(-0.01,-1.7347234759768E-18,0.0025));
#746=CARTESIAN_POINT('',(-0.01,-0.007,0.0025));
#747=CARTESIAN_POINT('',(0.,-0.007,0.0025));
#748=CARTESIAN_POINT('',(-0.007,-0.007,0.0025));
#749=CARTESIAN_POINT('',(-0.007,0.,0.0025));
#750=CARTESIAN_POINT('',(-0.007,-0.01,0.0025));
#751=CARTESIAN_POINT('',(-8.67361737988404E-19,-0.01,0.0025));
#752=CARTESIAN_POINT('',(0.007,-0.01,0.0025));
#753=CARTESIAN_POINT('',(0.007,0.,0.0025));
#754=CARTESIAN_POINT('',(0.007,-0.007,0.0025));
#755=CARTESIAN_POINT('',(0.,-0.007,0.0025));
#756=CARTESIAN_POINT('',(0.01,-0.007,0.0025));
#757=CARTESIAN_POINT('',(0.01,1.7347234759768E-18,0.0025));
#758=CARTESIAN_POINT('',(0.01,0.007,0.0025));
#759=CARTESIAN_POINT('',(0.,0.007,0.0025));
#760=CARTESIAN_POINT('',(0.007,0.007,0.0025));
#761=CARTESIAN_POINT('',(0.007,0.,0.0025));
#762=CARTESIAN_POINT('',(0.007,0.01,0.0025));
#763=CARTESIAN_POINT('',(1.7347234759768E-18,0.01,0.0025));
#764=CARTESIAN_POINT('',(-8.67361737988404E-19,-0.01,0.0025));
#765=CARTESIAN_POINT('',(-0.01,-0.01,0.0025));
#766=CARTESIAN_POINT('',(-0.01,-0.01,0.018));
#767=CARTESIAN_POINT('',(-0.01,-0.01,0.));
#768=CARTESIAN_POINT('',(-8.67361737988404E-19,-0.01,0.));
#769=CARTESIAN_POINT('',(0.01,-0.01,0.));
#770=CARTESIAN_POINT('',(0.01,-0.01,0.0025));
#771=CARTESIAN_POINT('',(0.01,-0.01,0.018));
#772=CARTESIAN_POINT('',(0.0085,-0.01,0.018));
#773=CARTESIAN_POINT('',(0.007,-0.01,0.018));
#774=CARTESIAN_POINT('',(0.007,-0.01,0.018));
#775=CARTESIAN_POINT('',(-0.007,-0.01,0.018));
#776=CARTESIAN_POINT('',(-0.007,-0.01,0.018));
#777=CARTESIAN_POINT('',(-0.0085,-0.01,0.018));
#778=CARTESIAN_POINT('',(0.01,1.7347234759768E-18,0.0025));
#779=CARTESIAN_POINT('',(0.01,0.01,0.0025));
#780=CARTESIAN_POINT('',(0.01,0.01,0.018));
#781=CARTESIAN_POINT('',(0.01,0.01,0.));
#782=CARTESIAN_POINT('',(0.01,0.0085,0.018));
#783=CARTESIAN_POINT('',(0.01,0.007,0.018));
#784=CARTESIAN_POINT('',(0.01,0.007,0.018));
#785=CARTESIAN_POINT('',(0.01,-0.007,0.018));
#786=CARTESIAN_POINT('',(0.01,-0.007,0.018));
#787=CARTESIAN_POINT('',(0.01,-0.0085,0.018));
#788=CARTESIAN_POINT('',(0.01,1.7347234759768E-18,0.));
#789=CARTESIAN_POINT('',(1.7347234759768E-18,0.01,0.0025));
#790=CARTESIAN_POINT('',(-0.01,0.01,0.0025));
#791=CARTESIAN_POINT('',(-0.01,0.01,0.018));
#792=CARTESIAN_POINT('',(-0.01,0.01,0.));
#793=CARTESIAN_POINT('',(-0.0085,0.01,0.018));
#794=CARTESIAN_POINT('',(-0.007,0.01,0.018));
#795=CARTESIAN_POINT('',(-0.007,0.01,0.018));
#796=CARTESIAN_POINT('',(0.007,0.01,0.018));
#797=CARTESIAN_POINT('',(0.007,0.01,0.018));
#798=CARTESIAN_POINT('',(0.0085,0.01,0.018));
#799=CARTESIAN_POINT('',(1.7347234759768E-18,0.01,0.));
#800=CARTESIAN_POINT('',(-0.01,-1.7347234759768E-18,0.0025));
#801=CARTESIAN_POINT('',(-0.01,-1.7347234759768E-18,0.));
#802=CARTESIAN_POINT('',(-0.01,-0.0085,0.018));
#803=CARTESIAN_POINT('',(-0.01,-0.007,0.018));
#804=CARTESIAN_POINT('',(-0.01,-0.007,0.018));
#805=CARTESIAN_POINT('',(-0.01,0.007,0.018));
#806=CARTESIAN_POINT('',(-0.01,0.007,0.018));
#807=CARTESIAN_POINT('',(-0.01,0.0085,0.018));
#808=CARTESIAN_POINT('',(0.,0.,0.));
#809=CARTESIAN_POINT('',(-0.007,-0.0085,0.018));
#810=CARTESIAN_POINT('',(-0.007,-0.007,0.018));
#811=CARTESIAN_POINT('',(-0.007,-0.007,0.018));
#812=CARTESIAN_POINT('',(-0.007,-0.0085,0.018));
#813=CARTESIAN_POINT('',(-0.0085,-0.007,0.018));
#814=CARTESIAN_POINT('',(-0.0085,-0.007,0.018));
#815=CARTESIAN_POINT('',(0.,0.,0.018));
#816=CARTESIAN_POINT('',(0.007,0.0085,0.018));
#817=CARTESIAN_POINT('',(0.007,0.007,0.018));
#818=CARTESIAN_POINT('',(0.007,0.007,0.018));
#819=CARTESIAN_POINT('',(0.007,0.0085,0.018));
#820=CARTESIAN_POINT('',(0.0085,0.007,0.018));
#821=CARTESIAN_POINT('',(0.0085,0.007,0.018));
#822=CARTESIAN_POINT('',(0.,0.,0.018));
#823=CARTESIAN_POINT('',(0.0085,-0.007,0.018));
#824=CARTESIAN_POINT('',(0.007,-0.007,0.018));
#825=CARTESIAN_POINT('',(0.007,-0.007,0.018));
#826=CARTESIAN_POINT('',(0.0085,-0.007,0.018));
#827=CARTESIAN_POINT('',(0.007,-0.0085,0.018));
#828=CARTESIAN_POINT('',(0.007,-0.0085,0.018));
#829=CARTESIAN_POINT('',(0.,0.,0.018));
#830=CARTESIAN_POINT('',(-0.0085,0.007,0.018));
#831=CARTESIAN_POINT('',(-0.007,0.007,0.018));
#832=CARTESIAN_POINT('',(-0.007,0.007,0.018));
#833=CARTESIAN_POINT('',(-0.0085,0.007,0.018));
#834=CARTESIAN_POINT('',(-0.007,0.0085,0.018));
#835=CARTESIAN_POINT('',(-0.007,0.0085,0.018));
#836=CARTESIAN_POINT('',(0.,0.,0.018));
#837=MECHANICAL_DESIGN_GEOMETRIC_PRESENTATION_REPRESENTATION('',(#508),
#839);
#838=MECHANICAL_DESIGN_GEOMETRIC_PRESENTATION_REPRESENTATION('',(#509),
#840);
#839=(
GEOMETRIC_REPRESENTATION_CONTEXT(3)
GLOBAL_UNCERTAINTY_ASSIGNED_CONTEXT((#841))
GLOBAL_UNIT_ASSIGNED_CONTEXT((#847,#845,#843))
REPRESENTATION_CONTEXT('Part 2','TOP_LEVEL_ASSEMBLY_PART')
);
#840=(
GEOMETRIC_REPRESENTATION_CONTEXT(3)
GLOBAL_UNCERTAINTY_ASSIGNED_CONTEXT((#842))
GLOBAL_UNIT_ASSIGNED_CONTEXT((#848,#846,#844))
REPRESENTATION_CONTEXT('Part 1','TOP_LEVEL_ASSEMBLY_PART')
);
#841=UNCERTAINTY_MEASURE_WITH_UNIT(LENGTH_MEASURE(1.E-8),#847,
'DISTANCE_ACCURACY_VALUE','Maximum Tolerance applied to model');
#842=UNCERTAINTY_MEASURE_WITH_UNIT(LENGTH_MEASURE(1.E-8),#848,
'DISTANCE_ACCURACY_VALUE','Maximum Tolerance applied to model');
#843=(
NAMED_UNIT(*)
SI_UNIT($,.STERADIAN.)
SOLID_ANGLE_UNIT()
);
#844=(
NAMED_UNIT(*)
SI_UNIT($,.STERADIAN.)
SOLID_ANGLE_UNIT()
);
#845=(
NAMED_UNIT(*)
PLANE_ANGLE_UNIT()
SI_UNIT($,.RADIAN.)
);
#846=(
NAMED_UNIT(*)
PLANE_ANGLE_UNIT()
SI_UNIT($,.RADIAN.)
);
#847=(
LENGTH_UNIT()
NAMED_UNIT(*)
SI_UNIT($,.METRE.)
);
#848=(
LENGTH_UNIT()
NAMED_UNIT(*)
SI_UNIT($,.METRE.)
);
#849=PRODUCT_DEFINITION_SHAPE('','',#851);
#850=PRODUCT_DEFINITION_SHAPE('','',#852);
#851=PRODUCT_DEFINITION('','',#855,#853);
#852=PRODUCT_DEFINITION('','',#856,#854);
#853=PRODUCT_DEFINITION_CONTEXT('',#867,'design');
#854=PRODUCT_DEFINITION_CONTEXT('',#868,'design');
#855=PRODUCT_DEFINITION_FORMATION_WITH_SPECIFIED_SOURCE('','',#859,
 .NOT_KNOWN.);
#856=PRODUCT_DEFINITION_FORMATION_WITH_SPECIFIED_SOURCE('','',#860,
 .NOT_KNOWN.);
#857=PRODUCT_RELATED_PRODUCT_CATEGORY('','',(#859));
#858=PRODUCT_RELATED_PRODUCT_CATEGORY('','',(#860));
#859=PRODUCT('Part 2','Part 2','Part 2',(#863));
#860=PRODUCT('Part 1','Part 1','Part 1',(#864));
#861=PRODUCT_CATEGORY('','');
#862=PRODUCT_CATEGORY('','');
#863=PRODUCT_CONTEXT('',#867,'mechanical');
#864=PRODUCT_CONTEXT('',#868,'mechanical');
#865=APPLICATION_PROTOCOL_DEFINITION('international standard',
'ap242_managed_model_based_3d_engineering',2020,#867);
#866=APPLICATION_PROTOCOL_DEFINITION('international standard',
'ap242_managed_model_based_3d_engineering',2020,#868);
#867=APPLICATION_CONTEXT('managed model based 3d engineering');
#868=APPLICATION_CONTEXT('managed model based 3d engineering');
ENDSEC;
END-ISO-10303-21;
