ISO-10303-21;
HEADER;
/* Generated by software containing ST-Developer
 * from STEP Tools, Inc. (www.steptools.com) 
 */
/* OPTION: using custom renumber hook */

FILE_DESCRIPTION(
/* description */ ('STEP AP242 Edition 2',
'CAx-IF Rec.Pracs.---Representation and Presentation of Product Manufa
cturing Information (PMI)---4.0---2014-10-13',
'CAx-IF Rec.Pracs.---3D Tessellated Geometry---0.4---2014-09-14','2;1',
'CAx-IF Rec.Pracs.---User Defined Attributes---1.5---2016-08-15'),
/* implementation_level */ '2;1');

FILE_NAME(
/* name */ 'Clock',
/* time_stamp */ '2026-09-07T05:39:34Z',
/* author */ (''),
/* organization */ (''),
/* preprocessor_version */ 'ST-DEVELOPER v20',
/* originating_system */ 'ONSHAPE BY PTC INC, 1.220',
/* authorisation */ '  ');

FILE_SCHEMA (('AP242_MANAGED_MODEL_BASED_3D_ENGINEERING_MIM_LF { 1 0 10303 442 3 1 4 }'));
ENDSEC;

DATA;
#10=OVER_RIDING_STYLED_ITEM('',(#113),#105,#110);
#11=OVER_RIDING_STYLED_ITEM('',(#114),#106,#110);
#12=DRAUGHTING_PRE_DEFINED_COLOUR('black');
#13=SHAPE_REPRESENTATION_RELATIONSHIP('','',#141,#15);
#14=SHAPE_REPRESENTATION_RELATIONSHIP('','',#142,#16);
#15=ADVANCED_BREP_SHAPE_REPRESENTATION('',(#137),#229);
#16=ADVANCED_BREP_SHAPE_REPRESENTATION('',(#138),#230);
#17=PLANE('',#150);
#18=PLANE('',#151);
#19=PLANE('',#156);
#20=PLANE('',#158);
#21=PLANE('',#161);
#22=ORIENTED_EDGE('',*,*,#38,.T.);
#23=ORIENTED_EDGE('',*,*,#39,.F.);
#24=ORIENTED_EDGE('',*,*,#40,.F.);
#25=ORIENTED_EDGE('',*,*,#41,.T.);
#26=ORIENTED_EDGE('',*,*,#38,.F.);
#27=ORIENTED_EDGE('',*,*,#40,.T.);
#28=ORIENTED_EDGE('',*,*,#39,.T.);
#29=ORIENTED_EDGE('',*,*,#41,.F.);
#30=ORIENTED_EDGE('',*,*,#42,.F.);
#31=ORIENTED_EDGE('',*,*,#43,.T.);
#32=ORIENTED_EDGE('',*,*,#44,.T.);
#33=ORIENTED_EDGE('',*,*,#42,.T.);
#34=ORIENTED_EDGE('',*,*,#43,.F.);
#35=ORIENTED_EDGE('',*,*,#44,.F.);
#36=ORIENTED_EDGE('',*,*,#45,.F.);
#37=ORIENTED_EDGE('',*,*,#45,.T.);
#38=EDGE_CURVE('',#46,#46,#54,.T.);
#39=EDGE_CURVE('',#47,#47,#55,.T.);
#40=EDGE_CURVE('',#48,#48,#56,.T.);
#41=EDGE_CURVE('',#49,#49,#57,.T.);
#42=EDGE_CURVE('',#50,#50,#58,.T.);
#43=EDGE_CURVE('',#51,#51,#59,.T.);
#44=EDGE_CURVE('',#52,#52,#60,.F.);
#45=EDGE_CURVE('',#53,#53,#61,.T.);
#46=VERTEX_POINT('',#203);
#47=VERTEX_POINT('',#205);
#48=VERTEX_POINT('',#208);
#49=VERTEX_POINT('',#210);
#50=VERTEX_POINT('',#216);
#51=VERTEX_POINT('',#218);
#52=VERTEX_POINT('',#221);
#53=VERTEX_POINT('',#225);
#54=CIRCLE('',#145,0.0075);
#55=CIRCLE('',#146,0.0075);
#56=CIRCLE('',#148,0.01);
#57=CIRCLE('',#149,0.01);
#58=CIRCLE('',#154,0.0075);
#59=CIRCLE('',#155,0.0075);
#60=CIRCLE('',#157,0.00025);
#61=CIRCLE('',#160,0.00025);
#62=EDGE_LOOP('',(#22));
#63=EDGE_LOOP('',(#23));
#64=EDGE_LOOP('',(#24));
#65=EDGE_LOOP('',(#25));
#66=EDGE_LOOP('',(#26));
#67=EDGE_LOOP('',(#27));
#68=EDGE_LOOP('',(#28));
#69=EDGE_LOOP('',(#29));
#70=EDGE_LOOP('',(#30));
#71=EDGE_LOOP('',(#31));
#72=EDGE_LOOP('',(#32));
#73=EDGE_LOOP('',(#33));
#74=EDGE_LOOP('',(#34));
#75=EDGE_LOOP('',(#35));
#76=EDGE_LOOP('',(#36));
#77=EDGE_LOOP('',(#37));
#78=FACE_BOUND('',#62,.T.);
#79=FACE_BOUND('',#63,.T.);
#80=FACE_BOUND('',#64,.T.);
#81=FACE_BOUND('',#65,.T.);
#82=FACE_BOUND('',#66,.T.);
#83=FACE_BOUND('',#67,.T.);
#84=FACE_BOUND('',#68,.T.);
#85=FACE_BOUND('',#69,.T.);
#86=FACE_BOUND('',#70,.T.);
#87=FACE_BOUND('',#71,.T.);
#88=FACE_BOUND('',#72,.T.);
#89=FACE_BOUND('',#73,.T.);
#90=FACE_BOUND('',#74,.T.);
#91=FACE_BOUND('',#75,.T.);
#92=FACE_BOUND('',#76,.T.);
#93=FACE_BOUND('',#77,.T.);
#94=CYLINDRICAL_SURFACE('',#144,0.0075);
#95=CYLINDRICAL_SURFACE('',#147,0.01);
#96=CYLINDRICAL_SURFACE('',#153,0.0075);
#97=CYLINDRICAL_SURFACE('',#159,0.00025);
#98=ADVANCED_FACE('',(#78,#79),#94,.F.);
#99=ADVANCED_FACE('',(#80,#81),#95,.T.);
#100=ADVANCED_FACE('',(#82,#83),#17,.T.);
#101=ADVANCED_FACE('',(#84,#85),#18,.F.);
#102=ADVANCED_FACE('',(#86,#87),#96,.T.);
#103=ADVANCED_FACE('',(#88,#89),#19,.T.);
#104=ADVANCED_FACE('',(#90),#20,.F.);
#105=ADVANCED_FACE('Face appearance 1',(#91,#92),#97,.T.);
#106=ADVANCED_FACE('Face appearance 1',(#93),#21,.T.);
#107=CLOSED_SHELL('',(#98,#99,#100,#101));
#108=CLOSED_SHELL('',(#102,#103,#104,#105,#106));
#109=STYLED_ITEM('',(#111),#137);
#110=STYLED_ITEM('',(#112),#138);
#111=PRESENTATION_STYLE_ASSIGNMENT((#115));
#112=PRESENTATION_STYLE_ASSIGNMENT((#116));
#113=PRESENTATION_STYLE_ASSIGNMENT((#117));
#114=PRESENTATION_STYLE_ASSIGNMENT((#118));
#115=SURFACE_STYLE_USAGE(.BOTH.,#119);
#116=SURFACE_STYLE_USAGE(.BOTH.,#120);
#117=SURFACE_STYLE_USAGE(.BOTH.,#121);
#118=SURFACE_STYLE_USAGE(.BOTH.,#122);
#119=SURFACE_SIDE_STYLE('',(#123));
#120=SURFACE_SIDE_STYLE('',(#124));
#121=SURFACE_SIDE_STYLE('',(#125));
#122=SURFACE_SIDE_STYLE('',(#126));
#123=SURFACE_STYLE_FILL_AREA(#127);
#124=SURFACE_STYLE_FILL_AREA(#128);
#125=SURFACE_STYLE_FILL_AREA(#129);
#126=SURFACE_STYLE_FILL_AREA(#130);
#127=FILL_AREA_STYLE('',(#131));
#128=FILL_AREA_STYLE('',(#132));
#129=FILL_AREA_STYLE('',(#133));
#130=FILL_AREA_STYLE('',(#134));
#131=FILL_AREA_STYLE_COLOUR('',#135);
#132=FILL_AREA_STYLE_COLOUR('',#136);
#133=FILL_AREA_STYLE_COLOUR('',#12);
#134=FILL_AREA_STYLE_COLOUR('',#12);
#135=COLOUR_RGB('',0.301960784313725,0.301960784313725,0.301960784313725);
#136=COLOUR_RGB('',0.917647058823529,0.917647058823529,0.917647058823529);
#137=MANIFOLD_SOLID_BREP('Part 2',#107);
#138=MANIFOLD_SOLID_BREP('Part 1',#108);
#139=SHAPE_DEFINITION_REPRESENTATION(#239,#141);
#140=SHAPE_DEFINITION_REPRESENTATION(#240,#142);
#141=SHAPE_REPRESENTATION('Part 2',(#143),#229);
#142=SHAPE_REPRESENTATION('Part 1',(#152),#230);
#143=AXIS2_PLACEMENT_3D('',#200,#162,#163);
#144=AXIS2_PLACEMENT_3D('',#201,#164,#165);
#145=AXIS2_PLACEMENT_3D('',#202,#166,#167);
#146=AXIS2_PLACEMENT_3D('',#204,#168,#169);
#147=AXIS2_PLACEMENT_3D('',#206,#170,#171);
#148=AXIS2_PLACEMENT_3D('',#207,#172,#173);
#149=AXIS2_PLACEMENT_3D('',#209,#174,#175);
#150=AXIS2_PLACEMENT_3D('',#211,#176,#177);
#151=AXIS2_PLACEMENT_3D('',#212,#178,#179);
#152=AXIS2_PLACEMENT_3D('',#213,#180,#181);
#153=AXIS2_PLACEMENT_3D('',#214,#182,#183);
#154=AXIS2_PLACEMENT_3D('',#215,#184,#185);
#155=AXIS2_PLACEMENT_3D('',#217,#186,#187);
#156=AXIS2_PLACEMENT_3D('',#219,#188,#189);
#157=AXIS2_PLACEMENT_3D('',#220,#190,#191);
#158=AXIS2_PLACEMENT_3D('',#222,#192,#193);
#159=AXIS2_PLACEMENT_3D('',#223,#194,#195);
#160=AXIS2_PLACEMENT_3D('',#224,#196,#197);
#161=AXIS2_PLACEMENT_3D('',#226,#198,#199);
#162=DIRECTION('',(0.,0.,1.));
#163=DIRECTION('',(1.,0.,0.));
#164=DIRECTION('',(0.,0.,-1.));
#165=DIRECTION('',(-1.,0.,0.));
#166=DIRECTION('',(0.,0.,1.));
#167=DIRECTION('',(1.,0.,0.));
#168=DIRECTION('',(0.,0.,1.));
#169=DIRECTION('',(1.,0.,0.));
#170=DIRECTION('',(0.,0.,-1.));
#171=DIRECTION('',(-1.,0.,0.));
#172=DIRECTION('',(0.,0.,1.));
#173=DIRECTION('',(1.,0.,0.));
#174=DIRECTION('',(0.,0.,1.));
#175=DIRECTION('',(1.,0.,0.));
#176=DIRECTION('',(0.,0.,1.));
#177=DIRECTION('',(1.,0.,0.));
#178=DIRECTION('',(0.,0.,1.));
#179=DIRECTION('',(1.,0.,0.));
#180=DIRECTION('',(0.,0.,1.));
#181=DIRECTION('',(1.,0.,0.));
#182=DIRECTION('',(0.,0.,-1.));
#183=DIRECTION('',(-1.,0.,0.));
#184=DIRECTION('',(0.,0.,1.));
#185=DIRECTION('',(1.,0.,0.));
#186=DIRECTION('',(0.,0.,1.));
#187=DIRECTION('',(1.,0.,0.));
#188=DIRECTION('',(0.,0.,1.));
#189=DIRECTION('',(1.,0.,0.));
#190=DIRECTION('',(0.,0.,1.));
#191=DIRECTION('',(1.,0.,0.));
#192=DIRECTION('',(0.,0.,1.));
#193=DIRECTION('',(1.,0.,0.));
#194=DIRECTION('',(0.,0.,-1.));
#195=DIRECTION('',(-1.,0.,0.));
#196=DIRECTION('',(0.,0.,1.));
#197=DIRECTION('',(1.,0.,0.));
#198=DIRECTION('',(0.,0.,1.));
#199=DIRECTION('',(1.,0.,0.));
#200=CARTESIAN_POINT('',(0.,0.,0.));
#201=CARTESIAN_POINT('',(0.,4.59242549680258E-19,0.0025));
#202=CARTESIAN_POINT('',(0.,4.59242549680258E-19,0.0025));
#203=CARTESIAN_POINT('',(0.0075,4.59242549680258E-19,0.0025));
#204=CARTESIAN_POINT('',(0.,4.59242549680258E-19,0.001));
#205=CARTESIAN_POINT('',(0.0075,4.59242549680258E-19,0.001));
#206=CARTESIAN_POINT('',(0.,6.27631484563018E-19,0.0025));
#207=CARTESIAN_POINT('',(0.,6.27631484563018E-19,0.0025));
#208=CARTESIAN_POINT('',(0.01,6.27631484563018E-19,0.0025));
#209=CARTESIAN_POINT('',(0.,6.27631484563018E-19,0.001));
#210=CARTESIAN_POINT('',(0.01,6.27631484563018E-19,0.001));
#211=CARTESIAN_POINT('',(0.,0.,0.0025));
#212=CARTESIAN_POINT('',(0.,0.,0.001));
#213=CARTESIAN_POINT('',(0.,0.,0.));
#214=CARTESIAN_POINT('',(0.,4.59242549680258E-19,0.001));
#215=CARTESIAN_POINT('',(0.,4.59242549680258E-19,0.001));
#216=CARTESIAN_POINT('',(0.0075,4.59242549680258E-19,0.001));
#217=CARTESIAN_POINT('',(0.,4.59242549680258E-19,0.));
#218=CARTESIAN_POINT('',(0.0075,4.59242549680258E-19,0.));
#219=CARTESIAN_POINT('',(0.,0.,0.001));
#220=CARTESIAN_POINT('',(0.,1.53080849893419E-20,0.001));
#221=CARTESIAN_POINT('',(0.00025,1.53080849893419E-20,0.001));
#222=CARTESIAN_POINT('',(0.,0.,0.));
#223=CARTESIAN_POINT('',(0.,1.53080849893419E-20,0.0015));
#224=CARTESIAN_POINT('',(0.,1.53080849893419E-20,0.0015));
#225=CARTESIAN_POINT('',(0.00025,1.53080849893419E-20,0.0015));
#226=CARTESIAN_POINT('',(0.,0.,0.0015));
#227=MECHANICAL_DESIGN_GEOMETRIC_PRESENTATION_REPRESENTATION('',(#109),
#229);
#228=MECHANICAL_DESIGN_GEOMETRIC_PRESENTATION_REPRESENTATION('',(#110,#10,
#11),#230);
#229=(
GEOMETRIC_REPRESENTATION_CONTEXT(3)
GLOBAL_UNCERTAINTY_ASSIGNED_CONTEXT((#231))
GLOBAL_UNIT_ASSIGNED_CONTEXT((#237,#235,#233))
REPRESENTATION_CONTEXT('Part 2','TOP_LEVEL_ASSEMBLY_PART')
);
#230=(
GEOMETRIC_REPRESENTATION_CONTEXT(3)
GLOBAL_UNCERTAINTY_ASSIGNED_CONTEXT((#232))
GLOBAL_UNIT_ASSIGNED_CONTEXT((#238,#236,#234))
REPRESENTATION_CONTEXT('Part 1','TOP_LEVEL_ASSEMBLY_PART')
);
#231=UNCERTAINTY_MEASURE_WITH_UNIT(LENGTH_MEASURE(1.E-8),#237,
'DISTANCE_ACCURACY_VALUE','Maximum Tolerance applied to model');
#232=UNCERTAINTY_MEASURE_WITH_UNIT(LENGTH_MEASURE(1.E-8),#238,
'DISTANCE_ACCURACY_VALUE','Maximum Tolerance applied to model');
#233=(
NAMED_UNIT(*)
SI_UNIT($,.STERADIAN.)
SOLID_ANGLE_UNIT()
);
#234=(
NAMED_UNIT(*)
SI_UNIT($,.STERADIAN.)
SOLID_ANGLE_UNIT()
);
#235=(
NAMED_UNIT(*)
PLANE_ANGLE_UNIT()
SI_UNIT($,.RADIAN.)
);
#236=(
NAMED_UNIT(*)
PLANE_ANGLE_UNIT()
SI_UNIT($,.RADIAN.)
);
#237=(
LENGTH_UNIT()
NAMED_UNIT(*)
SI_UNIT($,.METRE.)
);
#238=(
LENGTH_UNIT()
NAMED_UNIT(*)
SI_UNIT($,.METRE.)
);
#239=PRODUCT_DEFINITION_SHAPE('','',#241);
#240=PRODUCT_DEFINITION_SHAPE('','',#242);
#241=PRODUCT_DEFINITION('','',#245,#243);
#242=PRODUCT_DEFINITION('','',#246,#244);
#243=PRODUCT_DEFINITION_CONTEXT('',#257,'design');
#244=PRODUCT_DEFINITION_CONTEXT('',#258,'design');
#245=PRODUCT_DEFINITION_FORMATION_WITH_SPECIFIED_SOURCE('','',#249,
 .NOT_KNOWN.);
#246=PRODUCT_DEFINITION_FORMATION_WITH_SPECIFIED_SOURCE('','',#250,
 .NOT_KNOWN.);
#247=PRODUCT_RELATED_PRODUCT_CATEGORY('','',(#249));
#248=PRODUCT_RELATED_PRODUCT_CATEGORY('','',(#250));
#249=PRODUCT('Part 2','Part 2','Part 2',(#253));
#250=PRODUCT('Part 1','Part 1','Part 1',(#254));
#251=PRODUCT_CATEGORY('','');
#252=PRODUCT_CATEGORY('','');
#253=PRODUCT_CONTEXT('',#257,'mechanical');
#254=PRODUCT_CONTEXT('',#258,'mechanical');
#255=APPLICATION_PROTOCOL_DEFINITION('international standard',
'ap242_managed_model_based_3d_engineering',2020,#257);
#256=APPLICATION_PROTOCOL_DEFINITION('international standard',
'ap242_managed_model_based_3d_engineering',2020,#258);
#257=APPLICATION_CONTEXT('managed model based 3d engineering');
#258=APPLICATION_CONTEXT('managed model based 3d engineering');
ENDSEC;
END-ISO-10303-21;
