ISO-10303-21;
HEADER;
/* Generated by software containing ST-Developer
 * from STEP Tools, Inc. (www.steptools.com) 
 */
/* OPTION: using custom renumber hook */

FILE_DESCRIPTION(
/* description */ ('STEP AP242 Edition 2',
'CAx-IF Rec.Pracs.---Representation and Presentation of Product Manufa
cturing Information (PMI)---4.0---2014-10-13',
'CAx-IF Rec.Pracs.---3D Tessellated Geometry---0.4---2014-09-14','2;1',
'CAx-IF Rec.Pracs.---User Defined Attributes---1.5---2016-08-15'),
/* implementation_level */ '2;1');

FILE_NAME(
/* name */ 'Counter',
/* time_stamp */ '2026-09-07T05:39:14Z',
/* author */ (''),
/* organization */ (''),
/* preprocessor_version */ 'ST-DEVELOPER v20',
/* originating_system */ 'ONSHAPE BY PTC INC, 1.220',
/* authorisation */ '  ');

FILE_SCHEMA (('AP242_MANAGED_MODEL_BASED_3D_ENGINEERING_MIM_LF { 1 0 10303 442 3 1 4 }'));
ENDSEC;

DATA;
#10=SHAPE_REPRESENTATION_RELATIONSHIP('','',#383,#12);
#11=SHAPE_REPRESENTATION_RELATIONSHIP('','',#384,#13);
#12=ADVANCED_BREP_SHAPE_REPRESENTATION('',(#379),#619);
#13=ADVANCED_BREP_SHAPE_REPRESENTATION('',(#380),#620);
#14=CYLINDRICAL_SURFACE('',#399,0.005);
#15=CYLINDRICAL_SURFACE('',#401,0.005);
#16=CYLINDRICAL_SURFACE('',#405,0.0025);
#17=CYLINDRICAL_SURFACE('',#407,0.0025);
#18=CIRCLE('',#387,0.005);
#19=CIRCLE('',#388,0.005);
#20=CIRCLE('',#389,0.0025);
#21=CIRCLE('',#390,0.0025);
#22=CIRCLE('',#392,0.005);
#23=CIRCLE('',#393,0.005);
#24=CIRCLE('',#394,0.0025);
#25=CIRCLE('',#395,0.0025);
#26=ORIENTED_EDGE('',*,*,#122,.F.);
#27=ORIENTED_EDGE('',*,*,#123,.T.);
#28=ORIENTED_EDGE('',*,*,#124,.T.);
#29=ORIENTED_EDGE('',*,*,#125,.T.);
#30=ORIENTED_EDGE('',*,*,#126,.F.);
#31=ORIENTED_EDGE('',*,*,#127,.T.);
#32=ORIENTED_EDGE('',*,*,#128,.F.);
#33=ORIENTED_EDGE('',*,*,#129,.T.);
#34=ORIENTED_EDGE('',*,*,#130,.F.);
#35=ORIENTED_EDGE('',*,*,#131,.T.);
#36=ORIENTED_EDGE('',*,*,#132,.F.);
#37=ORIENTED_EDGE('',*,*,#133,.F.);
#38=ORIENTED_EDGE('',*,*,#134,.T.);
#39=ORIENTED_EDGE('',*,*,#135,.F.);
#40=ORIENTED_EDGE('',*,*,#136,.T.);
#41=ORIENTED_EDGE('',*,*,#137,.F.);
#42=ORIENTED_EDGE('',*,*,#138,.F.);
#43=ORIENTED_EDGE('',*,*,#139,.F.);
#44=ORIENTED_EDGE('',*,*,#140,.F.);
#45=ORIENTED_EDGE('',*,*,#141,.T.);
#46=ORIENTED_EDGE('',*,*,#142,.T.);
#47=ORIENTED_EDGE('',*,*,#143,.T.);
#48=ORIENTED_EDGE('',*,*,#144,.F.);
#49=ORIENTED_EDGE('',*,*,#145,.T.);
#50=ORIENTED_EDGE('',*,*,#134,.F.);
#51=ORIENTED_EDGE('',*,*,#146,.F.);
#52=ORIENTED_EDGE('',*,*,#122,.T.);
#53=ORIENTED_EDGE('',*,*,#147,.T.);
#54=ORIENTED_EDGE('',*,*,#139,.T.);
#55=ORIENTED_EDGE('',*,*,#148,.F.);
#56=ORIENTED_EDGE('',*,*,#123,.F.);
#57=ORIENTED_EDGE('',*,*,#146,.T.);
#58=ORIENTED_EDGE('',*,*,#138,.T.);
#59=ORIENTED_EDGE('',*,*,#149,.F.);
#60=ORIENTED_EDGE('',*,*,#124,.F.);
#61=ORIENTED_EDGE('',*,*,#148,.T.);
#62=ORIENTED_EDGE('',*,*,#137,.T.);
#63=ORIENTED_EDGE('',*,*,#150,.F.);
#64=ORIENTED_EDGE('',*,*,#125,.F.);
#65=ORIENTED_EDGE('',*,*,#149,.T.);
#66=ORIENTED_EDGE('',*,*,#136,.F.);
#67=ORIENTED_EDGE('',*,*,#151,.F.);
#68=ORIENTED_EDGE('',*,*,#126,.T.);
#69=ORIENTED_EDGE('',*,*,#150,.T.);
#70=ORIENTED_EDGE('',*,*,#135,.T.);
#71=ORIENTED_EDGE('',*,*,#147,.F.);
#72=ORIENTED_EDGE('',*,*,#127,.F.);
#73=ORIENTED_EDGE('',*,*,#151,.T.);
#74=ORIENTED_EDGE('',*,*,#140,.T.);
#75=ORIENTED_EDGE('',*,*,#152,.F.);
#76=ORIENTED_EDGE('',*,*,#129,.F.);
#77=ORIENTED_EDGE('',*,*,#153,.T.);
#78=ORIENTED_EDGE('',*,*,#141,.F.);
#79=ORIENTED_EDGE('',*,*,#153,.F.);
#80=ORIENTED_EDGE('',*,*,#128,.T.);
#81=ORIENTED_EDGE('',*,*,#154,.T.);
#82=ORIENTED_EDGE('',*,*,#142,.F.);
#83=ORIENTED_EDGE('',*,*,#154,.F.);
#84=ORIENTED_EDGE('',*,*,#133,.T.);
#85=ORIENTED_EDGE('',*,*,#155,.T.);
#86=ORIENTED_EDGE('',*,*,#143,.F.);
#87=ORIENTED_EDGE('',*,*,#155,.F.);
#88=ORIENTED_EDGE('',*,*,#132,.T.);
#89=ORIENTED_EDGE('',*,*,#156,.T.);
#90=ORIENTED_EDGE('',*,*,#144,.T.);
#91=ORIENTED_EDGE('',*,*,#156,.F.);
#92=ORIENTED_EDGE('',*,*,#131,.F.);
#93=ORIENTED_EDGE('',*,*,#157,.T.);
#94=ORIENTED_EDGE('',*,*,#145,.F.);
#95=ORIENTED_EDGE('',*,*,#157,.F.);
#96=ORIENTED_EDGE('',*,*,#130,.T.);
#97=ORIENTED_EDGE('',*,*,#152,.T.);
#98=ORIENTED_EDGE('',*,*,#158,.F.);
#99=ORIENTED_EDGE('',*,*,#159,.F.);
#100=ORIENTED_EDGE('',*,*,#160,.T.);
#101=ORIENTED_EDGE('',*,*,#161,.T.);
#102=ORIENTED_EDGE('',*,*,#162,.T.);
#103=ORIENTED_EDGE('',*,*,#163,.F.);
#104=ORIENTED_EDGE('',*,*,#164,.F.);
#105=ORIENTED_EDGE('',*,*,#159,.T.);
#106=ORIENTED_EDGE('',*,*,#165,.T.);
#107=ORIENTED_EDGE('',*,*,#166,.F.);
#108=ORIENTED_EDGE('',*,*,#167,.F.);
#109=ORIENTED_EDGE('',*,*,#163,.T.);
#110=ORIENTED_EDGE('',*,*,#168,.F.);
#111=ORIENTED_EDGE('',*,*,#161,.F.);
#112=ORIENTED_EDGE('',*,*,#169,.T.);
#113=ORIENTED_EDGE('',*,*,#166,.T.);
#114=ORIENTED_EDGE('',*,*,#160,.F.);
#115=ORIENTED_EDGE('',*,*,#164,.T.);
#116=ORIENTED_EDGE('',*,*,#167,.T.);
#117=ORIENTED_EDGE('',*,*,#169,.F.);
#118=ORIENTED_EDGE('',*,*,#158,.T.);
#119=ORIENTED_EDGE('',*,*,#168,.T.);
#120=ORIENTED_EDGE('',*,*,#165,.F.);
#121=ORIENTED_EDGE('',*,*,#162,.F.);
#122=EDGE_CURVE('',#170,#171,#202,.T.);
#123=EDGE_CURVE('',#170,#172,#203,.T.);
#124=EDGE_CURVE('',#172,#173,#204,.T.);
#125=EDGE_CURVE('',#173,#174,#18,.T.);
#126=EDGE_CURVE('',#175,#174,#205,.T.);
#127=EDGE_CURVE('',#175,#171,#19,.T.);
#128=EDGE_CURVE('',#176,#177,#206,.T.);
#129=EDGE_CURVE('',#176,#178,#207,.T.);
#130=EDGE_CURVE('',#179,#178,#20,.T.);
#131=EDGE_CURVE('',#179,#180,#208,.T.);
#132=EDGE_CURVE('',#181,#180,#21,.T.);
#133=EDGE_CURVE('',#177,#181,#209,.T.);
#134=EDGE_CURVE('',#182,#183,#210,.T.);
#135=EDGE_CURVE('',#184,#183,#22,.T.);
#136=EDGE_CURVE('',#184,#185,#211,.T.);
#137=EDGE_CURVE('',#186,#185,#23,.T.);
#138=EDGE_CURVE('',#187,#186,#212,.T.);
#139=EDGE_CURVE('',#182,#187,#213,.T.);
#140=EDGE_CURVE('',#188,#189,#214,.T.);
#141=EDGE_CURVE('',#188,#190,#215,.T.);
#142=EDGE_CURVE('',#190,#191,#216,.T.);
#143=EDGE_CURVE('',#191,#192,#24,.T.);
#144=EDGE_CURVE('',#193,#192,#217,.T.);
#145=EDGE_CURVE('',#193,#189,#25,.T.);
#146=EDGE_CURVE('',#170,#182,#218,.T.);
#147=EDGE_CURVE('',#171,#183,#219,.T.);
#148=EDGE_CURVE('',#172,#187,#220,.T.);
#149=EDGE_CURVE('',#173,#186,#221,.T.);
#150=EDGE_CURVE('',#174,#185,#222,.T.);
#151=EDGE_CURVE('',#175,#184,#223,.T.);
#152=EDGE_CURVE('',#178,#189,#224,.F.);
#153=EDGE_CURVE('',#176,#188,#225,.T.);
#154=EDGE_CURVE('',#177,#190,#226,.T.);
#155=EDGE_CURVE('',#181,#191,#227,.T.);
#156=EDGE_CURVE('',#180,#192,#228,.F.);
#157=EDGE_CURVE('',#179,#193,#229,.T.);
#158=EDGE_CURVE('',#194,#195,#230,.T.);
#159=EDGE_CURVE('',#196,#194,#231,.T.);
#160=EDGE_CURVE('',#196,#197,#232,.T.);
#161=EDGE_CURVE('',#197,#195,#233,.T.);
#162=EDGE_CURVE('',#194,#198,#234,.T.);
#163=EDGE_CURVE('',#199,#198,#235,.T.);
#164=EDGE_CURVE('',#196,#199,#236,.T.);
#165=EDGE_CURVE('',#198,#200,#237,.T.);
#166=EDGE_CURVE('',#201,#200,#238,.T.);
#167=EDGE_CURVE('',#199,#201,#239,.T.);
#168=EDGE_CURVE('',#195,#200,#240,.T.);
#169=EDGE_CURVE('',#197,#201,#241,.T.);
#170=VERTEX_POINT('',#518);
#171=VERTEX_POINT('',#519);
#172=VERTEX_POINT('',#521);
#173=VERTEX_POINT('',#523);
#174=VERTEX_POINT('',#525);
#175=VERTEX_POINT('',#527);
#176=VERTEX_POINT('',#530);
#177=VERTEX_POINT('',#531);
#178=VERTEX_POINT('',#533);
#179=VERTEX_POINT('',#535);
#180=VERTEX_POINT('',#537);
#181=VERTEX_POINT('',#539);
#182=VERTEX_POINT('',#543);
#183=VERTEX_POINT('',#544);
#184=VERTEX_POINT('',#546);
#185=VERTEX_POINT('',#548);
#186=VERTEX_POINT('',#550);
#187=VERTEX_POINT('',#552);
#188=VERTEX_POINT('',#555);
#189=VERTEX_POINT('',#556);
#190=VERTEX_POINT('',#558);
#191=VERTEX_POINT('',#560);
#192=VERTEX_POINT('',#562);
#193=VERTEX_POINT('',#564);
#194=VERTEX_POINT('',#593);
#195=VERTEX_POINT('',#594);
#196=VERTEX_POINT('',#596);
#197=VERTEX_POINT('',#598);
#198=VERTEX_POINT('',#602);
#199=VERTEX_POINT('',#604);
#200=VERTEX_POINT('',#608);
#201=VERTEX_POINT('',#610);
#202=LINE('',#517,#242);
#203=LINE('',#520,#243);
#204=LINE('',#522,#244);
#205=LINE('',#526,#245);
#206=LINE('',#529,#246);
#207=LINE('',#532,#247);
#208=LINE('',#536,#248);
#209=LINE('',#540,#249);
#210=LINE('',#542,#250);
#211=LINE('',#547,#251);
#212=LINE('',#551,#252);
#213=LINE('',#553,#253);
#214=LINE('',#554,#254);
#215=LINE('',#557,#255);
#216=LINE('',#559,#256);
#217=LINE('',#563,#257);
#218=LINE('',#567,#258);
#219=LINE('',#568,#259);
#220=LINE('',#570,#260);
#221=LINE('',#572,#261);
#222=LINE('',#574,#262);
#223=LINE('',#576,#263);
#224=LINE('',#579,#264);
#225=LINE('',#580,#265);
#226=LINE('',#582,#266);
#227=LINE('',#584,#267);
#228=LINE('',#586,#268);
#229=LINE('',#588,#269);
#230=LINE('',#592,#270);
#231=LINE('',#595,#271);
#232=LINE('',#597,#272);
#233=LINE('',#599,#273);
#234=LINE('',#601,#274);
#235=LINE('',#603,#275);
#236=LINE('',#605,#276);
#237=LINE('',#607,#277);
#238=LINE('',#609,#278);
#239=LINE('',#611,#279);
#240=LINE('',#613,#280);
#241=LINE('',#614,#281);
#242=VECTOR('',#419,1.);
#243=VECTOR('',#420,1.);
#244=VECTOR('',#421,1.);
#245=VECTOR('',#424,1.);
#246=VECTOR('',#427,1.);
#247=VECTOR('',#428,1.);
#248=VECTOR('',#431,1.);
#249=VECTOR('',#434,1.);
#250=VECTOR('',#437,1.);
#251=VECTOR('',#440,1.);
#252=VECTOR('',#443,1.);
#253=VECTOR('',#444,1.);
#254=VECTOR('',#445,1.);
#255=VECTOR('',#446,1.);
#256=VECTOR('',#447,1.);
#257=VECTOR('',#450,1.);
#258=VECTOR('',#455,1.);
#259=VECTOR('',#456,1.);
#260=VECTOR('',#459,1.);
#261=VECTOR('',#462,1.);
#262=VECTOR('',#465,1.);
#263=VECTOR('',#468,1.);
#264=VECTOR('',#473,1.);
#265=VECTOR('',#474,1.);
#266=VECTOR('',#477,1.);
#267=VECTOR('',#480,1.);
#268=VECTOR('',#483,1.);
#269=VECTOR('',#486,1.);
#270=VECTOR('',#493,1.);
#271=VECTOR('',#494,1.);
#272=VECTOR('',#495,1.);
#273=VECTOR('',#496,1.);
#274=VECTOR('',#499,1.);
#275=VECTOR('',#500,1.);
#276=VECTOR('',#501,1.);
#277=VECTOR('',#504,1.);
#278=VECTOR('',#505,1.);
#279=VECTOR('',#506,1.);
#280=VECTOR('',#509,1.);
#281=VECTOR('',#510,1.);
#282=EDGE_LOOP('',(#26,#27,#28,#29,#30,#31));
#283=EDGE_LOOP('',(#32,#33,#34,#35,#36,#37));
#284=EDGE_LOOP('',(#38,#39,#40,#41,#42,#43));
#285=EDGE_LOOP('',(#44,#45,#46,#47,#48,#49));
#286=EDGE_LOOP('',(#50,#51,#52,#53));
#287=EDGE_LOOP('',(#54,#55,#56,#57));
#288=EDGE_LOOP('',(#58,#59,#60,#61));
#289=EDGE_LOOP('',(#62,#63,#64,#65));
#290=EDGE_LOOP('',(#66,#67,#68,#69));
#291=EDGE_LOOP('',(#70,#71,#72,#73));
#292=EDGE_LOOP('',(#74,#75,#76,#77));
#293=EDGE_LOOP('',(#78,#79,#80,#81));
#294=EDGE_LOOP('',(#82,#83,#84,#85));
#295=EDGE_LOOP('',(#86,#87,#88,#89));
#296=EDGE_LOOP('',(#90,#91,#92,#93));
#297=EDGE_LOOP('',(#94,#95,#96,#97));
#298=EDGE_LOOP('',(#98,#99,#100,#101));
#299=EDGE_LOOP('',(#102,#103,#104,#105));
#300=EDGE_LOOP('',(#106,#107,#108,#109));
#301=EDGE_LOOP('',(#110,#111,#112,#113));
#302=EDGE_LOOP('',(#114,#115,#116,#117));
#303=EDGE_LOOP('',(#118,#119,#120,#121));
#304=FACE_BOUND('',#282,.T.);
#305=FACE_BOUND('',#283,.T.);
#306=FACE_BOUND('',#284,.T.);
#307=FACE_BOUND('',#285,.T.);
#308=FACE_BOUND('',#286,.T.);
#309=FACE_BOUND('',#287,.T.);
#310=FACE_BOUND('',#288,.T.);
#311=FACE_BOUND('',#289,.T.);
#312=FACE_BOUND('',#290,.T.);
#313=FACE_BOUND('',#291,.T.);
#314=FACE_BOUND('',#292,.T.);
#315=FACE_BOUND('',#293,.T.);
#316=FACE_BOUND('',#294,.T.);
#317=FACE_BOUND('',#295,.T.);
#318=FACE_BOUND('',#296,.T.);
#319=FACE_BOUND('',#297,.T.);
#320=FACE_BOUND('',#298,.T.);
#321=FACE_BOUND('',#299,.T.);
#322=FACE_BOUND('',#300,.T.);
#323=FACE_BOUND('',#301,.T.);
#324=FACE_BOUND('',#302,.T.);
#325=FACE_BOUND('',#303,.T.);
#326=PLANE('',#386);
#327=PLANE('',#391);
#328=PLANE('',#396);
#329=PLANE('',#397);
#330=PLANE('',#398);
#331=PLANE('',#400);
#332=PLANE('',#402);
#333=PLANE('',#403);
#334=PLANE('',#404);
#335=PLANE('',#406);
#336=PLANE('',#409);
#337=PLANE('',#410);
#338=PLANE('',#411);
#339=PLANE('',#412);
#340=PLANE('',#413);
#341=PLANE('',#414);
#342=ADVANCED_FACE('',(#304,#305),#326,.T.);
#343=ADVANCED_FACE('',(#306,#307),#327,.F.);
#344=ADVANCED_FACE('',(#308),#328,.T.);
#345=ADVANCED_FACE('',(#309),#329,.F.);
#346=ADVANCED_FACE('',(#310),#330,.F.);
#347=ADVANCED_FACE('',(#311),#14,.T.);
#348=ADVANCED_FACE('',(#312),#331,.T.);
#349=ADVANCED_FACE('',(#313),#15,.T.);
#350=ADVANCED_FACE('',(#314),#332,.F.);
#351=ADVANCED_FACE('',(#315),#333,.T.);
#352=ADVANCED_FACE('',(#316),#334,.T.);
#353=ADVANCED_FACE('',(#317),#16,.F.);
#354=ADVANCED_FACE('',(#318),#335,.F.);
#355=ADVANCED_FACE('',(#319),#17,.F.);
#356=ADVANCED_FACE('',(#320),#336,.T.);
#357=ADVANCED_FACE('',(#321),#337,.F.);
#358=ADVANCED_FACE('',(#322),#338,.F.);
#359=ADVANCED_FACE('',(#323),#339,.T.);
#360=ADVANCED_FACE('',(#324),#340,.T.);
#361=ADVANCED_FACE('',(#325),#341,.F.);
#362=CLOSED_SHELL('',(#342,#343,#344,#345,#346,#347,#348,#349,#350,#351,
#352,#353,#354,#355));
#363=CLOSED_SHELL('',(#356,#357,#358,#359,#360,#361));
#364=STYLED_ITEM('',(#366),#379);
#365=STYLED_ITEM('',(#367),#380);
#366=PRESENTATION_STYLE_ASSIGNMENT((#368));
#367=PRESENTATION_STYLE_ASSIGNMENT((#369));
#368=SURFACE_STYLE_USAGE(.BOTH.,#370);
#369=SURFACE_STYLE_USAGE(.BOTH.,#371);
#370=SURFACE_SIDE_STYLE('',(#372));
#371=SURFACE_SIDE_STYLE('',(#373));
#372=SURFACE_STYLE_FILL_AREA(#374);
#373=SURFACE_STYLE_FILL_AREA(#375);
#374=FILL_AREA_STYLE('',(#376));
#375=FILL_AREA_STYLE('',(#377));
#376=FILL_AREA_STYLE_COLOUR('',#378);
#377=FILL_AREA_STYLE_COLOUR('',#378);
#378=COLOUR_RGB('',0.917647058823529,0.917647058823529,0.917647058823529);
#379=MANIFOLD_SOLID_BREP('Part 2',#362);
#380=MANIFOLD_SOLID_BREP('Part 1',#363);
#381=SHAPE_DEFINITION_REPRESENTATION(#629,#383);
#382=SHAPE_DEFINITION_REPRESENTATION(#630,#384);
#383=SHAPE_REPRESENTATION('Part 2',(#385),#619);
#384=SHAPE_REPRESENTATION('Part 1',(#408),#620);
#385=AXIS2_PLACEMENT_3D('',#515,#415,#416);
#386=AXIS2_PLACEMENT_3D('',#516,#417,#418);
#387=AXIS2_PLACEMENT_3D('',#524,#422,#423);
#388=AXIS2_PLACEMENT_3D('',#528,#425,#426);
#389=AXIS2_PLACEMENT_3D('',#534,#429,#430);
#390=AXIS2_PLACEMENT_3D('',#538,#432,#433);
#391=AXIS2_PLACEMENT_3D('',#541,#435,#436);
#392=AXIS2_PLACEMENT_3D('',#545,#438,#439);
#393=AXIS2_PLACEMENT_3D('',#549,#441,#442);
#394=AXIS2_PLACEMENT_3D('',#561,#448,#449);
#395=AXIS2_PLACEMENT_3D('',#565,#451,#452);
#396=AXIS2_PLACEMENT_3D('',#566,#453,#454);
#397=AXIS2_PLACEMENT_3D('',#569,#457,#458);
#398=AXIS2_PLACEMENT_3D('',#571,#460,#461);
#399=AXIS2_PLACEMENT_3D('',#573,#463,#464);
#400=AXIS2_PLACEMENT_3D('',#575,#466,#467);
#401=AXIS2_PLACEMENT_3D('',#577,#469,#470);
#402=AXIS2_PLACEMENT_3D('',#578,#471,#472);
#403=AXIS2_PLACEMENT_3D('',#581,#475,#476);
#404=AXIS2_PLACEMENT_3D('',#583,#478,#479);
#405=AXIS2_PLACEMENT_3D('',#585,#481,#482);
#406=AXIS2_PLACEMENT_3D('',#587,#484,#485);
#407=AXIS2_PLACEMENT_3D('',#589,#487,#488);
#408=AXIS2_PLACEMENT_3D('',#590,#489,#490);
#409=AXIS2_PLACEMENT_3D('',#591,#491,#492);
#410=AXIS2_PLACEMENT_3D('',#600,#497,#498);
#411=AXIS2_PLACEMENT_3D('',#606,#502,#503);
#412=AXIS2_PLACEMENT_3D('',#612,#507,#508);
#413=AXIS2_PLACEMENT_3D('',#615,#511,#512);
#414=AXIS2_PLACEMENT_3D('',#616,#513,#514);
#415=DIRECTION('',(0.,0.,1.));
#416=DIRECTION('',(1.,0.,0.));
#417=DIRECTION('',(0.,0.,1.));
#418=DIRECTION('',(1.,0.,0.));
#419=DIRECTION('',(0.,1.,0.));
#420=DIRECTION('',(1.,0.,0.));
#421=DIRECTION('',(0.,1.,0.));
#422=DIRECTION('',(0.,0.,1.));
#423=DIRECTION('',(1.,0.,0.));
#424=DIRECTION('',(1.,0.,0.));
#425=DIRECTION('',(0.,0.,1.));
#426=DIRECTION('',(1.,0.,0.));
#427=DIRECTION('',(1.,0.,0.));
#428=DIRECTION('',(0.,1.,0.));
#429=DIRECTION('',(0.,0.,1.));
#430=DIRECTION('',(1.,0.,0.));
#431=DIRECTION('',(1.,0.,0.));
#432=DIRECTION('',(0.,0.,1.));
#433=DIRECTION('',(1.,0.,0.));
#434=DIRECTION('',(0.,1.,0.));
#435=DIRECTION('',(0.,0.,1.));
#436=DIRECTION('',(1.,0.,0.));
#437=DIRECTION('',(0.,1.,0.));
#438=DIRECTION('',(0.,0.,1.));
#439=DIRECTION('',(1.,0.,0.));
#440=DIRECTION('',(1.,0.,0.));
#441=DIRECTION('',(0.,0.,1.));
#442=DIRECTION('',(1.,0.,0.));
#443=DIRECTION('',(0.,1.,0.));
#444=DIRECTION('',(1.,0.,0.));
#445=DIRECTION('',(0.,1.,0.));
#446=DIRECTION('',(1.,0.,0.));
#447=DIRECTION('',(0.,1.,0.));
#448=DIRECTION('',(0.,0.,1.));
#449=DIRECTION('',(1.,0.,0.));
#450=DIRECTION('',(1.,0.,0.));
#451=DIRECTION('',(0.,0.,1.));
#452=DIRECTION('',(1.,0.,0.));
#453=DIRECTION('',(-1.,0.,0.));
#454=DIRECTION('',(0.,0.,1.));
#455=DIRECTION('',(0.,0.,-1.));
#456=DIRECTION('',(0.,0.,-1.));
#457=DIRECTION('',(0.,1.,0.));
#458=DIRECTION('',(0.,0.,1.));
#459=DIRECTION('',(0.,0.,-1.));
#460=DIRECTION('',(-1.,0.,0.));
#461=DIRECTION('',(0.,0.,1.));
#462=DIRECTION('',(0.,0.,-1.));
#463=DIRECTION('',(0.,0.,-1.));
#464=DIRECTION('',(-1.,0.,0.));
#465=DIRECTION('',(0.,0.,-1.));
#466=DIRECTION('',(0.,1.,0.));
#467=DIRECTION('',(0.,0.,1.));
#468=DIRECTION('',(0.,0.,-1.));
#469=DIRECTION('',(0.,0.,-1.));
#470=DIRECTION('',(-1.,0.,0.));
#471=DIRECTION('',(-1.,0.,0.));
#472=DIRECTION('',(0.,0.,1.));
#473=DIRECTION('',(0.,0.,1.));
#474=DIRECTION('',(0.,0.,-1.));
#475=DIRECTION('',(0.,1.,0.));
#476=DIRECTION('',(0.,0.,1.));
#477=DIRECTION('',(0.,0.,-1.));
#478=DIRECTION('',(-1.,0.,0.));
#479=DIRECTION('',(0.,0.,1.));
#480=DIRECTION('',(0.,0.,-1.));
#481=DIRECTION('',(0.,0.,-1.));
#482=DIRECTION('',(-1.,0.,0.));
#483=DIRECTION('',(0.,0.,1.));
#484=DIRECTION('',(0.,1.,0.));
#485=DIRECTION('',(0.,0.,1.));
#486=DIRECTION('',(0.,0.,-1.));
#487=DIRECTION('',(0.,0.,-1.));
#488=DIRECTION('',(-1.,0.,0.));
#489=DIRECTION('',(0.,0.,1.));
#490=DIRECTION('',(1.,0.,0.));
#491=DIRECTION('',(1.33440267382831E-16,-1.,0.));
#492=DIRECTION('',(1.,1.33440267382831E-16,0.));
#493=DIRECTION('',(-1.,-1.33440267382831E-16,0.));
#494=DIRECTION('',(0.,0.,-1.));
#495=DIRECTION('',(-1.,-1.33440267382831E-16,0.));
#496=DIRECTION('',(0.,0.,-1.));
#497=DIRECTION('',(-1.,0.,0.));
#498=DIRECTION('',(0.,0.,1.));
#499=DIRECTION('',(0.,1.,0.));
#500=DIRECTION('',(0.,0.,-1.));
#501=DIRECTION('',(0.,1.,0.));
#502=DIRECTION('',(1.06752213906265E-16,-1.,0.));
#503=DIRECTION('',(1.,1.06752213906265E-16,0.));
#504=DIRECTION('',(-1.,-1.06752213906265E-16,0.));
#505=DIRECTION('',(0.,0.,-1.));
#506=DIRECTION('',(-1.,-1.06752213906265E-16,0.));
#507=DIRECTION('',(-1.,0.,0.));
#508=DIRECTION('',(0.,0.,1.));
#509=DIRECTION('',(0.,1.,0.));
#510=DIRECTION('',(0.,1.,0.));
#511=DIRECTION('',(0.,0.,1.));
#512=DIRECTION('',(1.,0.,0.));
#513=DIRECTION('',(0.,0.,1.));
#514=DIRECTION('',(1.,0.,0.));
#515=CARTESIAN_POINT('',(0.,0.,0.));
#516=CARTESIAN_POINT('',(0.,0.01875,0.03));
#517=CARTESIAN_POINT('',(-0.0325,0.01625,0.03));
#518=CARTESIAN_POINT('',(-0.0325,0.01,0.03));
#519=CARTESIAN_POINT('',(-0.0325,0.0225,0.03));
#520=CARTESIAN_POINT('',(0.,0.01,0.03));
#521=CARTESIAN_POINT('',(0.0325,0.01,0.03));
#522=CARTESIAN_POINT('',(0.0325,0.01625,0.03));
#523=CARTESIAN_POINT('',(0.0325,0.0225,0.03));
#524=CARTESIAN_POINT('',(0.0275,0.0225,0.03));
#525=CARTESIAN_POINT('',(0.0275,0.0275,0.03));
#526=CARTESIAN_POINT('',(-3.46944695195361E-18,0.0275,0.03));
#527=CARTESIAN_POINT('',(-0.0275,0.0275,0.03));
#528=CARTESIAN_POINT('',(-0.0275,0.0225,0.03));
#529=CARTESIAN_POINT('',(0.,0.0125,0.03));
#530=CARTESIAN_POINT('',(-0.03,0.0125,0.03));
#531=CARTESIAN_POINT('',(0.03,0.0125,0.03));
#532=CARTESIAN_POINT('',(-0.03,0.01625,0.03));
#533=CARTESIAN_POINT('',(-0.03,0.0225,0.03));
#534=CARTESIAN_POINT('',(-0.0275,0.0225,0.03));
#535=CARTESIAN_POINT('',(-0.0275,0.025,0.03));
#536=CARTESIAN_POINT('',(-3.46944695195361E-18,0.025,0.03));
#537=CARTESIAN_POINT('',(0.0275,0.025,0.03));
#538=CARTESIAN_POINT('',(0.0275,0.0225,0.03));
#539=CARTESIAN_POINT('',(0.03,0.0225,0.03));
#540=CARTESIAN_POINT('',(0.03,0.01625,0.03));
#541=CARTESIAN_POINT('',(0.,0.01875,0.));
#542=CARTESIAN_POINT('',(-0.0325,0.01625,0.));
#543=CARTESIAN_POINT('',(-0.0325,0.01,0.));
#544=CARTESIAN_POINT('',(-0.0325,0.0225,0.));
#545=CARTESIAN_POINT('',(-0.0275,0.0225,0.));
#546=CARTESIAN_POINT('',(-0.0275,0.0275,0.));
#547=CARTESIAN_POINT('',(-3.46944695195361E-18,0.0275,0.));
#548=CARTESIAN_POINT('',(0.0275,0.0275,0.));
#549=CARTESIAN_POINT('',(0.0275,0.0225,0.));
#550=CARTESIAN_POINT('',(0.0325,0.0225,0.));
#551=CARTESIAN_POINT('',(0.0325,0.01625,0.));
#552=CARTESIAN_POINT('',(0.0325,0.01,0.));
#553=CARTESIAN_POINT('',(0.,0.01,0.));
#554=CARTESIAN_POINT('',(-0.03,0.01625,0.));
#555=CARTESIAN_POINT('',(-0.03,0.0125,0.));
#556=CARTESIAN_POINT('',(-0.03,0.0225,0.));
#557=CARTESIAN_POINT('',(0.,0.0125,0.));
#558=CARTESIAN_POINT('',(0.03,0.0125,0.));
#559=CARTESIAN_POINT('',(0.03,0.01625,0.));
#560=CARTESIAN_POINT('',(0.03,0.0225,0.));
#561=CARTESIAN_POINT('',(0.0275,0.0225,0.));
#562=CARTESIAN_POINT('',(0.0275,0.025,0.));
#563=CARTESIAN_POINT('',(-3.46944695195361E-18,0.025,0.));
#564=CARTESIAN_POINT('',(-0.0275,0.025,0.));
#565=CARTESIAN_POINT('',(-0.0275,0.0225,0.));
#566=CARTESIAN_POINT('',(-0.0325,0.01625,0.03));
#567=CARTESIAN_POINT('',(-0.0325,0.01,0.03));
#568=CARTESIAN_POINT('',(-0.0325,0.0225,0.03));
#569=CARTESIAN_POINT('',(0.,0.01,0.03));
#570=CARTESIAN_POINT('',(0.0325,0.01,0.03));
#571=CARTESIAN_POINT('',(0.0325,0.01625,0.03));
#572=CARTESIAN_POINT('',(0.0325,0.0225,0.03));
#573=CARTESIAN_POINT('',(0.0275,0.0225,0.03));
#574=CARTESIAN_POINT('',(0.0275,0.0275,0.03));
#575=CARTESIAN_POINT('',(-3.46944695195361E-18,0.0275,0.03));
#576=CARTESIAN_POINT('',(-0.0275,0.0275,0.03));
#577=CARTESIAN_POINT('',(-0.0275,0.0225,0.03));
#578=CARTESIAN_POINT('',(-0.03,0.01625,0.03));
#579=CARTESIAN_POINT('',(-0.03,0.0225,0.03));
#580=CARTESIAN_POINT('',(-0.03,0.0125,0.03));
#581=CARTESIAN_POINT('',(0.,0.0125,0.03));
#582=CARTESIAN_POINT('',(0.03,0.0125,0.03));
#583=CARTESIAN_POINT('',(0.03,0.01625,0.03));
#584=CARTESIAN_POINT('',(0.03,0.0225,0.03));
#585=CARTESIAN_POINT('',(0.0275,0.0225,0.03));
#586=CARTESIAN_POINT('',(0.0275,0.025,0.03));
#587=CARTESIAN_POINT('',(-3.46944695195361E-18,0.025,0.03));
#588=CARTESIAN_POINT('',(-0.0275,0.025,0.03));
#589=CARTESIAN_POINT('',(-0.0275,0.0225,0.03));
#590=CARTESIAN_POINT('',(0.,0.,0.));
#591=CARTESIAN_POINT('',(0.,-0.01,0.03));
#592=CARTESIAN_POINT('',(0.,-0.01,0.));
#593=CARTESIAN_POINT('',(0.0325,-0.01,0.));
#594=CARTESIAN_POINT('',(-0.0325,-0.01,0.));
#595=CARTESIAN_POINT('',(0.0325,-0.01,0.03));
#596=CARTESIAN_POINT('',(0.0325,-0.01,0.03));
#597=CARTESIAN_POINT('',(0.,-0.01,0.03));
#598=CARTESIAN_POINT('',(-0.0325,-0.01,0.03));
#599=CARTESIAN_POINT('',(-0.0325,-0.01,0.03));
#600=CARTESIAN_POINT('',(0.0325,5.20417042793042E-18,0.03));
#601=CARTESIAN_POINT('',(0.0325,5.20417042793042E-18,0.));
#602=CARTESIAN_POINT('',(0.0325,0.01,0.));
#603=CARTESIAN_POINT('',(0.0325,0.01,0.03));
#604=CARTESIAN_POINT('',(0.0325,0.01,0.03));
#605=CARTESIAN_POINT('',(0.0325,5.20417042793042E-18,0.03));
#606=CARTESIAN_POINT('',(0.,0.01,0.03));
#607=CARTESIAN_POINT('',(0.,0.01,0.));
#608=CARTESIAN_POINT('',(-0.0325,0.01,0.));
#609=CARTESIAN_POINT('',(-0.0325,0.01,0.03));
#610=CARTESIAN_POINT('',(-0.0325,0.01,0.03));
#611=CARTESIAN_POINT('',(0.,0.01,0.03));
#612=CARTESIAN_POINT('',(-0.0325,-3.46944695195361E-18,0.03));
#613=CARTESIAN_POINT('',(-0.0325,-3.46944695195361E-18,0.));
#614=CARTESIAN_POINT('',(-0.0325,-3.46944695195361E-18,0.03));
#615=CARTESIAN_POINT('',(0.,0.,0.03));
#616=CARTESIAN_POINT('',(0.,0.,0.));
#617=MECHANICAL_DESIGN_GEOMETRIC_PRESENTATION_REPRESENTATION('',(#364),
#619);
#618=MECHANICAL_DESIGN_GEOMETRIC_PRESENTATION_REPRESENTATION('',(#365),
#620);
#619=(
GEOMETRIC_REPRESENTATION_CONTEXT(3)
GLOBAL_UNCERTAINTY_ASSIGNED_CONTEXT((#621))
GLOBAL_UNIT_ASSIGNED_CONTEXT((#627,#625,#623))
REPRESENTATION_CONTEXT('Part 2','TOP_LEVEL_ASSEMBLY_PART')
);
#620=(
GEOMETRIC_REPRESENTATION_CONTEXT(3)
GLOBAL_UNCERTAINTY_ASSIGNED_CONTEXT((#622))
GLOBAL_UNIT_ASSIGNED_CONTEXT((#628,#626,#624))
REPRESENTATION_CONTEXT('Part 1','TOP_LEVEL_ASSEMBLY_PART')
);
#621=UNCERTAINTY_MEASURE_WITH_UNIT(LENGTH_MEASURE(1.E-8),#627,
'DISTANCE_ACCURACY_VALUE','Maximum Tolerance applied to model');
#622=UNCERTAINTY_MEASURE_WITH_UNIT(LENGTH_MEASURE(1.E-8),#628,
'DISTANCE_ACCURACY_VALUE','Maximum Tolerance applied to model');
#623=(
NAMED_UNIT(*)
SI_UNIT($,.STERADIAN.)
SOLID_ANGLE_UNIT()
);
#624=(
NAMED_UNIT(*)
SI_UNIT($,.STERADIAN.)
SOLID_ANGLE_UNIT()
);
#625=(
NAMED_UNIT(*)
PLANE_ANGLE_UNIT()
SI_UNIT($,.RADIAN.)
);
#626=(
NAMED_UNIT(*)
PLANE_ANGLE_UNIT()
SI_UNIT($,.RADIAN.)
);
#627=(
LENGTH_UNIT()
NAMED_UNIT(*)
SI_UNIT($,.METRE.)
);
#628=(
LENGTH_UNIT()
NAMED_UNIT(*)
SI_UNIT($,.METRE.)
);
#629=PRODUCT_DEFINITION_SHAPE('','',#631);
#630=PRODUCT_DEFINITION_SHAPE('','',#632);
#631=PRODUCT_DEFINITION('','',#635,#633);
#632=PRODUCT_DEFINITION('','',#636,#634);
#633=PRODUCT_DEFINITION_CONTEXT('',#647,'design');
#634=PRODUCT_DEFINITION_CONTEXT('',#648,'design');
#635=PRODUCT_DEFINITION_FORMATION_WITH_SPECIFIED_SOURCE('','',#639,
 .NOT_KNOWN.);
#636=PRODUCT_DEFINITION_FORMATION_WITH_SPECIFIED_SOURCE('','',#640,
 .NOT_KNOWN.);
#637=PRODUCT_RELATED_PRODUCT_CATEGORY('','',(#639));
#638=PRODUCT_RELATED_PRODUCT_CATEGORY('','',(#640));
#639=PRODUCT('Part 2','Part 2','Part 2',(#643));
#640=PRODUCT('Part 1','Part 1','Part 1',(#644));
#641=PRODUCT_CATEGORY('','');
#642=PRODUCT_CATEGORY('','');
#643=PRODUCT_CONTEXT('',#647,'mechanical');
#644=PRODUCT_CONTEXT('',#648,'mechanical');
#645=APPLICATION_PROTOCOL_DEFINITION('international standard',
'ap242_managed_model_based_3d_engineering',2020,#647);
#646=APPLICATION_PROTOCOL_DEFINITION('international standard',
'ap242_managed_model_based_3d_engineering',2020,#648);
#647=APPLICATION_CONTEXT('managed model based 3d engineering');
#648=APPLICATION_CONTEXT('managed model based 3d engineering');
ENDSEC;
END-ISO-10303-21;
