ISO-10303-21;
HEADER;
/* Generated by software containing ST-Developer
 * from STEP Tools, Inc. (www.steptools.com) 
 */
/* OPTION: using custom renumber hook */

FILE_DESCRIPTION(
/* description */ ('STEP AP242 Edition 2',
'CAx-IF Rec.Pracs.---Representation and Presentation of Product Manufa
cturing Information (PMI)---4.0---2014-10-13',
'CAx-IF Rec.Pracs.---3D Tessellated Geometry---0.4---2014-09-14','2;1',
'CAx-IF Rec.Pracs.---User Defined Attributes---1.5---2016-08-15'),
/* implementation_level */ '2;1');

FILE_NAME(
/* name */ 'Door',
/* time_stamp */ '2026-09-07T05:39:47Z',
/* author */ (''),
/* organization */ (''),
/* preprocessor_version */ 'ST-DEVELOPER v20',
/* originating_system */ 'ONSHAPE BY PTC INC, 1.220',
/* authorisation */ '  ');

FILE_SCHEMA (('AP242_MANAGED_MODEL_BASED_3D_ENGINEERING_MIM_LF { 1 0 10303 442 3 1 4 }'));
ENDSEC;

DATA;
#10=SHAPE_REPRESENTATION_RELATIONSHIP('','',#315,#12);
#11=SHAPE_REPRESENTATION_RELATIONSHIP('','',#316,#13);
#12=ADVANCED_BREP_SHAPE_REPRESENTATION('',(#311),#528);
#13=ADVANCED_BREP_SHAPE_REPRESENTATION('',(#312),#529);
#14=CYLINDRICAL_SURFACE('',#322,0.0025);
#15=CYLINDRICAL_SURFACE('',#328,0.00125);
#16=CYLINDRICAL_SURFACE('',#340,0.0002);
#17=CYLINDRICAL_SURFACE('',#341,0.0002);
#18=CYLINDRICAL_SURFACE('',#342,0.0002);
#19=CYLINDRICAL_SURFACE('',#343,0.0002);
#20=LINE('',#450,#44);
#21=LINE('',#454,#45);
#22=LINE('',#467,#46);
#23=LINE('',#473,#47);
#24=LINE('',#475,#48);
#25=LINE('',#478,#49);
#26=LINE('',#479,#50);
#27=LINE('',#481,#51);
#28=LINE('',#484,#52);
#29=LINE('',#485,#53);
#30=LINE('',#494,#54);
#31=LINE('',#496,#55);
#32=LINE('',#501,#56);
#33=LINE('',#504,#57);
#34=LINE('',#506,#58);
#35=LINE('',#508,#59);
#36=LINE('',#510,#60);
#37=LINE('',#512,#61);
#38=LINE('',#514,#62);
#39=LINE('',#516,#63);
#40=LINE('',#518,#64);
#41=LINE('',#520,#65);
#42=LINE('',#522,#66);
#43=LINE('',#523,#67);
#44=VECTOR('',#359,1.);
#45=VECTOR('',#362,1.);
#46=VECTOR('',#381,1.);
#47=VECTOR('',#386,1.);
#48=VECTOR('',#389,1.);
#49=VECTOR('',#390,1.);
#50=VECTOR('',#391,1.);
#51=VECTOR('',#394,1.);
#52=VECTOR('',#395,1.);
#53=VECTOR('',#396,1.);
#54=VECTOR('',#409,1.);
#55=VECTOR('',#412,1.);
#56=VECTOR('',#421,1.);
#57=VECTOR('',#422,1.);
#58=VECTOR('',#423,1.);
#59=VECTOR('',#424,1.);
#60=VECTOR('',#427,1.);
#61=VECTOR('',#428,1.);
#62=VECTOR('',#429,1.);
#63=VECTOR('',#432,1.);
#64=VECTOR('',#433,1.);
#65=VECTOR('',#434,1.);
#66=VECTOR('',#437,1.);
#67=VECTOR('',#438,1.);
#68=ORIENTED_EDGE('',*,*,#142,.T.);
#69=ORIENTED_EDGE('',*,*,#143,.T.);
#70=ORIENTED_EDGE('',*,*,#144,.T.);
#71=ORIENTED_EDGE('',*,*,#145,.T.);
#72=ORIENTED_EDGE('',*,*,#146,.F.);
#73=ORIENTED_EDGE('',*,*,#147,.F.);
#74=ORIENTED_EDGE('',*,*,#148,.T.);
#75=ORIENTED_EDGE('',*,*,#149,.F.);
#76=ORIENTED_EDGE('',*,*,#147,.T.);
#77=ORIENTED_EDGE('',*,*,#148,.F.);
#78=ORIENTED_EDGE('',*,*,#150,.F.);
#79=ORIENTED_EDGE('',*,*,#145,.F.);
#80=ORIENTED_EDGE('',*,*,#149,.T.);
#81=ORIENTED_EDGE('',*,*,#151,.T.);
#82=ORIENTED_EDGE('',*,*,#152,.T.);
#83=ORIENTED_EDGE('',*,*,#153,.T.);
#84=ORIENTED_EDGE('',*,*,#154,.F.);
#85=ORIENTED_EDGE('',*,*,#150,.T.);
#86=ORIENTED_EDGE('',*,*,#155,.T.);
#87=ORIENTED_EDGE('',*,*,#156,.T.);
#88=ORIENTED_EDGE('',*,*,#151,.F.);
#89=ORIENTED_EDGE('',*,*,#144,.F.);
#90=ORIENTED_EDGE('',*,*,#157,.T.);
#91=ORIENTED_EDGE('',*,*,#158,.F.);
#92=ORIENTED_EDGE('',*,*,#159,.T.);
#93=ORIENTED_EDGE('',*,*,#146,.T.);
#94=ORIENTED_EDGE('',*,*,#154,.T.);
#95=ORIENTED_EDGE('',*,*,#160,.T.);
#96=ORIENTED_EDGE('',*,*,#161,.T.);
#97=ORIENTED_EDGE('',*,*,#162,.T.);
#98=ORIENTED_EDGE('',*,*,#155,.F.);
#99=ORIENTED_EDGE('',*,*,#163,.T.);
#100=ORIENTED_EDGE('',*,*,#164,.T.);
#101=ORIENTED_EDGE('',*,*,#158,.T.);
#102=ORIENTED_EDGE('',*,*,#164,.F.);
#103=ORIENTED_EDGE('',*,*,#165,.T.);
#104=ORIENTED_EDGE('',*,*,#142,.F.);
#105=ORIENTED_EDGE('',*,*,#159,.F.);
#106=ORIENTED_EDGE('',*,*,#153,.F.);
#107=ORIENTED_EDGE('',*,*,#166,.T.);
#108=ORIENTED_EDGE('',*,*,#161,.F.);
#109=ORIENTED_EDGE('',*,*,#160,.F.);
#110=ORIENTED_EDGE('',*,*,#162,.F.);
#111=ORIENTED_EDGE('',*,*,#166,.F.);
#112=ORIENTED_EDGE('',*,*,#152,.F.);
#113=ORIENTED_EDGE('',*,*,#156,.F.);
#114=ORIENTED_EDGE('',*,*,#163,.F.);
#115=ORIENTED_EDGE('',*,*,#157,.F.);
#116=ORIENTED_EDGE('',*,*,#143,.F.);
#117=ORIENTED_EDGE('',*,*,#165,.F.);
#118=ORIENTED_EDGE('',*,*,#167,.F.);
#119=ORIENTED_EDGE('',*,*,#168,.F.);
#120=ORIENTED_EDGE('',*,*,#169,.T.);
#121=ORIENTED_EDGE('',*,*,#170,.T.);
#122=ORIENTED_EDGE('',*,*,#171,.T.);
#123=ORIENTED_EDGE('',*,*,#172,.F.);
#124=ORIENTED_EDGE('',*,*,#173,.F.);
#125=ORIENTED_EDGE('',*,*,#168,.T.);
#126=ORIENTED_EDGE('',*,*,#174,.T.);
#127=ORIENTED_EDGE('',*,*,#175,.F.);
#128=ORIENTED_EDGE('',*,*,#176,.F.);
#129=ORIENTED_EDGE('',*,*,#172,.T.);
#130=ORIENTED_EDGE('',*,*,#177,.F.);
#131=ORIENTED_EDGE('',*,*,#170,.F.);
#132=ORIENTED_EDGE('',*,*,#178,.T.);
#133=ORIENTED_EDGE('',*,*,#175,.T.);
#134=ORIENTED_EDGE('',*,*,#169,.F.);
#135=ORIENTED_EDGE('',*,*,#173,.T.);
#136=ORIENTED_EDGE('',*,*,#176,.T.);
#137=ORIENTED_EDGE('',*,*,#178,.F.);
#138=ORIENTED_EDGE('',*,*,#167,.T.);
#139=ORIENTED_EDGE('',*,*,#177,.T.);
#140=ORIENTED_EDGE('',*,*,#174,.F.);
#141=ORIENTED_EDGE('',*,*,#171,.F.);
#142=EDGE_CURVE('',#179,#180,#204,.F.);
#143=EDGE_CURVE('',#180,#181,#205,.F.);
#144=EDGE_CURVE('',#181,#182,#20,.T.);
#145=EDGE_CURVE('',#182,#183,#206,.T.);
#146=EDGE_CURVE('',#179,#183,#21,.T.);
#147=EDGE_CURVE('',#184,#184,#207,.T.);
#148=EDGE_CURVE('',#185,#185,#208,.T.);
#149=EDGE_CURVE('',#186,#186,#209,.T.);
#150=EDGE_CURVE('',#183,#182,#210,.T.);
#151=EDGE_CURVE('',#182,#187,#22,.T.);
#152=EDGE_CURVE('',#187,#188,#211,.F.);
#153=EDGE_CURVE('',#188,#189,#212,.F.);
#154=EDGE_CURVE('',#183,#189,#23,.T.);
#155=EDGE_CURVE('',#190,#191,#24,.T.);
#156=EDGE_CURVE('',#191,#187,#25,.T.);
#157=EDGE_CURVE('',#181,#190,#26,.F.);
#158=EDGE_CURVE('',#192,#193,#27,.T.);
#159=EDGE_CURVE('',#192,#179,#28,.T.);
#160=EDGE_CURVE('',#189,#193,#29,.F.);
#161=EDGE_CURVE('',#193,#194,#213,.T.);
#162=EDGE_CURVE('',#194,#191,#214,.T.);
#163=EDGE_CURVE('',#190,#195,#215,.T.);
#164=EDGE_CURVE('',#195,#192,#216,.T.);
#165=EDGE_CURVE('',#195,#180,#30,.F.);
#166=EDGE_CURVE('',#188,#194,#31,.F.);
#167=EDGE_CURVE('',#196,#197,#32,.T.);
#168=EDGE_CURVE('',#198,#196,#33,.T.);
#169=EDGE_CURVE('',#198,#199,#34,.T.);
#170=EDGE_CURVE('',#199,#197,#35,.T.);
#171=EDGE_CURVE('',#196,#200,#36,.T.);
#172=EDGE_CURVE('',#201,#200,#37,.T.);
#173=EDGE_CURVE('',#198,#201,#38,.T.);
#174=EDGE_CURVE('',#200,#202,#39,.T.);
#175=EDGE_CURVE('',#203,#202,#40,.T.);
#176=EDGE_CURVE('',#201,#203,#41,.T.);
#177=EDGE_CURVE('',#197,#202,#42,.T.);
#178=EDGE_CURVE('',#199,#203,#43,.T.);
#179=VERTEX_POINT('',#446);
#180=VERTEX_POINT('',#447);
#181=VERTEX_POINT('',#449);
#182=VERTEX_POINT('',#451);
#183=VERTEX_POINT('',#453);
#184=VERTEX_POINT('',#457);
#185=VERTEX_POINT('',#459);
#186=VERTEX_POINT('',#462);
#187=VERTEX_POINT('',#468);
#188=VERTEX_POINT('',#470);
#189=VERTEX_POINT('',#472);
#190=VERTEX_POINT('',#476);
#191=VERTEX_POINT('',#477);
#192=VERTEX_POINT('',#482);
#193=VERTEX_POINT('',#483);
#194=VERTEX_POINT('',#488);
#195=VERTEX_POINT('',#491);
#196=VERTEX_POINT('',#502);
#197=VERTEX_POINT('',#503);
#198=VERTEX_POINT('',#505);
#199=VERTEX_POINT('',#507);
#200=VERTEX_POINT('',#511);
#201=VERTEX_POINT('',#513);
#202=VERTEX_POINT('',#517);
#203=VERTEX_POINT('',#519);
#204=CIRCLE('',#319,0.0002);
#205=CIRCLE('',#320,0.0002);
#206=CIRCLE('',#321,0.00125);
#207=CIRCLE('',#323,0.0025);
#208=CIRCLE('',#324,0.0025);
#209=CIRCLE('',#326,0.00125);
#210=CIRCLE('',#329,0.00125);
#211=CIRCLE('',#331,0.0002);
#212=CIRCLE('',#332,0.0002);
#213=CIRCLE('',#336,0.0002);
#214=CIRCLE('',#337,0.0002);
#215=CIRCLE('',#338,0.0002);
#216=CIRCLE('',#339,0.0002);
#217=EDGE_LOOP('',(#68,#69,#70,#71,#72));
#218=EDGE_LOOP('',(#73));
#219=EDGE_LOOP('',(#74));
#220=EDGE_LOOP('',(#75));
#221=EDGE_LOOP('',(#76));
#222=EDGE_LOOP('',(#77));
#223=EDGE_LOOP('',(#78,#79));
#224=EDGE_LOOP('',(#80));
#225=EDGE_LOOP('',(#81,#82,#83,#84,#85));
#226=EDGE_LOOP('',(#86,#87,#88,#89,#90));
#227=EDGE_LOOP('',(#91,#92,#93,#94,#95));
#228=EDGE_LOOP('',(#96,#97,#98,#99,#100,#101));
#229=EDGE_LOOP('',(#102,#103,#104,#105));
#230=EDGE_LOOP('',(#106,#107,#108,#109));
#231=EDGE_LOOP('',(#110,#111,#112,#113));
#232=EDGE_LOOP('',(#114,#115,#116,#117));
#233=EDGE_LOOP('',(#118,#119,#120,#121));
#234=EDGE_LOOP('',(#122,#123,#124,#125));
#235=EDGE_LOOP('',(#126,#127,#128,#129));
#236=EDGE_LOOP('',(#130,#131,#132,#133));
#237=EDGE_LOOP('',(#134,#135,#136,#137));
#238=EDGE_LOOP('',(#138,#139,#140,#141));
#239=FACE_BOUND('',#217,.T.);
#240=FACE_BOUND('',#218,.T.);
#241=FACE_BOUND('',#219,.T.);
#242=FACE_BOUND('',#220,.T.);
#243=FACE_BOUND('',#221,.T.);
#244=FACE_BOUND('',#222,.T.);
#245=FACE_BOUND('',#223,.T.);
#246=FACE_BOUND('',#224,.T.);
#247=FACE_BOUND('',#225,.T.);
#248=FACE_BOUND('',#226,.T.);
#249=FACE_BOUND('',#227,.T.);
#250=FACE_BOUND('',#228,.T.);
#251=FACE_BOUND('',#229,.T.);
#252=FACE_BOUND('',#230,.T.);
#253=FACE_BOUND('',#231,.T.);
#254=FACE_BOUND('',#232,.T.);
#255=FACE_BOUND('',#233,.T.);
#256=FACE_BOUND('',#234,.T.);
#257=FACE_BOUND('',#235,.T.);
#258=FACE_BOUND('',#236,.T.);
#259=FACE_BOUND('',#237,.T.);
#260=FACE_BOUND('',#238,.T.);
#261=PLANE('',#318);
#262=PLANE('',#325);
#263=PLANE('',#327);
#264=PLANE('',#330);
#265=PLANE('',#333);
#266=PLANE('',#334);
#267=PLANE('',#335);
#268=PLANE('',#345);
#269=PLANE('',#346);
#270=PLANE('',#347);
#271=PLANE('',#348);
#272=PLANE('',#349);
#273=PLANE('',#350);
#274=ADVANCED_FACE('',(#239),#261,.T.);
#275=ADVANCED_FACE('',(#240,#241),#14,.T.);
#276=ADVANCED_FACE('',(#242,#243),#262,.T.);
#277=ADVANCED_FACE('',(#244),#263,.F.);
#278=ADVANCED_FACE('',(#245,#246),#15,.T.);
#279=ADVANCED_FACE('',(#247),#264,.F.);
#280=ADVANCED_FACE('',(#248),#265,.T.);
#281=ADVANCED_FACE('',(#249),#266,.F.);
#282=ADVANCED_FACE('',(#250),#267,.T.);
#283=ADVANCED_FACE('',(#251),#16,.T.);
#284=ADVANCED_FACE('',(#252),#17,.T.);
#285=ADVANCED_FACE('',(#253),#18,.T.);
#286=ADVANCED_FACE('',(#254),#19,.T.);
#287=ADVANCED_FACE('',(#255),#268,.T.);
#288=ADVANCED_FACE('',(#256),#269,.F.);
#289=ADVANCED_FACE('',(#257),#270,.F.);
#290=ADVANCED_FACE('',(#258),#271,.T.);
#291=ADVANCED_FACE('',(#259),#272,.T.);
#292=ADVANCED_FACE('',(#260),#273,.F.);
#293=CLOSED_SHELL('',(#274,#275,#276,#277,#278,#279,#280,#281,#282,#283,
#284,#285,#286));
#294=CLOSED_SHELL('',(#287,#288,#289,#290,#291,#292));
#295=STYLED_ITEM('',(#297),#311);
#296=STYLED_ITEM('',(#298),#312);
#297=PRESENTATION_STYLE_ASSIGNMENT((#299));
#298=PRESENTATION_STYLE_ASSIGNMENT((#300));
#299=SURFACE_STYLE_USAGE(.BOTH.,#301);
#300=SURFACE_STYLE_USAGE(.BOTH.,#302);
#301=SURFACE_SIDE_STYLE('',(#303));
#302=SURFACE_SIDE_STYLE('',(#304));
#303=SURFACE_STYLE_FILL_AREA(#305);
#304=SURFACE_STYLE_FILL_AREA(#306);
#305=FILL_AREA_STYLE('',(#307));
#306=FILL_AREA_STYLE('',(#308));
#307=FILL_AREA_STYLE_COLOUR('',#309);
#308=FILL_AREA_STYLE_COLOUR('',#310);
#309=COLOUR_RGB('',0.647058823529412,0.647058823529412,0.647058823529412);
#310=COLOUR_RGB('',0.576470588235294,0.388235294117647,0.172549019607843);
#311=MANIFOLD_SOLID_BREP('Part 2',#293);
#312=MANIFOLD_SOLID_BREP('Part 1',#294);
#313=SHAPE_DEFINITION_REPRESENTATION(#538,#315);
#314=SHAPE_DEFINITION_REPRESENTATION(#539,#316);
#315=SHAPE_REPRESENTATION('Part 2',(#317),#528);
#316=SHAPE_REPRESENTATION('Part 1',(#344),#529);
#317=AXIS2_PLACEMENT_3D('',#443,#351,#352);
#318=AXIS2_PLACEMENT_3D('',#444,#353,#354);
#319=AXIS2_PLACEMENT_3D('',#445,#355,#356);
#320=AXIS2_PLACEMENT_3D('',#448,#357,#358);
#321=AXIS2_PLACEMENT_3D('',#452,#360,#361);
#322=AXIS2_PLACEMENT_3D('',#455,#363,#364);
#323=AXIS2_PLACEMENT_3D('',#456,#365,#366);
#324=AXIS2_PLACEMENT_3D('',#458,#367,#368);
#325=AXIS2_PLACEMENT_3D('',#460,#369,#370);
#326=AXIS2_PLACEMENT_3D('',#461,#371,#372);
#327=AXIS2_PLACEMENT_3D('',#463,#373,#374);
#328=AXIS2_PLACEMENT_3D('',#464,#375,#376);
#329=AXIS2_PLACEMENT_3D('',#465,#377,#378);
#330=AXIS2_PLACEMENT_3D('',#466,#379,#380);
#331=AXIS2_PLACEMENT_3D('',#469,#382,#383);
#332=AXIS2_PLACEMENT_3D('',#471,#384,#385);
#333=AXIS2_PLACEMENT_3D('',#474,#387,#388);
#334=AXIS2_PLACEMENT_3D('',#480,#392,#393);
#335=AXIS2_PLACEMENT_3D('',#486,#397,#398);
#336=AXIS2_PLACEMENT_3D('',#487,#399,#400);
#337=AXIS2_PLACEMENT_3D('',#489,#401,#402);
#338=AXIS2_PLACEMENT_3D('',#490,#403,#404);
#339=AXIS2_PLACEMENT_3D('',#492,#405,#406);
#340=AXIS2_PLACEMENT_3D('',#493,#407,#408);
#341=AXIS2_PLACEMENT_3D('',#495,#410,#411);
#342=AXIS2_PLACEMENT_3D('',#497,#413,#414);
#343=AXIS2_PLACEMENT_3D('',#498,#415,#416);
#344=AXIS2_PLACEMENT_3D('',#499,#417,#418);
#345=AXIS2_PLACEMENT_3D('',#500,#419,#420);
#346=AXIS2_PLACEMENT_3D('',#509,#425,#426);
#347=AXIS2_PLACEMENT_3D('',#515,#430,#431);
#348=AXIS2_PLACEMENT_3D('',#521,#435,#436);
#349=AXIS2_PLACEMENT_3D('',#524,#439,#440);
#350=AXIS2_PLACEMENT_3D('',#525,#441,#442);
#351=DIRECTION('',(0.,0.,1.));
#352=DIRECTION('',(1.,0.,0.));
#353=DIRECTION('',(0.,0.,1.));
#354=DIRECTION('',(1.,0.,0.));
#355=DIRECTION('',(0.,0.,1.));
#356=DIRECTION('',(1.,0.,0.));
#357=DIRECTION('',(0.,0.,1.));
#358=DIRECTION('',(1.,0.,0.));
#359=DIRECTION('',(-1.,0.,0.));
#360=DIRECTION('',(0.,0.,1.));
#361=DIRECTION('',(1.,0.,0.));
#362=DIRECTION('',(-1.,-1.35525271560688E-16,0.));
#363=DIRECTION('',(0.,0.,-1.));
#364=DIRECTION('',(-1.,0.,0.));
#365=DIRECTION('',(0.,0.,1.));
#366=DIRECTION('',(1.,0.,0.));
#367=DIRECTION('',(0.,0.,1.));
#368=DIRECTION('',(1.,0.,0.));
#369=DIRECTION('',(0.,0.,1.));
#370=DIRECTION('',(1.,0.,0.));
#371=DIRECTION('',(0.,0.,1.));
#372=DIRECTION('',(1.,0.,0.));
#373=DIRECTION('',(0.,0.,1.));
#374=DIRECTION('',(1.,0.,0.));
#375=DIRECTION('',(0.,0.,-1.));
#376=DIRECTION('',(-1.,0.,0.));
#377=DIRECTION('',(0.,0.,1.));
#378=DIRECTION('',(1.,0.,0.));
#379=DIRECTION('',(0.,0.,1.));
#380=DIRECTION('',(1.,0.,0.));
#381=DIRECTION('',(-1.,0.,0.));
#382=DIRECTION('',(0.,0.,1.));
#383=DIRECTION('',(1.,0.,0.));
#384=DIRECTION('',(0.,0.,1.));
#385=DIRECTION('',(1.,0.,0.));
#386=DIRECTION('',(-1.,-1.35525271560688E-16,0.));
#387=DIRECTION('',(0.,-1.,0.));
#388=DIRECTION('',(0.,0.,-1.));
#389=DIRECTION('',(-1.,0.,0.));
#390=DIRECTION('',(0.,0.,-1.));
#391=DIRECTION('',(0.,0.,-1.));
#392=DIRECTION('',(1.35525271560688E-16,-1.,0.));
#393=DIRECTION('',(1.,1.35525271560688E-16,0.));
#394=DIRECTION('',(-1.,-1.35525271560688E-16,0.));
#395=DIRECTION('',(0.,0.,-1.));
#396=DIRECTION('',(0.,0.,-1.));
#397=DIRECTION('',(0.,0.,1.));
#398=DIRECTION('',(1.,0.,0.));
#399=DIRECTION('',(0.,0.,1.));
#400=DIRECTION('',(1.,0.,0.));
#401=DIRECTION('',(0.,0.,1.));
#402=DIRECTION('',(1.,0.,0.));
#403=DIRECTION('',(0.,0.,1.));
#404=DIRECTION('',(1.,0.,0.));
#405=DIRECTION('',(0.,0.,1.));
#406=DIRECTION('',(1.,0.,0.));
#407=DIRECTION('',(0.,0.,-1.));
#408=DIRECTION('',(-1.,0.,0.));
#409=DIRECTION('',(0.,0.,1.));
#410=DIRECTION('',(0.,0.,1.));
#411=DIRECTION('',(1.,0.,0.));
#412=DIRECTION('',(0.,0.,-1.));
#413=DIRECTION('',(0.,0.,-1.));
#414=DIRECTION('',(-1.,0.,0.));
#415=DIRECTION('',(0.,0.,1.));
#416=DIRECTION('',(1.,0.,0.));
#417=DIRECTION('',(0.,0.,1.));
#418=DIRECTION('',(1.,0.,0.));
#419=DIRECTION('',(0.,-1.,0.));
#420=DIRECTION('',(0.,0.,-1.));
#421=DIRECTION('',(-1.,0.,0.));
#422=DIRECTION('',(0.,0.,-1.));
#423=DIRECTION('',(-1.,0.,0.));
#424=DIRECTION('',(0.,0.,-1.));
#425=DIRECTION('',(-1.,4.95635278850516E-17,0.));
#426=DIRECTION('',(-4.95635278850516E-17,-1.,0.));
#427=DIRECTION('',(4.95635278850516E-17,1.,0.));
#428=DIRECTION('',(0.,0.,-1.));
#429=DIRECTION('',(4.95635278850516E-17,1.,0.));
#430=DIRECTION('',(0.,-1.,0.));
#431=DIRECTION('',(0.,0.,-1.));
#432=DIRECTION('',(-1.,0.,0.));
#433=DIRECTION('',(0.,0.,-1.));
#434=DIRECTION('',(-1.,0.,0.));
#435=DIRECTION('',(-1.,4.95635278850516E-17,0.));
#436=DIRECTION('',(-4.95635278850516E-17,-1.,0.));
#437=DIRECTION('',(4.95635278850516E-17,1.,0.));
#438=DIRECTION('',(4.95635278850516E-17,1.,0.));
#439=DIRECTION('',(0.,0.,1.));
#440=DIRECTION('',(1.,0.,0.));
#441=DIRECTION('',(0.,0.,1.));
#442=DIRECTION('',(1.,0.,0.));
#443=CARTESIAN_POINT('',(0.,0.,0.));
#444=CARTESIAN_POINT('',(0.015,6.93889390390723E-18,0.0045));
#445=CARTESIAN_POINT('',(0.0148,0.0001,0.0045));
#446=CARTESIAN_POINT('',(0.0148,0.0003,0.0045));
#447=CARTESIAN_POINT('',(0.0149936491673104,0.000149999999999904,0.0045));
#448=CARTESIAN_POINT('',(0.0148,0.000200000000000007,0.0045));
#449=CARTESIAN_POINT('',(0.0148,7.16851517874736E-18,0.0045));
#450=CARTESIAN_POINT('',(0.013,7.16851517874736E-18,0.0045));
#451=CARTESIAN_POINT('',(0.01375,7.16851517874736E-18,0.0045));
#452=CARTESIAN_POINT('',(0.015,7.16851517874736E-18,0.0045));
#453=CARTESIAN_POINT('',(0.0137865338900488,0.0003,0.0045));
#454=CARTESIAN_POINT('',(0.013,0.0003,0.0045));
#455=CARTESIAN_POINT('',(0.015,7.09197475380065E-18,0.003));
#456=CARTESIAN_POINT('',(0.015,7.09197475380065E-18,0.003));
#457=CARTESIAN_POINT('',(0.0175,7.09197475380065E-18,0.003));
#458=CARTESIAN_POINT('',(0.015,7.09197475380065E-18,0.002));
#459=CARTESIAN_POINT('',(0.0175,7.09197475380065E-18,0.002));
#460=CARTESIAN_POINT('',(0.,0.,0.003));
#461=CARTESIAN_POINT('',(0.015,7.16851517874736E-18,0.003));
#462=CARTESIAN_POINT('',(0.01625,7.16851517874736E-18,0.003));
#463=CARTESIAN_POINT('',(0.,0.,0.002));
#464=CARTESIAN_POINT('',(0.015,7.16851517874736E-18,0.0045));
#465=CARTESIAN_POINT('',(0.015,7.16851517874736E-18,0.0045));
#466=CARTESIAN_POINT('',(0.013625,7.80625564189563E-18,0.0045));
#467=CARTESIAN_POINT('',(0.013,7.16851517874736E-18,0.0045));
#468=CARTESIAN_POINT('',(0.0112,7.16851517874736E-18,0.0045));
#469=CARTESIAN_POINT('',(0.0112,0.000200000000000007,0.0045));
#470=CARTESIAN_POINT('',(0.0110063508326896,0.000150000000000003,0.0045));
#471=CARTESIAN_POINT('',(0.0112,0.0001,0.0045));
#472=CARTESIAN_POINT('',(0.0112,0.0003,0.0045));
#473=CARTESIAN_POINT('',(0.013,0.0003,0.0045));
#474=CARTESIAN_POINT('',(0.013,7.16851517874736E-18,0.005));
#475=CARTESIAN_POINT('',(0.013,7.16851517874736E-18,0.005));
#476=CARTESIAN_POINT('',(0.0148,7.16851517874736E-18,0.005));
#477=CARTESIAN_POINT('',(0.0112,7.16851517874736E-18,0.005));
#478=CARTESIAN_POINT('',(0.0112,7.16851517874736E-18,0.005));
#479=CARTESIAN_POINT('',(0.0148,7.16851517874736E-18,0.005));
#480=CARTESIAN_POINT('',(0.013,0.0003,0.005));
#481=CARTESIAN_POINT('',(0.013,0.0003,0.005));
#482=CARTESIAN_POINT('',(0.0148,0.0003,0.005));
#483=CARTESIAN_POINT('',(0.0112,0.0003,0.005));
#484=CARTESIAN_POINT('',(0.0148,0.0003,0.005));
#485=CARTESIAN_POINT('',(0.0112,0.0003,0.005));
#486=CARTESIAN_POINT('',(0.013625,7.80625564189563E-18,0.005));
#487=CARTESIAN_POINT('',(0.0112,0.0001,0.005));
#488=CARTESIAN_POINT('',(0.0110063508326896,0.000150000000000003,0.005));
#489=CARTESIAN_POINT('',(0.0112,0.000200000000000007,0.005));
#490=CARTESIAN_POINT('',(0.0148,0.000200000000000007,0.005));
#491=CARTESIAN_POINT('',(0.0149936491673104,0.000150000000000004,0.005));
#492=CARTESIAN_POINT('',(0.0148,0.0001,0.005));
#493=CARTESIAN_POINT('',(0.0148,0.0001,0.005));
#494=CARTESIAN_POINT('',(0.0149936491673104,0.000150000000000003,0.00475));
#495=CARTESIAN_POINT('',(0.0112,0.0001,0.005));
#496=CARTESIAN_POINT('',(0.0110063508326896,0.000150000000000003,0.00475));
#497=CARTESIAN_POINT('',(0.0112,0.000200000000000007,0.005));
#498=CARTESIAN_POINT('',(0.0148,0.000200000000000007,0.005));
#499=CARTESIAN_POINT('',(0.,0.,0.));
#500=CARTESIAN_POINT('',(0.,-0.035,0.002));
#501=CARTESIAN_POINT('',(0.,-0.035,0.));
#502=CARTESIAN_POINT('',(0.02,-0.035,0.));
#503=CARTESIAN_POINT('',(-0.02,-0.035,0.));
#504=CARTESIAN_POINT('',(0.02,-0.035,0.002));
#505=CARTESIAN_POINT('',(0.02,-0.035,0.002));
#506=CARTESIAN_POINT('',(0.,-0.035,0.002));
#507=CARTESIAN_POINT('',(-0.02,-0.035,0.002));
#508=CARTESIAN_POINT('',(-0.02,-0.035,0.002));
#509=CARTESIAN_POINT('',(0.02,0.,0.002));
#510=CARTESIAN_POINT('',(0.02,0.,0.));
#511=CARTESIAN_POINT('',(0.02,0.035,0.));
#512=CARTESIAN_POINT('',(0.02,0.035,0.002));
#513=CARTESIAN_POINT('',(0.02,0.035,0.002));
#514=CARTESIAN_POINT('',(0.02,0.,0.002));
#515=CARTESIAN_POINT('',(3.46944695195361E-18,0.035,0.002));
#516=CARTESIAN_POINT('',(3.46944695195361E-18,0.035,0.));
#517=CARTESIAN_POINT('',(-0.02,0.035,0.));
#518=CARTESIAN_POINT('',(-0.02,0.035,0.002));
#519=CARTESIAN_POINT('',(-0.02,0.035,0.002));
#520=CARTESIAN_POINT('',(3.46944695195361E-18,0.035,0.002));
#521=CARTESIAN_POINT('',(-0.02,0.,0.002));
#522=CARTESIAN_POINT('',(-0.02,0.,0.));
#523=CARTESIAN_POINT('',(-0.02,0.,0.002));
#524=CARTESIAN_POINT('',(0.,0.,0.002));
#525=CARTESIAN_POINT('',(0.,0.,0.));
#526=MECHANICAL_DESIGN_GEOMETRIC_PRESENTATION_REPRESENTATION('',(#295),
#528);
#527=MECHANICAL_DESIGN_GEOMETRIC_PRESENTATION_REPRESENTATION('',(#296),
#529);
#528=(
GEOMETRIC_REPRESENTATION_CONTEXT(3)
GLOBAL_UNCERTAINTY_ASSIGNED_CONTEXT((#530))
GLOBAL_UNIT_ASSIGNED_CONTEXT((#536,#534,#532))
REPRESENTATION_CONTEXT('Part 2','TOP_LEVEL_ASSEMBLY_PART')
);
#529=(
GEOMETRIC_REPRESENTATION_CONTEXT(3)
GLOBAL_UNCERTAINTY_ASSIGNED_CONTEXT((#531))
GLOBAL_UNIT_ASSIGNED_CONTEXT((#537,#535,#533))
REPRESENTATION_CONTEXT('Part 1','TOP_LEVEL_ASSEMBLY_PART')
);
#530=UNCERTAINTY_MEASURE_WITH_UNIT(LENGTH_MEASURE(1.E-8),#536,
'DISTANCE_ACCURACY_VALUE','Maximum Tolerance applied to model');
#531=UNCERTAINTY_MEASURE_WITH_UNIT(LENGTH_MEASURE(1.E-8),#537,
'DISTANCE_ACCURACY_VALUE','Maximum Tolerance applied to model');
#532=(
NAMED_UNIT(*)
SI_UNIT($,.STERADIAN.)
SOLID_ANGLE_UNIT()
);
#533=(
NAMED_UNIT(*)
SI_UNIT($,.STERADIAN.)
SOLID_ANGLE_UNIT()
);
#534=(
NAMED_UNIT(*)
PLANE_ANGLE_UNIT()
SI_UNIT($,.RADIAN.)
);
#535=(
NAMED_UNIT(*)
PLANE_ANGLE_UNIT()
SI_UNIT($,.RADIAN.)
);
#536=(
LENGTH_UNIT()
NAMED_UNIT(*)
SI_UNIT($,.METRE.)
);
#537=(
LENGTH_UNIT()
NAMED_UNIT(*)
SI_UNIT($,.METRE.)
);
#538=PRODUCT_DEFINITION_SHAPE('','',#540);
#539=PRODUCT_DEFINITION_SHAPE('','',#541);
#540=PRODUCT_DEFINITION('','',#544,#542);
#541=PRODUCT_DEFINITION('','',#545,#543);
#542=PRODUCT_DEFINITION_CONTEXT('',#556,'design');
#543=PRODUCT_DEFINITION_CONTEXT('',#557,'design');
#544=PRODUCT_DEFINITION_FORMATION_WITH_SPECIFIED_SOURCE('','',#548,
 .NOT_KNOWN.);
#545=PRODUCT_DEFINITION_FORMATION_WITH_SPECIFIED_SOURCE('','',#549,
 .NOT_KNOWN.);
#546=PRODUCT_RELATED_PRODUCT_CATEGORY('','',(#548));
#547=PRODUCT_RELATED_PRODUCT_CATEGORY('','',(#549));
#548=PRODUCT('Part 2','Part 2','Part 2',(#552));
#549=PRODUCT('Part 1','Part 1','Part 1',(#553));
#550=PRODUCT_CATEGORY('','');
#551=PRODUCT_CATEGORY('','');
#552=PRODUCT_CONTEXT('',#556,'mechanical');
#553=PRODUCT_CONTEXT('',#557,'mechanical');
#554=APPLICATION_PROTOCOL_DEFINITION('international standard',
'ap242_managed_model_based_3d_engineering',2020,#556);
#555=APPLICATION_PROTOCOL_DEFINITION('international standard',
'ap242_managed_model_based_3d_engineering',2020,#557);
#556=APPLICATION_CONTEXT('managed model based 3d engineering');
#557=APPLICATION_CONTEXT('managed model based 3d engineering');
ENDSEC;
END-ISO-10303-21;
