ISO-10303-21;
HEADER;
/* Generated by software containing ST-Developer
 * from STEP Tools, Inc. (www.steptools.com) 
 */
/* OPTION: using custom renumber hook */

FILE_DESCRIPTION(
/* description */ ('STEP AP242 Edition 2',
'CAx-IF Rec.Pracs.---Representation and Presentation of Product Manufa
cturing Information (PMI)---4.0---2014-10-13',
'CAx-IF Rec.Pracs.---3D Tessellated Geometry---0.4---2014-09-14','2;1',
'CAx-IF Rec.Pracs.---User Defined Attributes---1.5---2016-08-15'),
/* implementation_level */ '2;1');

FILE_NAME(
/* name */ 'FullCake',
/* time_stamp */ '2026-09-07T05:40:37Z',
/* author */ (''),
/* organization */ (''),
/* preprocessor_version */ 'ST-DEVELOPER v20',
/* originating_system */ 'ONSHAPE BY PTC INC, 1.220',
/* authorisation */ '  ');

FILE_SCHEMA (('AP242_MANAGED_MODEL_BASED_3D_ENGINEERING_MIM_LF { 1 0 10303 442 3 1 4 }'));
ENDSEC;

DATA;
#10=SHAPE_REPRESENTATION_RELATIONSHIP('','',#142,#11);
#11=ADVANCED_BREP_SHAPE_REPRESENTATION('',(#140),#206);
#12=TOROIDAL_SURFACE('',#152,0.00951715728752538,0.000482842712474619);
#13=TOROIDAL_SURFACE('',#153,0.00951715728752538,0.000482842712474619);
#14=PLANE('',#147);
#15=PLANE('',#150);
#16=PLANE('',#156);
#17=ORIENTED_EDGE('',*,*,#29,.T.);
#18=ORIENTED_EDGE('',*,*,#30,.T.);
#19=ORIENTED_EDGE('',*,*,#31,.F.);
#20=ORIENTED_EDGE('',*,*,#32,.T.);
#21=ORIENTED_EDGE('',*,*,#33,.T.);
#22=ORIENTED_EDGE('',*,*,#29,.F.);
#23=ORIENTED_EDGE('',*,*,#32,.F.);
#24=ORIENTED_EDGE('',*,*,#33,.F.);
#25=ORIENTED_EDGE('',*,*,#30,.F.);
#26=ORIENTED_EDGE('',*,*,#34,.F.);
#27=ORIENTED_EDGE('',*,*,#31,.T.);
#28=ORIENTED_EDGE('',*,*,#34,.T.);
#29=EDGE_CURVE('',#35,#35,#41,.F.);
#30=EDGE_CURVE('',#36,#36,#42,.T.);
#31=EDGE_CURVE('',#37,#37,#43,.T.);
#32=EDGE_CURVE('',#38,#38,#44,.T.);
#33=EDGE_CURVE('',#39,#39,#45,.F.);
#34=EDGE_CURVE('',#40,#40,#46,.T.);
#35=VERTEX_POINT('',#188);
#36=VERTEX_POINT('',#190);
#37=VERTEX_POINT('',#193);
#38=VERTEX_POINT('',#195);
#39=VERTEX_POINT('',#198);
#40=VERTEX_POINT('',#203);
#41=CIRCLE('',#145,0.01);
#42=CIRCLE('',#146,0.01);
#43=CIRCLE('',#148,0.0075);
#44=CIRCLE('',#149,0.00951715728752538);
#45=CIRCLE('',#151,0.00951715728752538);
#46=CIRCLE('',#155,0.0075);
#47=EDGE_LOOP('',(#17));
#48=EDGE_LOOP('',(#18));
#49=EDGE_LOOP('',(#19));
#50=EDGE_LOOP('',(#20));
#51=EDGE_LOOP('',(#21));
#52=EDGE_LOOP('',(#22));
#53=EDGE_LOOP('',(#23));
#54=EDGE_LOOP('',(#24));
#55=EDGE_LOOP('',(#25));
#56=EDGE_LOOP('',(#26));
#57=EDGE_LOOP('',(#27));
#58=EDGE_LOOP('',(#28));
#59=FACE_BOUND('',#47,.T.);
#60=FACE_BOUND('',#48,.T.);
#61=FACE_BOUND('',#49,.T.);
#62=FACE_BOUND('',#50,.T.);
#63=FACE_BOUND('',#51,.T.);
#64=FACE_BOUND('',#52,.T.);
#65=FACE_BOUND('',#53,.T.);
#66=FACE_BOUND('',#54,.T.);
#67=FACE_BOUND('',#55,.T.);
#68=FACE_BOUND('',#56,.T.);
#69=FACE_BOUND('',#57,.T.);
#70=FACE_BOUND('',#58,.T.);
#71=CYLINDRICAL_SURFACE('',#144,0.01);
#72=CYLINDRICAL_SURFACE('',#154,0.0075);
#73=OVER_RIDING_STYLED_ITEM('',(#90),#80,#88);
#74=OVER_RIDING_STYLED_ITEM('',(#91),#81,#88);
#75=OVER_RIDING_STYLED_ITEM('',(#92),#82,#88);
#76=OVER_RIDING_STYLED_ITEM('',(#93),#83,#88);
#77=OVER_RIDING_STYLED_ITEM('',(#94),#84,#88);
#78=OVER_RIDING_STYLED_ITEM('',(#95),#85,#88);
#79=OVER_RIDING_STYLED_ITEM('',(#96),#86,#88);
#80=ADVANCED_FACE('Face appearance 1',(#59,#60),#71,.T.);
#81=ADVANCED_FACE('Face appearance 1',(#61,#62),#14,.T.);
#82=ADVANCED_FACE('Face appearance 1',(#63),#15,.F.);
#83=ADVANCED_FACE('Face appearance 1',(#64,#65),#12,.T.);
#84=ADVANCED_FACE('Face appearance 1',(#66,#67),#13,.T.);
#85=ADVANCED_FACE('Face appearance 2',(#68,#69),#72,.T.);
#86=ADVANCED_FACE('Face appearance 2',(#70),#16,.T.);
#87=CLOSED_SHELL('',(#80,#81,#82,#83,#84,#85,#86));
#88=STYLED_ITEM('',(#89),#140);
#89=PRESENTATION_STYLE_ASSIGNMENT((#97));
#90=PRESENTATION_STYLE_ASSIGNMENT((#98));
#91=PRESENTATION_STYLE_ASSIGNMENT((#99));
#92=PRESENTATION_STYLE_ASSIGNMENT((#100));
#93=PRESENTATION_STYLE_ASSIGNMENT((#101));
#94=PRESENTATION_STYLE_ASSIGNMENT((#102));
#95=PRESENTATION_STYLE_ASSIGNMENT((#103));
#96=PRESENTATION_STYLE_ASSIGNMENT((#104));
#97=SURFACE_STYLE_USAGE(.BOTH.,#105);
#98=SURFACE_STYLE_USAGE(.BOTH.,#106);
#99=SURFACE_STYLE_USAGE(.BOTH.,#107);
#100=SURFACE_STYLE_USAGE(.BOTH.,#108);
#101=SURFACE_STYLE_USAGE(.BOTH.,#109);
#102=SURFACE_STYLE_USAGE(.BOTH.,#110);
#103=SURFACE_STYLE_USAGE(.BOTH.,#111);
#104=SURFACE_STYLE_USAGE(.BOTH.,#112);
#105=SURFACE_SIDE_STYLE('',(#113));
#106=SURFACE_SIDE_STYLE('',(#114));
#107=SURFACE_SIDE_STYLE('',(#115));
#108=SURFACE_SIDE_STYLE('',(#116));
#109=SURFACE_SIDE_STYLE('',(#117));
#110=SURFACE_SIDE_STYLE('',(#118));
#111=SURFACE_SIDE_STYLE('',(#119));
#112=SURFACE_SIDE_STYLE('',(#120));
#113=SURFACE_STYLE_FILL_AREA(#121);
#114=SURFACE_STYLE_FILL_AREA(#122);
#115=SURFACE_STYLE_FILL_AREA(#123);
#116=SURFACE_STYLE_FILL_AREA(#124);
#117=SURFACE_STYLE_FILL_AREA(#125);
#118=SURFACE_STYLE_FILL_AREA(#126);
#119=SURFACE_STYLE_FILL_AREA(#127);
#120=SURFACE_STYLE_FILL_AREA(#128);
#121=FILL_AREA_STYLE('',(#129));
#122=FILL_AREA_STYLE('',(#130));
#123=FILL_AREA_STYLE('',(#131));
#124=FILL_AREA_STYLE('',(#132));
#125=FILL_AREA_STYLE('',(#133));
#126=FILL_AREA_STYLE('',(#134));
#127=FILL_AREA_STYLE('',(#135));
#128=FILL_AREA_STYLE('',(#136));
#129=FILL_AREA_STYLE_COLOUR('',#137);
#130=FILL_AREA_STYLE_COLOUR('',#138);
#131=FILL_AREA_STYLE_COLOUR('',#138);
#132=FILL_AREA_STYLE_COLOUR('',#138);
#133=FILL_AREA_STYLE_COLOUR('',#138);
#134=FILL_AREA_STYLE_COLOUR('',#138);
#135=FILL_AREA_STYLE_COLOUR('',#139);
#136=FILL_AREA_STYLE_COLOUR('',#139);
#137=COLOUR_RGB('',0.615686274509804,0.811764705882353,0.929411764705882);
#138=COLOUR_RGB('',0.917647058823529,0.917647058823529,0.917647058823529);
#139=COLOUR_RGB('',0.956862745098039,0.682352941176471,0.682352941176471);
#140=MANIFOLD_SOLID_BREP('Part 1',#87);
#141=SHAPE_DEFINITION_REPRESENTATION(#211,#142);
#142=SHAPE_REPRESENTATION('Part 1',(#143),#206);
#143=AXIS2_PLACEMENT_3D('',#185,#157,#158);
#144=AXIS2_PLACEMENT_3D('',#186,#159,#160);
#145=AXIS2_PLACEMENT_3D('',#187,#161,#162);
#146=AXIS2_PLACEMENT_3D('',#189,#163,#164);
#147=AXIS2_PLACEMENT_3D('',#191,#165,#166);
#148=AXIS2_PLACEMENT_3D('',#192,#167,#168);
#149=AXIS2_PLACEMENT_3D('',#194,#169,#170);
#150=AXIS2_PLACEMENT_3D('',#196,#171,#172);
#151=AXIS2_PLACEMENT_3D('',#197,#173,#174);
#152=AXIS2_PLACEMENT_3D('',#199,#175,#176);
#153=AXIS2_PLACEMENT_3D('',#200,#177,#178);
#154=AXIS2_PLACEMENT_3D('',#201,#179,#180);
#155=AXIS2_PLACEMENT_3D('',#202,#181,#182);
#156=AXIS2_PLACEMENT_3D('',#204,#183,#184);
#157=DIRECTION('',(0.,0.,1.));
#158=DIRECTION('',(1.,0.,0.));
#159=DIRECTION('',(0.,0.,-1.));
#160=DIRECTION('',(-1.,0.,0.));
#161=DIRECTION('',(0.,0.,1.));
#162=DIRECTION('',(1.,0.,0.));
#163=DIRECTION('',(0.,0.,1.));
#164=DIRECTION('',(1.,0.,0.));
#165=DIRECTION('',(0.,0.,1.));
#166=DIRECTION('',(1.,0.,0.));
#167=DIRECTION('',(0.,0.,1.));
#168=DIRECTION('',(1.,0.,0.));
#169=DIRECTION('',(0.,0.,1.));
#170=DIRECTION('',(1.,0.,0.));
#171=DIRECTION('',(0.,0.,1.));
#172=DIRECTION('',(1.,0.,0.));
#173=DIRECTION('',(0.,0.,1.));
#174=DIRECTION('',(1.,0.,0.));
#175=DIRECTION('',(0.,0.,1.));
#176=DIRECTION('',(1.,0.,0.));
#177=DIRECTION('',(0.,0.,1.));
#178=DIRECTION('',(1.,0.,0.));
#179=DIRECTION('',(0.,0.,-1.));
#180=DIRECTION('',(-1.,0.,0.));
#181=DIRECTION('',(0.,0.,1.));
#182=DIRECTION('',(1.,0.,0.));
#183=DIRECTION('',(0.,0.,1.));
#184=DIRECTION('',(1.,0.,0.));
#185=CARTESIAN_POINT('',(0.,0.,0.));
#186=CARTESIAN_POINT('',(0.,6.12323399573677E-19,0.001));
#187=CARTESIAN_POINT('',(0.,6.12323399573677E-19,0.000517157287525381));
#188=CARTESIAN_POINT('',(0.01,6.12323399573677E-19,0.000517157287525381));
#189=CARTESIAN_POINT('',(0.,6.12323399573677E-19,0.000482842712474619));
#190=CARTESIAN_POINT('',(0.01,6.12323399573677E-19,0.000482842712474619));
#191=CARTESIAN_POINT('',(0.,0.,0.001));
#192=CARTESIAN_POINT('',(0.,4.59242549680257E-19,0.001));
#193=CARTESIAN_POINT('',(0.0075,4.59242549680257E-19,0.001));
#194=CARTESIAN_POINT('',(0.,6.12323399573677E-19,0.001));
#195=CARTESIAN_POINT('',(0.00951715728752538,6.12323399573677E-19,0.001));
#196=CARTESIAN_POINT('',(0.,0.,0.));
#197=CARTESIAN_POINT('',(0.,6.12323399573677E-19,0.));
#198=CARTESIAN_POINT('',(0.00951715728752538,6.12323399573677E-19,0.));
#199=CARTESIAN_POINT('',(0.,6.12323399573677E-19,0.000517157287525381));
#200=CARTESIAN_POINT('',(0.,6.12323399573677E-19,0.000482842712474619));
#201=CARTESIAN_POINT('',(0.,4.59242549680257E-19,0.008));
#202=CARTESIAN_POINT('',(0.,4.59242549680257E-19,0.008));
#203=CARTESIAN_POINT('',(0.0075,4.59242549680257E-19,0.008));
#204=CARTESIAN_POINT('',(0.,0.,0.008));
#205=MECHANICAL_DESIGN_GEOMETRIC_PRESENTATION_REPRESENTATION('',(#88,#73,
#74,#75,#76,#77,#78,#79),#206);
#206=(
GEOMETRIC_REPRESENTATION_CONTEXT(3)
GLOBAL_UNCERTAINTY_ASSIGNED_CONTEXT((#207))
GLOBAL_UNIT_ASSIGNED_CONTEXT((#210,#209,#208))
REPRESENTATION_CONTEXT('Part 1','TOP_LEVEL_ASSEMBLY_PART')
);
#207=UNCERTAINTY_MEASURE_WITH_UNIT(LENGTH_MEASURE(1.E-8),#210,
'DISTANCE_ACCURACY_VALUE','Maximum Tolerance applied to model');
#208=(
NAMED_UNIT(*)
SI_UNIT($,.STERADIAN.)
SOLID_ANGLE_UNIT()
);
#209=(
NAMED_UNIT(*)
PLANE_ANGLE_UNIT()
SI_UNIT($,.RADIAN.)
);
#210=(
LENGTH_UNIT()
NAMED_UNIT(*)
SI_UNIT($,.METRE.)
);
#211=PRODUCT_DEFINITION_SHAPE('','',#212);
#212=PRODUCT_DEFINITION('','',#214,#213);
#213=PRODUCT_DEFINITION_CONTEXT('',#220,'design');
#214=PRODUCT_DEFINITION_FORMATION_WITH_SPECIFIED_SOURCE('','',#216,
 .NOT_KNOWN.);
#215=PRODUCT_RELATED_PRODUCT_CATEGORY('','',(#216));
#216=PRODUCT('Part 1','Part 1','Part 1',(#218));
#217=PRODUCT_CATEGORY('','');
#218=PRODUCT_CONTEXT('',#220,'mechanical');
#219=APPLICATION_PROTOCOL_DEFINITION('international standard',
'ap242_managed_model_based_3d_engineering',2020,#220);
#220=APPLICATION_CONTEXT('managed model based 3d engineering');
ENDSEC;
END-ISO-10303-21;
