ISO-10303-21;
HEADER;
/* Generated by software containing ST-Developer
 * from STEP Tools, Inc. (www.steptools.com) 
 */
/* OPTION: using custom renumber hook */

FILE_DESCRIPTION(
/* description */ ('STEP AP242 Edition 2',
'CAx-IF Rec.Pracs.---Representation and Presentation of Product Manufa
cturing Information (PMI)---4.0---2014-10-13',
'CAx-IF Rec.Pracs.---3D Tessellated Geometry---0.4---2014-09-14','2;1',
'CAx-IF Rec.Pracs.---User Defined Attributes---1.5---2016-08-15'),
/* implementation_level */ '2;1');

FILE_NAME(
/* name */ 'Lamp',
/* time_stamp */ '2026-09-07T05:40:00Z',
/* author */ (''),
/* organization */ (''),
/* preprocessor_version */ 'ST-DEVELOPER v20',
/* originating_system */ 'ONSHAPE BY PTC INC, 1.220',
/* authorisation */ '  ');

FILE_SCHEMA (('AP242_MANAGED_MODEL_BASED_3D_ENGINEERING_MIM_LF { 1 0 10303 442 3 1 4 }'));
ENDSEC;

DATA;
#10=TOROIDAL_SURFACE('',#205,0.00390563,0.00265563);
#11=TOROIDAL_SURFACE('',#206,0.01234437,0.00265563);
#12=SHAPE_REPRESENTATION_RELATIONSHIP('','',#182,#15);
#13=SHAPE_REPRESENTATION_RELATIONSHIP('','',#183,#16);
#14=SHAPE_REPRESENTATION_RELATIONSHIP('','',#184,#17);
#15=ADVANCED_BREP_SHAPE_REPRESENTATION('',(#176),#312);
#16=ADVANCED_BREP_SHAPE_REPRESENTATION('',(#177),#313);
#17=ADVANCED_BREP_SHAPE_REPRESENTATION('',(#178),#314);
#18=DEGENERATE_TOROIDAL_SURFACE('',#193,0.00372304473782995,0.00627695526217005,
 .T.);
#19=PLANE('',#189);
#20=PLANE('',#191);
#21=PLANE('',#201);
#22=PLANE('',#202);
#23=PLANE('',#211);
#24=PLANE('',#212);
#25=ORIENTED_EDGE('',*,*,#49,.T.);
#26=ORIENTED_EDGE('',*,*,#50,.F.);
#27=ORIENTED_EDGE('',*,*,#51,.T.);
#28=ORIENTED_EDGE('',*,*,#49,.F.);
#29=ORIENTED_EDGE('',*,*,#52,.T.);
#30=ORIENTED_EDGE('',*,*,#50,.T.);
#31=ORIENTED_EDGE('',*,*,#52,.F.);
#32=ORIENTED_EDGE('',*,*,#51,.F.);
#33=ORIENTED_EDGE('',*,*,#53,.T.);
#34=ORIENTED_EDGE('',*,*,#54,.F.);
#35=ORIENTED_EDGE('',*,*,#55,.T.);
#36=ORIENTED_EDGE('',*,*,#56,.F.);
#37=ORIENTED_EDGE('',*,*,#54,.T.);
#38=ORIENTED_EDGE('',*,*,#56,.T.);
#39=ORIENTED_EDGE('',*,*,#57,.T.);
#40=ORIENTED_EDGE('',*,*,#58,.T.);
#41=ORIENTED_EDGE('',*,*,#57,.F.);
#42=ORIENTED_EDGE('',*,*,#53,.F.);
#43=ORIENTED_EDGE('',*,*,#58,.F.);
#44=ORIENTED_EDGE('',*,*,#55,.F.);
#45=ORIENTED_EDGE('',*,*,#59,.F.);
#46=ORIENTED_EDGE('',*,*,#60,.T.);
#47=ORIENTED_EDGE('',*,*,#59,.T.);
#48=ORIENTED_EDGE('',*,*,#60,.F.);
#49=EDGE_CURVE('',#61,#61,#73,.T.);
#50=EDGE_CURVE('',#62,#62,#74,.T.);
#51=EDGE_CURVE('',#63,#63,#75,.T.);
#52=EDGE_CURVE('',#64,#64,#76,.F.);
#53=EDGE_CURVE('',#65,#65,#77,.F.);
#54=EDGE_CURVE('',#66,#66,#78,.T.);
#55=EDGE_CURVE('',#67,#67,#79,.T.);
#56=EDGE_CURVE('',#68,#68,#80,.T.);
#57=EDGE_CURVE('',#69,#69,#81,.T.);
#58=EDGE_CURVE('',#70,#70,#82,.F.);
#59=EDGE_CURVE('',#71,#71,#83,.T.);
#60=EDGE_CURVE('',#72,#72,#84,.T.);
#61=VERTEX_POINT('',#272);
#62=VERTEX_POINT('',#274);
#63=VERTEX_POINT('',#277);
#64=VERTEX_POINT('',#280);
#65=VERTEX_POINT('',#285);
#66=VERTEX_POINT('',#287);
#67=VERTEX_POINT('',#290);
#68=VERTEX_POINT('',#292);
#69=VERTEX_POINT('',#296);
#70=VERTEX_POINT('',#298);
#71=VERTEX_POINT('',#304);
#72=VERTEX_POINT('',#306);
#73=CIRCLE('',#187,0.00125);
#74=CIRCLE('',#188,0.00125);
#75=CIRCLE('',#190,0.00907670998446429);
#76=CIRCLE('',#192,0.00372304473782995);
#77=CIRCLE('',#196,0.00125);
#78=CIRCLE('',#197,0.00125);
#79=CIRCLE('',#199,0.015);
#80=CIRCLE('',#200,0.015);
#81=CIRCLE('',#203,0.00390563);
#82=CIRCLE('',#204,0.01234437);
#83=CIRCLE('',#209,0.00125);
#84=CIRCLE('',#210,0.00125);
#85=EDGE_LOOP('',(#25));
#86=EDGE_LOOP('',(#26));
#87=EDGE_LOOP('',(#27));
#88=EDGE_LOOP('',(#28));
#89=EDGE_LOOP('',(#29));
#90=EDGE_LOOP('',(#30));
#91=EDGE_LOOP('',(#31));
#92=EDGE_LOOP('',(#32));
#93=EDGE_LOOP('',(#33));
#94=EDGE_LOOP('',(#34));
#95=EDGE_LOOP('',(#35));
#96=EDGE_LOOP('',(#36));
#97=EDGE_LOOP('',(#37));
#98=EDGE_LOOP('',(#38));
#99=EDGE_LOOP('',(#39));
#100=EDGE_LOOP('',(#40));
#101=EDGE_LOOP('',(#41));
#102=EDGE_LOOP('',(#42));
#103=EDGE_LOOP('',(#43));
#104=EDGE_LOOP('',(#44));
#105=EDGE_LOOP('',(#45));
#106=EDGE_LOOP('',(#46));
#107=EDGE_LOOP('',(#47));
#108=EDGE_LOOP('',(#48));
#109=FACE_BOUND('',#85,.T.);
#110=FACE_BOUND('',#86,.T.);
#111=FACE_BOUND('',#87,.T.);
#112=FACE_BOUND('',#88,.T.);
#113=FACE_BOUND('',#89,.T.);
#114=FACE_BOUND('',#90,.T.);
#115=FACE_BOUND('',#91,.T.);
#116=FACE_BOUND('',#92,.T.);
#117=FACE_BOUND('',#93,.T.);
#118=FACE_BOUND('',#94,.T.);
#119=FACE_BOUND('',#95,.T.);
#120=FACE_BOUND('',#96,.T.);
#121=FACE_BOUND('',#97,.T.);
#122=FACE_BOUND('',#98,.T.);
#123=FACE_BOUND('',#99,.T.);
#124=FACE_BOUND('',#100,.T.);
#125=FACE_BOUND('',#101,.T.);
#126=FACE_BOUND('',#102,.T.);
#127=FACE_BOUND('',#103,.T.);
#128=FACE_BOUND('',#104,.T.);
#129=FACE_BOUND('',#105,.T.);
#130=FACE_BOUND('',#106,.T.);
#131=FACE_BOUND('',#107,.T.);
#132=FACE_BOUND('',#108,.T.);
#133=CYLINDRICAL_SURFACE('',#186,0.00125);
#134=CYLINDRICAL_SURFACE('',#195,0.00125);
#135=CYLINDRICAL_SURFACE('',#198,0.015);
#136=CYLINDRICAL_SURFACE('',#208,0.00125);
#137=ADVANCED_FACE('',(#109,#110),#133,.F.);
#138=ADVANCED_FACE('',(#111,#112),#19,.T.);
#139=ADVANCED_FACE('',(#113,#114),#20,.F.);
#140=ADVANCED_FACE('',(#115,#116),#18,.T.);
#141=ADVANCED_FACE('',(#117,#118),#134,.F.);
#142=ADVANCED_FACE('',(#119,#120),#135,.T.);
#143=ADVANCED_FACE('',(#121,#122),#21,.T.);
#144=ADVANCED_FACE('',(#123,#124),#22,.F.);
#145=ADVANCED_FACE('',(#125,#126),#10,.T.);
#146=ADVANCED_FACE('',(#127,#128),#11,.T.);
#147=ADVANCED_FACE('',(#129,#130),#136,.T.);
#148=ADVANCED_FACE('',(#131),#23,.T.);
#149=ADVANCED_FACE('',(#132),#24,.F.);
#150=CLOSED_SHELL('',(#137,#138,#139,#140));
#151=CLOSED_SHELL('',(#141,#142,#143,#144,#145,#146));
#152=CLOSED_SHELL('',(#147,#148,#149));
#153=STYLED_ITEM('',(#156),#176);
#154=STYLED_ITEM('',(#157),#177);
#155=STYLED_ITEM('',(#158),#178);
#156=PRESENTATION_STYLE_ASSIGNMENT((#159));
#157=PRESENTATION_STYLE_ASSIGNMENT((#160));
#158=PRESENTATION_STYLE_ASSIGNMENT((#161));
#159=SURFACE_STYLE_USAGE(.BOTH.,#162);
#160=SURFACE_STYLE_USAGE(.BOTH.,#163);
#161=SURFACE_STYLE_USAGE(.BOTH.,#164);
#162=SURFACE_SIDE_STYLE('',(#165));
#163=SURFACE_SIDE_STYLE('',(#166));
#164=SURFACE_SIDE_STYLE('',(#167));
#165=SURFACE_STYLE_FILL_AREA(#168);
#166=SURFACE_STYLE_FILL_AREA(#169);
#167=SURFACE_STYLE_FILL_AREA(#170);
#168=FILL_AREA_STYLE('',(#171));
#169=FILL_AREA_STYLE('',(#172));
#170=FILL_AREA_STYLE('',(#173));
#171=FILL_AREA_STYLE_COLOUR('',#174);
#172=FILL_AREA_STYLE_COLOUR('',#175);
#173=FILL_AREA_STYLE_COLOUR('',#174);
#174=COLOUR_RGB('',0.701960784313725,0.701960784313725,0.701960784313725);
#175=COLOUR_RGB('',0.941176470588235,0.874509803921569,0.67843137254902);
#176=MANIFOLD_SOLID_BREP('Part 2',#150);
#177=MANIFOLD_SOLID_BREP('Part 3',#151);
#178=MANIFOLD_SOLID_BREP('Part 1',#152);
#179=SHAPE_DEFINITION_REPRESENTATION(#327,#182);
#180=SHAPE_DEFINITION_REPRESENTATION(#328,#183);
#181=SHAPE_DEFINITION_REPRESENTATION(#329,#184);
#182=SHAPE_REPRESENTATION('Part 2',(#185),#312);
#183=SHAPE_REPRESENTATION('Part 3',(#194),#313);
#184=SHAPE_REPRESENTATION('Part 1',(#207),#314);
#185=AXIS2_PLACEMENT_3D('',#269,#213,#214);
#186=AXIS2_PLACEMENT_3D('',#270,#215,#216);
#187=AXIS2_PLACEMENT_3D('',#271,#217,#218);
#188=AXIS2_PLACEMENT_3D('',#273,#219,#220);
#189=AXIS2_PLACEMENT_3D('',#275,#221,#222);
#190=AXIS2_PLACEMENT_3D('',#276,#223,#224);
#191=AXIS2_PLACEMENT_3D('',#278,#225,#226);
#192=AXIS2_PLACEMENT_3D('',#279,#227,#228);
#193=AXIS2_PLACEMENT_3D('',#281,#229,#230);
#194=AXIS2_PLACEMENT_3D('',#282,#231,#232);
#195=AXIS2_PLACEMENT_3D('',#283,#233,#234);
#196=AXIS2_PLACEMENT_3D('',#284,#235,#236);
#197=AXIS2_PLACEMENT_3D('',#286,#237,#238);
#198=AXIS2_PLACEMENT_3D('',#288,#239,#240);
#199=AXIS2_PLACEMENT_3D('',#289,#241,#242);
#200=AXIS2_PLACEMENT_3D('',#291,#243,#244);
#201=AXIS2_PLACEMENT_3D('',#293,#245,#246);
#202=AXIS2_PLACEMENT_3D('',#294,#247,#248);
#203=AXIS2_PLACEMENT_3D('',#295,#249,#250);
#204=AXIS2_PLACEMENT_3D('',#297,#251,#252);
#205=AXIS2_PLACEMENT_3D('',#299,#253,#254);
#206=AXIS2_PLACEMENT_3D('',#300,#255,#256);
#207=AXIS2_PLACEMENT_3D('',#301,#257,#258);
#208=AXIS2_PLACEMENT_3D('',#302,#259,#260);
#209=AXIS2_PLACEMENT_3D('',#303,#261,#262);
#210=AXIS2_PLACEMENT_3D('',#305,#263,#264);
#211=AXIS2_PLACEMENT_3D('',#307,#265,#266);
#212=AXIS2_PLACEMENT_3D('',#308,#267,#268);
#213=DIRECTION('',(0.,0.,1.));
#214=DIRECTION('',(1.,0.,0.));
#215=DIRECTION('',(0.,0.,-1.));
#216=DIRECTION('',(-1.,0.,0.));
#217=DIRECTION('',(0.,0.,1.));
#218=DIRECTION('',(1.,0.,0.));
#219=DIRECTION('',(0.,0.,1.));
#220=DIRECTION('',(1.,0.,0.));
#221=DIRECTION('',(0.,0.,1.));
#222=DIRECTION('',(1.,0.,0.));
#223=DIRECTION('',(0.,0.,1.));
#224=DIRECTION('',(1.,0.,0.));
#225=DIRECTION('',(0.,0.,1.));
#226=DIRECTION('',(1.,0.,0.));
#227=DIRECTION('',(0.,0.,1.));
#228=DIRECTION('',(1.,0.,0.));
#229=DIRECTION('',(0.,0.,1.));
#230=DIRECTION('',(1.,0.,0.));
#231=DIRECTION('',(0.,0.,1.));
#232=DIRECTION('',(1.,0.,0.));
#233=DIRECTION('',(0.,0.,1.));
#234=DIRECTION('',(1.,0.,0.));
#235=DIRECTION('',(0.,0.,-1.));
#236=DIRECTION('',(-1.,0.,0.));
#237=DIRECTION('',(0.,0.,1.));
#238=DIRECTION('',(1.,0.,0.));
#239=DIRECTION('',(0.,0.,1.));
#240=DIRECTION('',(1.,0.,0.));
#241=DIRECTION('',(0.,0.,-1.));
#242=DIRECTION('',(-1.,0.,0.));
#243=DIRECTION('',(0.,0.,-1.));
#244=DIRECTION('',(-1.,0.,0.));
#245=DIRECTION('',(0.,0.,-1.));
#246=DIRECTION('',(1.,0.,0.));
#247=DIRECTION('',(0.,0.,-1.));
#248=DIRECTION('',(1.,0.,0.));
#249=DIRECTION('',(0.,0.,-1.));
#250=DIRECTION('',(-1.,0.,0.));
#251=DIRECTION('',(0.,0.,-1.));
#252=DIRECTION('',(-1.,0.,0.));
#253=DIRECTION('',(0.,0.,-1.));
#254=DIRECTION('',(-1.,0.,0.));
#255=DIRECTION('',(0.,0.,-1.));
#256=DIRECTION('',(-1.,0.,0.));
#257=DIRECTION('',(0.,0.,1.));
#258=DIRECTION('',(1.,0.,0.));
#259=DIRECTION('',(0.,0.,-1.));
#260=DIRECTION('',(-1.,0.,0.));
#261=DIRECTION('',(0.,0.,1.));
#262=DIRECTION('',(1.,0.,0.));
#263=DIRECTION('',(0.,0.,1.));
#264=DIRECTION('',(1.,0.,0.));
#265=DIRECTION('',(0.,0.,1.));
#266=DIRECTION('',(1.,0.,0.));
#267=DIRECTION('',(0.,0.,1.));
#268=DIRECTION('',(1.,0.,0.));
#269=CARTESIAN_POINT('',(0.,0.,0.));
#270=CARTESIAN_POINT('',(0.,7.65404249467096E-20,0.038));
#271=CARTESIAN_POINT('',(0.,7.65404249467096E-20,0.038));
#272=CARTESIAN_POINT('',(0.00125,7.65404249467096E-20,0.038));
#273=CARTESIAN_POINT('',(0.,7.65404249467096E-20,0.035));
#274=CARTESIAN_POINT('',(0.00125,7.65404249467096E-20,0.035));
#275=CARTESIAN_POINT('',(0.,0.,0.038));
#276=CARTESIAN_POINT('',(0.,7.39890774484859E-19,0.038));
#277=CARTESIAN_POINT('',(0.00907670998446429,7.39890774484859E-19,0.038));
#278=CARTESIAN_POINT('',(0.,0.,0.035));
#279=CARTESIAN_POINT('',(0.,7.39890774484859E-19,0.035));
#280=CARTESIAN_POINT('',(0.00372304473782995,7.39890774484859E-19,0.035));
#281=CARTESIAN_POINT('',(0.,7.39890774484859E-19,0.04127695526217));
#282=CARTESIAN_POINT('',(0.,0.,0.));
#283=CARTESIAN_POINT('',(0.,7.65404249467096E-20,-0.015));
#284=CARTESIAN_POINT('',(0.,7.65404249467096E-20,-0.00265563));
#285=CARTESIAN_POINT('',(-0.00125,7.65404249467096E-20,-0.00265563));
#286=CARTESIAN_POINT('',(0.,7.65404249467096E-20,-0.015));
#287=CARTESIAN_POINT('',(0.00125,7.65404249467096E-20,-0.015));
#288=CARTESIAN_POINT('',(0.,-9.18485099360515E-19,-0.015));
#289=CARTESIAN_POINT('',(0.,-9.18485099360515E-19,-0.00265563));
#290=CARTESIAN_POINT('',(-0.015,-9.18485099360515E-19,-0.00265563));
#291=CARTESIAN_POINT('',(0.,-9.18485099360515E-19,-0.015));
#292=CARTESIAN_POINT('',(-0.015,-9.18485099360515E-19,-0.015));
#293=CARTESIAN_POINT('',(0.,0.,-0.015));
#294=CARTESIAN_POINT('',(0.,0.,0.));
#295=CARTESIAN_POINT('',(0.,7.65404249467096E-20,0.));
#296=CARTESIAN_POINT('',(-0.00390563,7.65404249467096E-20,0.));
#297=CARTESIAN_POINT('',(0.,-9.18485099360515E-19,0.));
#298=CARTESIAN_POINT('',(-0.01234437,-9.18485099360515E-19,0.));
#299=CARTESIAN_POINT('',(0.,7.65404249467096E-20,-0.00265563));
#300=CARTESIAN_POINT('',(0.,-9.18485099360515E-19,-0.00265563));
#301=CARTESIAN_POINT('',(0.,0.,0.));
#302=CARTESIAN_POINT('',(0.,7.65404249467096E-20,0.035));
#303=CARTESIAN_POINT('',(0.,7.65404249467096E-20,0.035));
#304=CARTESIAN_POINT('',(0.00125,7.65404249467096E-20,0.035));
#305=CARTESIAN_POINT('',(0.,7.65404249467096E-20,0.));
#306=CARTESIAN_POINT('',(0.00125,7.65404249467096E-20,0.));
#307=CARTESIAN_POINT('',(0.,0.,0.035));
#308=CARTESIAN_POINT('',(0.,0.,0.));
#309=MECHANICAL_DESIGN_GEOMETRIC_PRESENTATION_REPRESENTATION('',(#153),
#312);
#310=MECHANICAL_DESIGN_GEOMETRIC_PRESENTATION_REPRESENTATION('',(#154),
#313);
#311=MECHANICAL_DESIGN_GEOMETRIC_PRESENTATION_REPRESENTATION('',(#155),
#314);
#312=(
GEOMETRIC_REPRESENTATION_CONTEXT(3)
GLOBAL_UNCERTAINTY_ASSIGNED_CONTEXT((#315))
GLOBAL_UNIT_ASSIGNED_CONTEXT((#324,#321,#318))
REPRESENTATION_CONTEXT('Part 2','TOP_LEVEL_ASSEMBLY_PART')
);
#313=(
GEOMETRIC_REPRESENTATION_CONTEXT(3)
GLOBAL_UNCERTAINTY_ASSIGNED_CONTEXT((#316))
GLOBAL_UNIT_ASSIGNED_CONTEXT((#325,#322,#319))
REPRESENTATION_CONTEXT('Part 3','TOP_LEVEL_ASSEMBLY_PART')
);
#314=(
GEOMETRIC_REPRESENTATION_CONTEXT(3)
GLOBAL_UNCERTAINTY_ASSIGNED_CONTEXT((#317))
GLOBAL_UNIT_ASSIGNED_CONTEXT((#326,#323,#320))
REPRESENTATION_CONTEXT('Part 1','TOP_LEVEL_ASSEMBLY_PART')
);
#315=UNCERTAINTY_MEASURE_WITH_UNIT(LENGTH_MEASURE(1.E-8),#324,
'DISTANCE_ACCURACY_VALUE','Maximum Tolerance applied to model');
#316=UNCERTAINTY_MEASURE_WITH_UNIT(LENGTH_MEASURE(1.E-8),#325,
'DISTANCE_ACCURACY_VALUE','Maximum Tolerance applied to model');
#317=UNCERTAINTY_MEASURE_WITH_UNIT(LENGTH_MEASURE(1.E-8),#326,
'DISTANCE_ACCURACY_VALUE','Maximum Tolerance applied to model');
#318=(
NAMED_UNIT(*)
SI_UNIT($,.STERADIAN.)
SOLID_ANGLE_UNIT()
);
#319=(
NAMED_UNIT(*)
SI_UNIT($,.STERADIAN.)
SOLID_ANGLE_UNIT()
);
#320=(
NAMED_UNIT(*)
SI_UNIT($,.STERADIAN.)
SOLID_ANGLE_UNIT()
);
#321=(
NAMED_UNIT(*)
PLANE_ANGLE_UNIT()
SI_UNIT($,.RADIAN.)
);
#322=(
NAMED_UNIT(*)
PLANE_ANGLE_UNIT()
SI_UNIT($,.RADIAN.)
);
#323=(
NAMED_UNIT(*)
PLANE_ANGLE_UNIT()
SI_UNIT($,.RADIAN.)
);
#324=(
LENGTH_UNIT()
NAMED_UNIT(*)
SI_UNIT($,.METRE.)
);
#325=(
LENGTH_UNIT()
NAMED_UNIT(*)
SI_UNIT($,.METRE.)
);
#326=(
LENGTH_UNIT()
NAMED_UNIT(*)
SI_UNIT($,.METRE.)
);
#327=PRODUCT_DEFINITION_SHAPE('','',#330);
#328=PRODUCT_DEFINITION_SHAPE('','',#331);
#329=PRODUCT_DEFINITION_SHAPE('','',#332);
#330=PRODUCT_DEFINITION('','',#336,#333);
#331=PRODUCT_DEFINITION('','',#337,#334);
#332=PRODUCT_DEFINITION('','',#338,#335);
#333=PRODUCT_DEFINITION_CONTEXT('',#354,'design');
#334=PRODUCT_DEFINITION_CONTEXT('',#355,'design');
#335=PRODUCT_DEFINITION_CONTEXT('',#356,'design');
#336=PRODUCT_DEFINITION_FORMATION_WITH_SPECIFIED_SOURCE('','',#342,
 .NOT_KNOWN.);
#337=PRODUCT_DEFINITION_FORMATION_WITH_SPECIFIED_SOURCE('','',#343,
 .NOT_KNOWN.);
#338=PRODUCT_DEFINITION_FORMATION_WITH_SPECIFIED_SOURCE('','',#344,
 .NOT_KNOWN.);
#339=PRODUCT_RELATED_PRODUCT_CATEGORY('','',(#342));
#340=PRODUCT_RELATED_PRODUCT_CATEGORY('','',(#343));
#341=PRODUCT_RELATED_PRODUCT_CATEGORY('','',(#344));
#342=PRODUCT('Part 2','Part 2','Part 2',(#348));
#343=PRODUCT('Part 3','Part 3','Part 3',(#349));
#344=PRODUCT('Part 1','Part 1','Part 1',(#350));
#345=PRODUCT_CATEGORY('','');
#346=PRODUCT_CATEGORY('','');
#347=PRODUCT_CATEGORY('','');
#348=PRODUCT_CONTEXT('',#354,'mechanical');
#349=PRODUCT_CONTEXT('',#355,'mechanical');
#350=PRODUCT_CONTEXT('',#356,'mechanical');
#351=APPLICATION_PROTOCOL_DEFINITION('international standard',
'ap242_managed_model_based_3d_engineering',2020,#354);
#352=APPLICATION_PROTOCOL_DEFINITION('international standard',
'ap242_managed_model_based_3d_engineering',2020,#355);
#353=APPLICATION_PROTOCOL_DEFINITION('international standard',
'ap242_managed_model_based_3d_engineering',2020,#356);
#354=APPLICATION_CONTEXT('managed model based 3d engineering');
#355=APPLICATION_CONTEXT('managed model based 3d engineering');
#356=APPLICATION_CONTEXT('managed model based 3d engineering');
ENDSEC;
END-ISO-10303-21;
