ISO-10303-21;
HEADER;
/* Generated by software containing ST-Developer
 * from STEP Tools, Inc. (www.steptools.com) 
 */
/* OPTION: using custom renumber hook */

FILE_DESCRIPTION(
/* description */ ('STEP AP242 Edition 2',
'CAx-IF Rec.Pracs.---Representation and Presentation of Product Manufa
cturing Information (PMI)---4.0---2014-10-13',
'CAx-IF Rec.Pracs.---3D Tessellated Geometry---0.4---2014-09-14','2;1',
'CAx-IF Rec.Pracs.---User Defined Attributes---1.5---2016-08-15'),
/* implementation_level */ '2;1');

FILE_NAME(
/* name */ 'Shelf',
/* time_stamp */ '2026-09-07T05:39:53Z',
/* author */ (''),
/* organization */ (''),
/* preprocessor_version */ 'ST-DEVELOPER v20',
/* originating_system */ 'ONSHAPE BY PTC INC, 1.220',
/* authorisation */ '  ');

FILE_SCHEMA (('AP242_MANAGED_MODEL_BASED_3D_ENGINEERING_MIM_LF { 1 0 10303 442 3 1 4 }'));
ENDSEC;

DATA;
#10=SHAPE_REPRESENTATION_RELATIONSHIP('','',#295,#11);
#11=ADVANCED_BREP_SHAPE_REPRESENTATION('',(#293),#461);
#12=ORIENTED_EDGE('',*,*,#84,.F.);
#13=ORIENTED_EDGE('',*,*,#85,.F.);
#14=ORIENTED_EDGE('',*,*,#86,.T.);
#15=ORIENTED_EDGE('',*,*,#87,.T.);
#16=ORIENTED_EDGE('',*,*,#88,.T.);
#17=ORIENTED_EDGE('',*,*,#89,.T.);
#18=ORIENTED_EDGE('',*,*,#90,.F.);
#19=ORIENTED_EDGE('',*,*,#91,.F.);
#20=ORIENTED_EDGE('',*,*,#90,.T.);
#21=ORIENTED_EDGE('',*,*,#92,.T.);
#22=ORIENTED_EDGE('',*,*,#87,.F.);
#23=ORIENTED_EDGE('',*,*,#93,.T.);
#24=ORIENTED_EDGE('',*,*,#94,.F.);
#25=ORIENTED_EDGE('',*,*,#95,.F.);
#26=ORIENTED_EDGE('',*,*,#96,.T.);
#27=ORIENTED_EDGE('',*,*,#97,.T.);
#28=ORIENTED_EDGE('',*,*,#98,.T.);
#29=ORIENTED_EDGE('',*,*,#99,.F.);
#30=ORIENTED_EDGE('',*,*,#100,.F.);
#31=ORIENTED_EDGE('',*,*,#95,.T.);
#32=ORIENTED_EDGE('',*,*,#101,.T.);
#33=ORIENTED_EDGE('',*,*,#102,.F.);
#34=ORIENTED_EDGE('',*,*,#103,.F.);
#35=ORIENTED_EDGE('',*,*,#99,.T.);
#36=ORIENTED_EDGE('',*,*,#104,.F.);
#37=ORIENTED_EDGE('',*,*,#97,.F.);
#38=ORIENTED_EDGE('',*,*,#105,.T.);
#39=ORIENTED_EDGE('',*,*,#102,.T.);
#40=ORIENTED_EDGE('',*,*,#94,.T.);
#41=ORIENTED_EDGE('',*,*,#104,.T.);
#42=ORIENTED_EDGE('',*,*,#101,.F.);
#43=ORIENTED_EDGE('',*,*,#98,.F.);
#44=ORIENTED_EDGE('',*,*,#93,.F.);
#45=ORIENTED_EDGE('',*,*,#86,.F.);
#46=ORIENTED_EDGE('',*,*,#106,.T.);
#47=ORIENTED_EDGE('',*,*,#91,.T.);
#48=ORIENTED_EDGE('',*,*,#107,.F.);
#49=ORIENTED_EDGE('',*,*,#108,.T.);
#50=ORIENTED_EDGE('',*,*,#109,.T.);
#51=ORIENTED_EDGE('',*,*,#110,.F.);
#52=ORIENTED_EDGE('',*,*,#111,.T.);
#53=ORIENTED_EDGE('',*,*,#112,.F.);
#54=ORIENTED_EDGE('',*,*,#113,.F.);
#55=ORIENTED_EDGE('',*,*,#110,.T.);
#56=ORIENTED_EDGE('',*,*,#114,.F.);
#57=ORIENTED_EDGE('',*,*,#115,.T.);
#58=ORIENTED_EDGE('',*,*,#112,.T.);
#59=ORIENTED_EDGE('',*,*,#116,.F.);
#60=ORIENTED_EDGE('',*,*,#117,.T.);
#61=ORIENTED_EDGE('',*,*,#107,.T.);
#62=ORIENTED_EDGE('',*,*,#113,.T.);
#63=ORIENTED_EDGE('',*,*,#115,.F.);
#64=ORIENTED_EDGE('',*,*,#106,.F.);
#65=ORIENTED_EDGE('',*,*,#85,.T.);
#66=ORIENTED_EDGE('',*,*,#118,.F.);
#67=ORIENTED_EDGE('',*,*,#88,.F.);
#68=ORIENTED_EDGE('',*,*,#96,.F.);
#69=ORIENTED_EDGE('',*,*,#100,.T.);
#70=ORIENTED_EDGE('',*,*,#103,.T.);
#71=ORIENTED_EDGE('',*,*,#105,.F.);
#72=ORIENTED_EDGE('',*,*,#119,.F.);
#73=ORIENTED_EDGE('',*,*,#116,.T.);
#74=ORIENTED_EDGE('',*,*,#111,.F.);
#75=ORIENTED_EDGE('',*,*,#109,.F.);
#76=ORIENTED_EDGE('',*,*,#92,.F.);
#77=ORIENTED_EDGE('',*,*,#89,.F.);
#78=ORIENTED_EDGE('',*,*,#118,.T.);
#79=ORIENTED_EDGE('',*,*,#84,.T.);
#80=ORIENTED_EDGE('',*,*,#119,.T.);
#81=ORIENTED_EDGE('',*,*,#108,.F.);
#82=ORIENTED_EDGE('',*,*,#117,.F.);
#83=ORIENTED_EDGE('',*,*,#114,.T.);
#84=EDGE_CURVE('',#120,#121,#144,.T.);
#85=EDGE_CURVE('',#122,#120,#145,.T.);
#86=EDGE_CURVE('',#122,#123,#146,.T.);
#87=EDGE_CURVE('',#123,#121,#147,.T.);
#88=EDGE_CURVE('',#124,#125,#148,.T.);
#89=EDGE_CURVE('',#125,#126,#149,.T.);
#90=EDGE_CURVE('',#127,#126,#150,.T.);
#91=EDGE_CURVE('',#124,#127,#151,.T.);
#92=EDGE_CURVE('',#126,#121,#152,.T.);
#93=EDGE_CURVE('',#123,#127,#153,.T.);
#94=EDGE_CURVE('',#128,#129,#154,.T.);
#95=EDGE_CURVE('',#130,#128,#155,.T.);
#96=EDGE_CURVE('',#130,#131,#156,.T.);
#97=EDGE_CURVE('',#131,#129,#157,.T.);
#98=EDGE_CURVE('',#128,#132,#158,.T.);
#99=EDGE_CURVE('',#133,#132,#159,.T.);
#100=EDGE_CURVE('',#130,#133,#160,.T.);
#101=EDGE_CURVE('',#132,#134,#161,.T.);
#102=EDGE_CURVE('',#135,#134,#162,.T.);
#103=EDGE_CURVE('',#133,#135,#163,.T.);
#104=EDGE_CURVE('',#129,#134,#164,.T.);
#105=EDGE_CURVE('',#131,#135,#165,.T.);
#106=EDGE_CURVE('',#122,#124,#166,.T.);
#107=EDGE_CURVE('',#136,#137,#167,.T.);
#108=EDGE_CURVE('',#136,#138,#168,.T.);
#109=EDGE_CURVE('',#138,#139,#169,.T.);
#110=EDGE_CURVE('',#137,#139,#170,.T.);
#111=EDGE_CURVE('',#139,#140,#171,.T.);
#112=EDGE_CURVE('',#141,#140,#172,.T.);
#113=EDGE_CURVE('',#137,#141,#173,.T.);
#114=EDGE_CURVE('',#142,#143,#174,.T.);
#115=EDGE_CURVE('',#142,#141,#175,.T.);
#116=EDGE_CURVE('',#143,#140,#176,.T.);
#117=EDGE_CURVE('',#142,#136,#177,.T.);
#118=EDGE_CURVE('',#125,#120,#178,.T.);
#119=EDGE_CURVE('',#143,#138,#179,.T.);
#120=VERTEX_POINT('',#386);
#121=VERTEX_POINT('',#387);
#122=VERTEX_POINT('',#389);
#123=VERTEX_POINT('',#391);
#124=VERTEX_POINT('',#395);
#125=VERTEX_POINT('',#396);
#126=VERTEX_POINT('',#398);
#127=VERTEX_POINT('',#400);
#128=VERTEX_POINT('',#407);
#129=VERTEX_POINT('',#408);
#130=VERTEX_POINT('',#410);
#131=VERTEX_POINT('',#412);
#132=VERTEX_POINT('',#416);
#133=VERTEX_POINT('',#418);
#134=VERTEX_POINT('',#422);
#135=VERTEX_POINT('',#424);
#136=VERTEX_POINT('',#434);
#137=VERTEX_POINT('',#435);
#138=VERTEX_POINT('',#437);
#139=VERTEX_POINT('',#439);
#140=VERTEX_POINT('',#443);
#141=VERTEX_POINT('',#445);
#142=VERTEX_POINT('',#449);
#143=VERTEX_POINT('',#450);
#144=LINE('',#385,#180);
#145=LINE('',#388,#181);
#146=LINE('',#390,#182);
#147=LINE('',#392,#183);
#148=LINE('',#394,#184);
#149=LINE('',#397,#185);
#150=LINE('',#399,#186);
#151=LINE('',#401,#187);
#152=LINE('',#403,#188);
#153=LINE('',#404,#189);
#154=LINE('',#406,#190);
#155=LINE('',#409,#191);
#156=LINE('',#411,#192);
#157=LINE('',#413,#193);
#158=LINE('',#415,#194);
#159=LINE('',#417,#195);
#160=LINE('',#419,#196);
#161=LINE('',#421,#197);
#162=LINE('',#423,#198);
#163=LINE('',#425,#199);
#164=LINE('',#427,#200);
#165=LINE('',#428,#201);
#166=LINE('',#431,#202);
#167=LINE('',#433,#203);
#168=LINE('',#436,#204);
#169=LINE('',#438,#205);
#170=LINE('',#440,#206);
#171=LINE('',#442,#207);
#172=LINE('',#444,#208);
#173=LINE('',#446,#209);
#174=LINE('',#448,#210);
#175=LINE('',#451,#211);
#176=LINE('',#452,#212);
#177=LINE('',#454,#213);
#178=LINE('',#455,#214);
#179=LINE('',#457,#215);
#180=VECTOR('',#317,1.);
#181=VECTOR('',#318,1.);
#182=VECTOR('',#319,1.);
#183=VECTOR('',#320,1.);
#184=VECTOR('',#323,1.);
#185=VECTOR('',#324,1.);
#186=VECTOR('',#325,1.);
#187=VECTOR('',#326,1.);
#188=VECTOR('',#329,1.);
#189=VECTOR('',#330,1.);
#190=VECTOR('',#333,1.);
#191=VECTOR('',#334,1.);
#192=VECTOR('',#335,1.);
#193=VECTOR('',#336,1.);
#194=VECTOR('',#339,1.);
#195=VECTOR('',#340,1.);
#196=VECTOR('',#341,1.);
#197=VECTOR('',#344,1.);
#198=VECTOR('',#345,1.);
#199=VECTOR('',#346,1.);
#200=VECTOR('',#349,1.);
#201=VECTOR('',#350,1.);
#202=VECTOR('',#355,1.);
#203=VECTOR('',#358,1.);
#204=VECTOR('',#359,1.);
#205=VECTOR('',#360,1.);
#206=VECTOR('',#361,1.);
#207=VECTOR('',#364,1.);
#208=VECTOR('',#365,1.);
#209=VECTOR('',#366,1.);
#210=VECTOR('',#369,1.);
#211=VECTOR('',#370,1.);
#212=VECTOR('',#371,1.);
#213=VECTOR('',#374,1.);
#214=VECTOR('',#375,1.);
#215=VECTOR('',#378,1.);
#216=EDGE_LOOP('',(#12,#13,#14,#15));
#217=EDGE_LOOP('',(#16,#17,#18,#19));
#218=EDGE_LOOP('',(#20,#21,#22,#23));
#219=EDGE_LOOP('',(#24,#25,#26,#27));
#220=EDGE_LOOP('',(#28,#29,#30,#31));
#221=EDGE_LOOP('',(#32,#33,#34,#35));
#222=EDGE_LOOP('',(#36,#37,#38,#39));
#223=EDGE_LOOP('',(#40,#41,#42,#43));
#224=EDGE_LOOP('',(#44,#45,#46,#47));
#225=EDGE_LOOP('',(#48,#49,#50,#51));
#226=EDGE_LOOP('',(#52,#53,#54,#55));
#227=EDGE_LOOP('',(#56,#57,#58,#59));
#228=EDGE_LOOP('',(#60,#61,#62,#63));
#229=EDGE_LOOP('',(#64,#65,#66,#67));
#230=EDGE_LOOP('',(#68,#69,#70,#71));
#231=EDGE_LOOP('',(#72,#73,#74,#75));
#232=EDGE_LOOP('',(#76,#77,#78,#79));
#233=EDGE_LOOP('',(#80,#81,#82,#83));
#234=FACE_BOUND('',#216,.T.);
#235=FACE_BOUND('',#217,.T.);
#236=FACE_BOUND('',#218,.T.);
#237=FACE_BOUND('',#219,.T.);
#238=FACE_BOUND('',#220,.T.);
#239=FACE_BOUND('',#221,.T.);
#240=FACE_BOUND('',#222,.T.);
#241=FACE_BOUND('',#223,.T.);
#242=FACE_BOUND('',#224,.T.);
#243=FACE_BOUND('',#225,.T.);
#244=FACE_BOUND('',#226,.T.);
#245=FACE_BOUND('',#227,.T.);
#246=FACE_BOUND('',#228,.T.);
#247=FACE_BOUND('',#229,.T.);
#248=FACE_BOUND('',#230,.T.);
#249=FACE_BOUND('',#231,.T.);
#250=FACE_BOUND('',#232,.T.);
#251=FACE_BOUND('',#233,.T.);
#252=PLANE('',#297);
#253=PLANE('',#298);
#254=PLANE('',#299);
#255=PLANE('',#300);
#256=PLANE('',#301);
#257=PLANE('',#302);
#258=PLANE('',#303);
#259=PLANE('',#304);
#260=PLANE('',#305);
#261=PLANE('',#306);
#262=PLANE('',#307);
#263=PLANE('',#308);
#264=PLANE('',#309);
#265=PLANE('',#310);
#266=PLANE('',#311);
#267=PLANE('',#312);
#268=ADVANCED_FACE('',(#234),#252,.F.);
#269=ADVANCED_FACE('',(#235),#253,.T.);
#270=ADVANCED_FACE('',(#236),#254,.T.);
#271=ADVANCED_FACE('',(#237),#255,.T.);
#272=ADVANCED_FACE('',(#238),#256,.F.);
#273=ADVANCED_FACE('',(#239),#257,.F.);
#274=ADVANCED_FACE('',(#240),#258,.T.);
#275=ADVANCED_FACE('',(#241),#259,.F.);
#276=ADVANCED_FACE('',(#242),#260,.T.);
#277=ADVANCED_FACE('',(#243),#261,.F.);
#278=ADVANCED_FACE('',(#244),#262,.F.);
#279=ADVANCED_FACE('',(#245),#263,.T.);
#280=ADVANCED_FACE('',(#246,#247,#248),#264,.T.);
#281=ADVANCED_FACE('',(#249),#265,.T.);
#282=ADVANCED_FACE('',(#250),#266,.T.);
#283=ADVANCED_FACE('',(#251),#267,.F.);
#284=CLOSED_SHELL('',(#268,#269,#270,#271,#272,#273,#274,#275,#276,#277,
#278,#279,#280,#281,#282,#283));
#285=STYLED_ITEM('',(#286),#293);
#286=PRESENTATION_STYLE_ASSIGNMENT((#287));
#287=SURFACE_STYLE_USAGE(.BOTH.,#288);
#288=SURFACE_SIDE_STYLE('',(#289));
#289=SURFACE_STYLE_FILL_AREA(#290);
#290=FILL_AREA_STYLE('',(#291));
#291=FILL_AREA_STYLE_COLOUR('',#292);
#292=COLOUR_RGB('',0.729411764705882,0.541176470588235,0.325490196078431);
#293=MANIFOLD_SOLID_BREP('Part 1',#284);
#294=SHAPE_DEFINITION_REPRESENTATION(#466,#295);
#295=SHAPE_REPRESENTATION('Part 1',(#296),#461);
#296=AXIS2_PLACEMENT_3D('',#383,#313,#314);
#297=AXIS2_PLACEMENT_3D('',#384,#315,#316);
#298=AXIS2_PLACEMENT_3D('',#393,#321,#322);
#299=AXIS2_PLACEMENT_3D('',#402,#327,#328);
#300=AXIS2_PLACEMENT_3D('',#405,#331,#332);
#301=AXIS2_PLACEMENT_3D('',#414,#337,#338);
#302=AXIS2_PLACEMENT_3D('',#420,#342,#343);
#303=AXIS2_PLACEMENT_3D('',#426,#347,#348);
#304=AXIS2_PLACEMENT_3D('',#429,#351,#352);
#305=AXIS2_PLACEMENT_3D('',#430,#353,#354);
#306=AXIS2_PLACEMENT_3D('',#432,#356,#357);
#307=AXIS2_PLACEMENT_3D('',#441,#362,#363);
#308=AXIS2_PLACEMENT_3D('',#447,#367,#368);
#309=AXIS2_PLACEMENT_3D('',#453,#372,#373);
#310=AXIS2_PLACEMENT_3D('',#456,#376,#377);
#311=AXIS2_PLACEMENT_3D('',#458,#379,#380);
#312=AXIS2_PLACEMENT_3D('',#459,#381,#382);
#313=DIRECTION('',(0.,0.,1.));
#314=DIRECTION('',(1.,0.,0.));
#315=DIRECTION('',(-1.,-1.15648231731787E-16,0.));
#316=DIRECTION('',(1.15648231731787E-16,-1.,0.));
#317=DIRECTION('',(0.,0.,-1.));
#318=DIRECTION('',(-1.15648231731787E-16,1.,0.));
#319=DIRECTION('',(0.,0.,-1.));
#320=DIRECTION('',(-1.15648231731787E-16,1.,0.));
#321=DIRECTION('',(-1.,-2.31296463463574E-16,0.));
#322=DIRECTION('',(2.31296463463574E-16,-1.,0.));
#323=DIRECTION('',(-2.31296463463574E-16,1.,0.));
#324=DIRECTION('',(0.,0.,-1.));
#325=DIRECTION('',(-2.31296463463574E-16,1.,0.));
#326=DIRECTION('',(0.,0.,-1.));
#327=DIRECTION('',(0.,0.,1.));
#328=DIRECTION('',(1.,0.,0.));
#329=DIRECTION('',(-1.,0.,0.));
#330=DIRECTION('',(1.,0.,0.));
#331=DIRECTION('',(1.48690583655155E-16,-1.,0.));
#332=DIRECTION('',(1.,1.48690583655155E-16,0.));
#333=DIRECTION('',(-1.,-1.48690583655155E-16,0.));
#334=DIRECTION('',(0.,0.,-1.));
#335=DIRECTION('',(-1.,-1.48690583655155E-16,0.));
#336=DIRECTION('',(0.,0.,-1.));
#337=DIRECTION('',(-1.,0.,0.));
#338=DIRECTION('',(0.,0.,1.));
#339=DIRECTION('',(0.,1.,0.));
#340=DIRECTION('',(0.,0.,-1.));
#341=DIRECTION('',(0.,1.,0.));
#342=DIRECTION('',(9.91270557701033E-17,-1.,0.));
#343=DIRECTION('',(1.,9.91270557701033E-17,0.));
#344=DIRECTION('',(-1.,-9.91270557701033E-17,0.));
#345=DIRECTION('',(0.,0.,-1.));
#346=DIRECTION('',(-1.,-9.91270557701033E-17,0.));
#347=DIRECTION('',(-1.,0.,0.));
#348=DIRECTION('',(0.,0.,1.));
#349=DIRECTION('',(0.,1.,0.));
#350=DIRECTION('',(0.,1.,0.));
#351=DIRECTION('',(0.,0.,1.));
#352=DIRECTION('',(1.,0.,0.));
#353=DIRECTION('',(0.,1.,0.));
#354=DIRECTION('',(0.,0.,1.));
#355=DIRECTION('',(1.,0.,0.));
#356=DIRECTION('',(-1.,-1.15648231731787E-16,0.));
#357=DIRECTION('',(1.15648231731787E-16,-1.,0.));
#358=DIRECTION('',(-1.15648231731787E-16,1.,0.));
#359=DIRECTION('',(0.,0.,-1.));
#360=DIRECTION('',(-1.15648231731787E-16,1.,0.));
#361=DIRECTION('',(0.,0.,-1.));
#362=DIRECTION('',(0.,1.,0.));
#363=DIRECTION('',(0.,0.,1.));
#364=DIRECTION('',(1.,0.,0.));
#365=DIRECTION('',(0.,0.,-1.));
#366=DIRECTION('',(1.,0.,0.));
#367=DIRECTION('',(-1.,-2.31296463463574E-16,0.));
#368=DIRECTION('',(2.31296463463574E-16,-1.,0.));
#369=DIRECTION('',(0.,0.,-1.));
#370=DIRECTION('',(-2.31296463463574E-16,1.,0.));
#371=DIRECTION('',(-2.31296463463574E-16,1.,0.));
#372=DIRECTION('',(0.,0.,1.));
#373=DIRECTION('',(1.,0.,0.));
#374=DIRECTION('',(-1.,0.,0.));
#375=DIRECTION('',(-1.,0.,0.));
#376=DIRECTION('',(0.,0.,1.));
#377=DIRECTION('',(1.,0.,0.));
#378=DIRECTION('',(-1.,0.,0.));
#379=DIRECTION('',(0.,-1.,0.));
#380=DIRECTION('',(0.,0.,-1.));
#381=DIRECTION('',(0.,-1.,0.));
#382=DIRECTION('',(0.,0.,-1.));
#383=CARTESIAN_POINT('',(0.,0.,0.));
#384=CARTESIAN_POINT('',(-0.03,-3.46944695195361E-18,0.016));
#385=CARTESIAN_POINT('',(-0.03,-0.0025,0.016));
#386=CARTESIAN_POINT('',(-0.03,-0.0025,0.016));
#387=CARTESIAN_POINT('',(-0.03,-0.0025,0.001));
#388=CARTESIAN_POINT('',(-0.03,-3.46944695195361E-18,0.016));
#389=CARTESIAN_POINT('',(-0.03,-0.015,0.016));
#390=CARTESIAN_POINT('',(-0.03,-0.015,0.016));
#391=CARTESIAN_POINT('',(-0.03,-0.015,0.001));
#392=CARTESIAN_POINT('',(-0.03,-3.46944695195361E-18,0.001));
#393=CARTESIAN_POINT('',(0.03,-3.46944695195361E-18,0.016));
#394=CARTESIAN_POINT('',(0.03,-3.46944695195361E-18,0.016));
#395=CARTESIAN_POINT('',(0.03,-0.015,0.016));
#396=CARTESIAN_POINT('',(0.03,-0.0025,0.016));
#397=CARTESIAN_POINT('',(0.03,-0.0025,0.016));
#398=CARTESIAN_POINT('',(0.03,-0.0025,0.001));
#399=CARTESIAN_POINT('',(0.03,-3.46944695195361E-18,0.001));
#400=CARTESIAN_POINT('',(0.03,-0.015,0.001));
#401=CARTESIAN_POINT('',(0.03,-0.015,0.016));
#402=CARTESIAN_POINT('',(0.,0.,0.001));
#403=CARTESIAN_POINT('',(0.,-0.0025,0.001));
#404=CARTESIAN_POINT('',(3.46944695195361E-18,-0.015,0.001));
#405=CARTESIAN_POINT('',(0.,-0.02,0.001));
#406=CARTESIAN_POINT('',(0.,-0.02,0.));
#407=CARTESIAN_POINT('',(0.035,-0.02,0.));
#408=CARTESIAN_POINT('',(-0.035,-0.02,0.));
#409=CARTESIAN_POINT('',(0.035,-0.02,0.001));
#410=CARTESIAN_POINT('',(0.035,-0.02,0.016));
#411=CARTESIAN_POINT('',(0.,-0.02,0.016));
#412=CARTESIAN_POINT('',(-0.035,-0.02,0.016));
#413=CARTESIAN_POINT('',(-0.035,-0.02,0.001));
#414=CARTESIAN_POINT('',(0.035,3.46944695195361E-18,0.001));
#415=CARTESIAN_POINT('',(0.035,3.46944695195361E-18,0.));
#416=CARTESIAN_POINT('',(0.035,0.02,0.));
#417=CARTESIAN_POINT('',(0.035,0.02,0.001));
#418=CARTESIAN_POINT('',(0.035,0.02,0.016));
#419=CARTESIAN_POINT('',(0.035,3.46944695195361E-18,0.016));
#420=CARTESIAN_POINT('',(0.,0.02,0.001));
#421=CARTESIAN_POINT('',(0.,0.02,0.));
#422=CARTESIAN_POINT('',(-0.035,0.02,0.));
#423=CARTESIAN_POINT('',(-0.035,0.02,0.001));
#424=CARTESIAN_POINT('',(-0.035,0.02,0.016));
#425=CARTESIAN_POINT('',(0.,0.02,0.016));
#426=CARTESIAN_POINT('',(-0.035,-3.46944695195361E-18,0.001));
#427=CARTESIAN_POINT('',(-0.035,-3.46944695195361E-18,0.));
#428=CARTESIAN_POINT('',(-0.035,-3.46944695195361E-18,0.016));
#429=CARTESIAN_POINT('',(0.,0.,0.));
#430=CARTESIAN_POINT('',(3.46944695195361E-18,-0.015,0.016));
#431=CARTESIAN_POINT('',(3.46944695195361E-18,-0.015,0.016));
#432=CARTESIAN_POINT('',(-0.03,-3.46944695195361E-18,0.016));
#433=CARTESIAN_POINT('',(-0.03,-3.46944695195361E-18,0.016));
#434=CARTESIAN_POINT('',(-0.03,0.0025,0.016));
#435=CARTESIAN_POINT('',(-0.03,0.015,0.016));
#436=CARTESIAN_POINT('',(-0.03,0.0025,0.016));
#437=CARTESIAN_POINT('',(-0.03,0.0025,0.001));
#438=CARTESIAN_POINT('',(-0.03,-3.46944695195361E-18,0.001));
#439=CARTESIAN_POINT('',(-0.03,0.015,0.001));
#440=CARTESIAN_POINT('',(-0.03,0.015,0.016));
#441=CARTESIAN_POINT('',(-3.46944695195361E-18,0.015,0.016));
#442=CARTESIAN_POINT('',(-3.46944695195361E-18,0.015,0.001));
#443=CARTESIAN_POINT('',(0.03,0.015,0.001));
#444=CARTESIAN_POINT('',(0.03,0.015,0.016));
#445=CARTESIAN_POINT('',(0.03,0.015,0.016));
#446=CARTESIAN_POINT('',(-3.46944695195361E-18,0.015,0.016));
#447=CARTESIAN_POINT('',(0.03,-3.46944695195361E-18,0.016));
#448=CARTESIAN_POINT('',(0.03,0.0025,0.016));
#449=CARTESIAN_POINT('',(0.03,0.0025,0.016));
#450=CARTESIAN_POINT('',(0.03,0.0025,0.001));
#451=CARTESIAN_POINT('',(0.03,-3.46944695195361E-18,0.016));
#452=CARTESIAN_POINT('',(0.03,-3.46944695195361E-18,0.001));
#453=CARTESIAN_POINT('',(0.,0.,0.016));
#454=CARTESIAN_POINT('',(0.,0.0025,0.016));
#455=CARTESIAN_POINT('',(0.,-0.0025,0.016));
#456=CARTESIAN_POINT('',(0.,0.,0.001));
#457=CARTESIAN_POINT('',(0.,0.0025,0.001));
#458=CARTESIAN_POINT('',(0.,-0.0025,0.016));
#459=CARTESIAN_POINT('',(0.,0.0025,0.016));
#460=MECHANICAL_DESIGN_GEOMETRIC_PRESENTATION_REPRESENTATION('',(#285),
#461);
#461=(
GEOMETRIC_REPRESENTATION_CONTEXT(3)
GLOBAL_UNCERTAINTY_ASSIGNED_CONTEXT((#462))
GLOBAL_UNIT_ASSIGNED_CONTEXT((#465,#464,#463))
REPRESENTATION_CONTEXT('Part 1','TOP_LEVEL_ASSEMBLY_PART')
);
#462=UNCERTAINTY_MEASURE_WITH_UNIT(LENGTH_MEASURE(1.E-8),#465,
'DISTANCE_ACCURACY_VALUE','Maximum Tolerance applied to model');
#463=(
NAMED_UNIT(*)
SI_UNIT($,.STERADIAN.)
SOLID_ANGLE_UNIT()
);
#464=(
NAMED_UNIT(*)
PLANE_ANGLE_UNIT()
SI_UNIT($,.RADIAN.)
);
#465=(
LENGTH_UNIT()
NAMED_UNIT(*)
SI_UNIT($,.METRE.)
);
#466=PRODUCT_DEFINITION_SHAPE('','',#467);
#467=PRODUCT_DEFINITION('','',#469,#468);
#468=PRODUCT_DEFINITION_CONTEXT('',#475,'design');
#469=PRODUCT_DEFINITION_FORMATION_WITH_SPECIFIED_SOURCE('','',#471,
 .NOT_KNOWN.);
#470=PRODUCT_RELATED_PRODUCT_CATEGORY('','',(#471));
#471=PRODUCT('Part 1','Part 1','Part 1',(#473));
#472=PRODUCT_CATEGORY('','');
#473=PRODUCT_CONTEXT('',#475,'mechanical');
#474=APPLICATION_PROTOCOL_DEFINITION('international standard',
'ap242_managed_model_based_3d_engineering',2020,#475);
#475=APPLICATION_CONTEXT('managed model based 3d engineering');
ENDSEC;
END-ISO-10303-21;
