ISO-10303-21;
HEADER;
/* Generated by software containing ST-Developer
 * from STEP Tools, Inc. (www.steptools.com) 
 */
/* OPTION: using custom renumber hook */

FILE_DESCRIPTION(
/* description */ ('STEP AP242 Edition 2',
'CAx-IF Rec.Pracs.---Representation and Presentation of Product Manufa
cturing Information (PMI)---4.0---2014-10-13',
'CAx-IF Rec.Pracs.---3D Tessellated Geometry---0.4---2014-09-14','2;1',
'CAx-IF Rec.Pracs.---User Defined Attributes---1.5---2016-08-15'),
/* implementation_level */ '2;1');

FILE_NAME(
/* name */ 'Spoon',
/* time_stamp */ '2026-09-07T05:40:45Z',
/* author */ (''),
/* organization */ (''),
/* preprocessor_version */ 'ST-DEVELOPER v20',
/* originating_system */ 'ONSHAPE BY PTC INC, 1.220',
/* authorisation */ '  ');

FILE_SCHEMA (('AP242_MANAGED_MODEL_BASED_3D_ENGINEERING_MIM_LF { 1 0 10303 442 3 1 4 }'));
ENDSEC;

DATA;
#10=SHAPE_REPRESENTATION_RELATIONSHIP('','',#113,#11);
#11=ADVANCED_BREP_SHAPE_REPRESENTATION('',(#111),#197);
#12=B_SPLINE_SURFACE_WITH_KNOTS('',3,1,((#174,#175),(#176,#177),(#178,#179),
(#180,#181),(#182,#183),(#184,#185),(#186,#187),(#188,#189),(#190,#191),
(#192,#193),(#194,#195)),.SURF_OF_LINEAR_EXTRUSION.,.F.,.F.,.F.,(4,1,1,
1,1,1,1,1,4),(2,2),(0.325729487294629,1.02969527886842,1.73366107044221,
2.437626862016,3.14159265358979,3.84555844516358,4.54952423673737,5.25349002831116,
5.95745581988495),(0.,1.),.UNSPECIFIED.);
#13=ELLIPSE('',#119,0.0025,0.00125);
#14=ELLIPSE('',#121,0.0025,0.00125);
#15=ORIENTED_EDGE('',*,*,#39,.T.);
#16=ORIENTED_EDGE('',*,*,#40,.T.);
#17=ORIENTED_EDGE('',*,*,#41,.F.);
#18=ORIENTED_EDGE('',*,*,#42,.F.);
#19=ORIENTED_EDGE('',*,*,#43,.F.);
#20=ORIENTED_EDGE('',*,*,#44,.T.);
#21=ORIENTED_EDGE('',*,*,#45,.T.);
#22=ORIENTED_EDGE('',*,*,#46,.T.);
#23=ORIENTED_EDGE('',*,*,#47,.F.);
#24=ORIENTED_EDGE('',*,*,#46,.F.);
#25=ORIENTED_EDGE('',*,*,#48,.T.);
#26=ORIENTED_EDGE('',*,*,#42,.T.);
#27=ORIENTED_EDGE('',*,*,#45,.F.);
#28=ORIENTED_EDGE('',*,*,#49,.T.);
#29=ORIENTED_EDGE('',*,*,#39,.F.);
#30=ORIENTED_EDGE('',*,*,#48,.F.);
#31=ORIENTED_EDGE('',*,*,#50,.F.);
#32=ORIENTED_EDGE('',*,*,#43,.T.);
#33=ORIENTED_EDGE('',*,*,#47,.T.);
#34=ORIENTED_EDGE('',*,*,#41,.T.);
#35=ORIENTED_EDGE('',*,*,#40,.F.);
#36=ORIENTED_EDGE('',*,*,#49,.F.);
#37=ORIENTED_EDGE('',*,*,#44,.F.);
#38=ORIENTED_EDGE('',*,*,#50,.T.);
#39=EDGE_CURVE('',#51,#52,#59,.T.);
#40=EDGE_CURVE('',#52,#53,#60,.T.);
#41=EDGE_CURVE('',#54,#53,#61,.T.);
#42=EDGE_CURVE('',#51,#54,#62,.T.);
#43=EDGE_CURVE('',#55,#56,#63,.T.);
#44=EDGE_CURVE('',#55,#57,#64,.F.);
#45=EDGE_CURVE('',#57,#58,#65,.T.);
#46=EDGE_CURVE('',#58,#56,#66,.T.);
#47=EDGE_CURVE('',#56,#54,#67,.T.);
#48=EDGE_CURVE('',#58,#51,#68,.T.);
#49=EDGE_CURVE('',#57,#52,#13,.T.);
#50=EDGE_CURVE('',#55,#53,#14,.T.);
#51=VERTEX_POINT('',#151);
#52=VERTEX_POINT('',#152);
#53=VERTEX_POINT('',#154);
#54=VERTEX_POINT('',#156);
#55=VERTEX_POINT('',#160);
#56=VERTEX_POINT('',#161);
#57=VERTEX_POINT('',#163);
#58=VERTEX_POINT('',#165);
#59=LINE('',#150,#69);
#60=LINE('',#153,#70);
#61=LINE('',#155,#71);
#62=LINE('',#157,#72);
#63=LINE('',#159,#73);
#64=LINE('',#162,#74);
#65=LINE('',#164,#75);
#66=LINE('',#166,#76);
#67=LINE('',#168,#77);
#68=LINE('',#169,#78);
#69=VECTOR('',#126,1.);
#70=VECTOR('',#127,1.);
#71=VECTOR('',#128,1.);
#72=VECTOR('',#129,1.);
#73=VECTOR('',#132,1.);
#74=VECTOR('',#133,1.);
#75=VECTOR('',#134,1.);
#76=VECTOR('',#135,1.);
#77=VECTOR('',#138,1.);
#78=VECTOR('',#139,1.);
#79=EDGE_LOOP('',(#15,#16,#17,#18));
#80=EDGE_LOOP('',(#19,#20,#21,#22));
#81=EDGE_LOOP('',(#23,#24,#25,#26));
#82=EDGE_LOOP('',(#27,#28,#29,#30));
#83=EDGE_LOOP('',(#31,#32,#33,#34));
#84=EDGE_LOOP('',(#35,#36,#37,#38));
#85=FACE_BOUND('',#79,.T.);
#86=FACE_BOUND('',#80,.T.);
#87=FACE_BOUND('',#81,.T.);
#88=FACE_BOUND('',#82,.T.);
#89=FACE_BOUND('',#83,.T.);
#90=FACE_BOUND('',#84,.T.);
#91=PLANE('',#115);
#92=PLANE('',#116);
#93=PLANE('',#117);
#94=PLANE('',#118);
#95=PLANE('',#120);
#96=ADVANCED_FACE('',(#85),#91,.T.);
#97=ADVANCED_FACE('',(#86),#92,.T.);
#98=ADVANCED_FACE('',(#87),#93,.T.);
#99=ADVANCED_FACE('',(#88),#94,.T.);
#100=ADVANCED_FACE('',(#89),#95,.F.);
#101=ADVANCED_FACE('',(#90),#12,.F.);
#102=CLOSED_SHELL('',(#96,#97,#98,#99,#100,#101));
#103=STYLED_ITEM('',(#104),#111);
#104=PRESENTATION_STYLE_ASSIGNMENT((#105));
#105=SURFACE_STYLE_USAGE(.BOTH.,#106);
#106=SURFACE_SIDE_STYLE('',(#107));
#107=SURFACE_STYLE_FILL_AREA(#108);
#108=FILL_AREA_STYLE('',(#109));
#109=FILL_AREA_STYLE_COLOUR('',#110);
#110=COLOUR_RGB('',0.8,0.8,0.8);
#111=MANIFOLD_SOLID_BREP('Part 1',#102);
#112=SHAPE_DEFINITION_REPRESENTATION(#202,#113);
#113=SHAPE_REPRESENTATION('Part 1',(#114),#197);
#114=AXIS2_PLACEMENT_3D('',#148,#122,#123);
#115=AXIS2_PLACEMENT_3D('',#149,#124,#125);
#116=AXIS2_PLACEMENT_3D('',#158,#130,#131);
#117=AXIS2_PLACEMENT_3D('',#167,#136,#137);
#118=AXIS2_PLACEMENT_3D('',#170,#140,#141);
#119=AXIS2_PLACEMENT_3D('',#171,#142,#143);
#120=AXIS2_PLACEMENT_3D('',#172,#144,#145);
#121=AXIS2_PLACEMENT_3D('',#173,#146,#147);
#122=DIRECTION('',(0.,0.,1.));
#123=DIRECTION('',(1.,0.,0.));
#124=DIRECTION('',(1.,3.32036915323685E-16,0.));
#125=DIRECTION('',(-3.32036915323685E-16,1.,0.));
#126=DIRECTION('',(3.32036915323685E-16,-1.,0.));
#127=DIRECTION('',(0.,0.,-1.));
#128=DIRECTION('',(3.32036915323685E-16,-1.,0.));
#129=DIRECTION('',(0.,0.,-1.));
#130=DIRECTION('',(-1.,0.,0.));
#131=DIRECTION('',(0.,0.,1.));
#132=DIRECTION('',(0.,1.,0.));
#133=DIRECTION('',(0.,0.,-1.));
#134=DIRECTION('',(0.,1.,0.));
#135=DIRECTION('',(0.,0.,-1.));
#136=DIRECTION('',(0.,1.,0.));
#137=DIRECTION('',(0.,0.,1.));
#138=DIRECTION('',(1.,0.,0.));
#139=DIRECTION('',(1.,0.,0.));
#140=DIRECTION('',(0.,0.,1.));
#141=DIRECTION('',(1.,0.,0.));
#142=DIRECTION('',(0.,0.,1.));
#143=DIRECTION('',(0.,1.,0.));
#144=DIRECTION('',(0.,0.,1.));
#145=DIRECTION('',(1.,0.,0.));
#146=DIRECTION('',(0.,0.,1.));
#147=DIRECTION('',(0.,1.,0.));
#148=CARTESIAN_POINT('',(0.,0.,0.));
#149=CARTESIAN_POINT('',(0.0004,0.004,0.001));
#150=CARTESIAN_POINT('',(0.0004,0.004,0.001));
#151=CARTESIAN_POINT('',(0.0004,0.008,0.001));
#152=CARTESIAN_POINT('',(0.0004,0.0023685438564654,0.001));
#153=CARTESIAN_POINT('',(0.0004,0.0023685438564654,0.001));
#154=CARTESIAN_POINT('',(0.0004,0.0023685438564654,0.));
#155=CARTESIAN_POINT('',(0.0004,0.004,0.));
#156=CARTESIAN_POINT('',(0.0004,0.008,0.));
#157=CARTESIAN_POINT('',(0.0004,0.008,0.001));
#158=CARTESIAN_POINT('',(-0.0004,0.004,0.001));
#159=CARTESIAN_POINT('',(-0.0004,0.004,0.));
#160=CARTESIAN_POINT('',(-0.0004,0.0023685438564654,0.));
#161=CARTESIAN_POINT('',(-0.0004,0.008,0.));
#162=CARTESIAN_POINT('',(-0.0004,0.0023685438564654,0.001));
#163=CARTESIAN_POINT('',(-0.0004,0.0023685438564654,0.001));
#164=CARTESIAN_POINT('',(-0.0004,0.004,0.001));
#165=CARTESIAN_POINT('',(-0.0004,0.008,0.001));
#166=CARTESIAN_POINT('',(-0.0004,0.008,0.001));
#167=CARTESIAN_POINT('',(-6.50521303491303E-19,0.008,0.001));
#168=CARTESIAN_POINT('',(-6.50521303491303E-19,0.008,0.));
#169=CARTESIAN_POINT('',(-6.50521303491303E-19,0.008,0.001));
#170=CARTESIAN_POINT('',(8.67361737988404E-19,0.004,0.001));
#171=CARTESIAN_POINT('',(0.,0.,0.001));
#172=CARTESIAN_POINT('',(8.67361737988404E-19,0.004,0.));
#173=CARTESIAN_POINT('',(0.,0.,0.));
#174=CARTESIAN_POINT('',(-0.000399999999999999,0.0023685438564654,0.001));
#175=CARTESIAN_POINT('',(-0.000399999999999999,0.0023685438564654,0.));
#176=CARTESIAN_POINT('',(-0.000677895641798983,0.00218081964537906,0.001));
#177=CARTESIAN_POINT('',(-0.000677895641798983,0.00218081964537906,0.));
#178=CARTESIAN_POINT('',(-0.00116344680647709,0.00139864422439787,0.001));
#179=CARTESIAN_POINT('',(-0.00116344680647709,0.00139864422439787,2.16840434497101E-19));
#180=CARTESIAN_POINT('',(-0.00133965826369021,-0.000440283380727265,0.001));
#181=CARTESIAN_POINT('',(-0.00133965826369021,-0.000440283380727265,-2.16840434497101E-19));
#182=CARTESIAN_POINT('',(-0.000878671342878859,-0.00206969623286934,0.001));
#183=CARTESIAN_POINT('',(-0.000878671342878859,-0.00206969623286934,-2.16840434497101E-19));
#184=CARTESIAN_POINT('',(-8.27977045811099E-19,-0.00271515188356533,0.001));
#185=CARTESIAN_POINT('',(-8.27977045811099E-19,-0.00271515188356533,2.16840434497101E-19));
#186=CARTESIAN_POINT('',(0.000878671342878855,-0.00206969623286935,0.001));
#187=CARTESIAN_POINT('',(0.000878671342878855,-0.00206969623286935,2.16840434497101E-19));
#188=CARTESIAN_POINT('',(0.00133965826369021,-0.00044028338072728,0.001));
#189=CARTESIAN_POINT('',(0.00133965826369021,-0.00044028338072728,2.16840434497101E-19));
#190=CARTESIAN_POINT('',(0.00116344680647709,0.00139864422439787,0.001));
#191=CARTESIAN_POINT('',(0.00116344680647709,0.00139864422439787,0.));
#192=CARTESIAN_POINT('',(0.000677895641798987,0.00218081964537905,0.001));
#193=CARTESIAN_POINT('',(0.000677895641798987,0.00218081964537905,0.));
#194=CARTESIAN_POINT('',(0.000400000000000003,0.0023685438564654,0.001));
#195=CARTESIAN_POINT('',(0.000400000000000003,0.0023685438564654,0.));
#196=MECHANICAL_DESIGN_GEOMETRIC_PRESENTATION_REPRESENTATION('',(#103),
#197);
#197=(
GEOMETRIC_REPRESENTATION_CONTEXT(3)
GLOBAL_UNCERTAINTY_ASSIGNED_CONTEXT((#198))
GLOBAL_UNIT_ASSIGNED_CONTEXT((#201,#200,#199))
REPRESENTATION_CONTEXT('Part 1','TOP_LEVEL_ASSEMBLY_PART')
);
#198=UNCERTAINTY_MEASURE_WITH_UNIT(LENGTH_MEASURE(2.E-5),#201,
'DISTANCE_ACCURACY_VALUE','Maximum Tolerance applied to model');
#199=(
NAMED_UNIT(*)
SI_UNIT($,.STERADIAN.)
SOLID_ANGLE_UNIT()
);
#200=(
NAMED_UNIT(*)
PLANE_ANGLE_UNIT()
SI_UNIT($,.RADIAN.)
);
#201=(
LENGTH_UNIT()
NAMED_UNIT(*)
SI_UNIT($,.METRE.)
);
#202=PRODUCT_DEFINITION_SHAPE('','',#203);
#203=PRODUCT_DEFINITION('','',#205,#204);
#204=PRODUCT_DEFINITION_CONTEXT('',#211,'design');
#205=PRODUCT_DEFINITION_FORMATION_WITH_SPECIFIED_SOURCE('','',#207,
 .NOT_KNOWN.);
#206=PRODUCT_RELATED_PRODUCT_CATEGORY('','',(#207));
#207=PRODUCT('Part 1','Part 1','Part 1',(#209));
#208=PRODUCT_CATEGORY('','');
#209=PRODUCT_CONTEXT('',#211,'mechanical');
#210=APPLICATION_PROTOCOL_DEFINITION('international standard',
'ap242_managed_model_based_3d_engineering',2020,#211);
#211=APPLICATION_CONTEXT('managed model based 3d engineering');
ENDSEC;
END-ISO-10303-21;
