ISO-10303-21;
HEADER;
/* Generated by software containing ST-Developer
 * from STEP Tools, Inc. (www.steptools.com) 
 */
/* OPTION: using custom renumber hook */

FILE_DESCRIPTION(
/* description */ ('STEP AP242 Edition 2',
'CAx-IF Rec.Pracs.---Representation and Presentation of Product Manufa
cturing Information (PMI)---4.0---2014-10-13',
'CAx-IF Rec.Pracs.---3D Tessellated Geometry---0.4---2014-09-14','2;1',
'CAx-IF Rec.Pracs.---User Defined Attributes---1.5---2016-08-15'),
/* implementation_level */ '2;1');

FILE_NAME(
/* name */ 'Table',
/* time_stamp */ '2026-09-07T05:39:22Z',
/* author */ (''),
/* organization */ (''),
/* preprocessor_version */ 'ST-DEVELOPER v20',
/* originating_system */ 'ONSHAPE BY PTC INC, 1.220',
/* authorisation */ '  ');

FILE_SCHEMA (('AP242_MANAGED_MODEL_BASED_3D_ENGINEERING_MIM_LF { 1 0 10303 442 3 1 4 }'));
ENDSEC;

DATA;
#10=SHAPE_REPRESENTATION_RELATIONSHIP('','',#125,#12);
#11=SHAPE_REPRESENTATION_RELATIONSHIP('','',#126,#13);
#12=ADVANCED_BREP_SHAPE_REPRESENTATION('',(#121),#213);
#13=ADVANCED_BREP_SHAPE_REPRESENTATION('',(#122),#214);
#14=PLANE('',#134);
#15=PLANE('',#135);
#16=PLANE('',#140);
#17=PLANE('',#144);
#18=PLANE('',#145);
#19=ORIENTED_EDGE('',*,*,#35,.F.);
#20=ORIENTED_EDGE('',*,*,#36,.T.);
#21=ORIENTED_EDGE('',*,*,#37,.T.);
#22=ORIENTED_EDGE('',*,*,#38,.F.);
#23=ORIENTED_EDGE('',*,*,#35,.T.);
#24=ORIENTED_EDGE('',*,*,#37,.F.);
#25=ORIENTED_EDGE('',*,*,#36,.F.);
#26=ORIENTED_EDGE('',*,*,#38,.T.);
#27=ORIENTED_EDGE('',*,*,#39,.T.);
#28=ORIENTED_EDGE('',*,*,#40,.F.);
#29=ORIENTED_EDGE('',*,*,#40,.T.);
#30=ORIENTED_EDGE('',*,*,#41,.F.);
#31=ORIENTED_EDGE('',*,*,#42,.T.);
#32=ORIENTED_EDGE('',*,*,#39,.F.);
#33=ORIENTED_EDGE('',*,*,#41,.T.);
#34=ORIENTED_EDGE('',*,*,#42,.F.);
#35=EDGE_CURVE('',#43,#43,#51,.T.);
#36=EDGE_CURVE('',#44,#44,#52,.T.);
#37=EDGE_CURVE('',#45,#45,#53,.T.);
#38=EDGE_CURVE('',#46,#46,#54,.T.);
#39=EDGE_CURVE('',#47,#47,#55,.T.);
#40=EDGE_CURVE('',#48,#48,#56,.T.);
#41=EDGE_CURVE('',#49,#49,#57,.T.);
#42=EDGE_CURVE('',#50,#50,#58,.T.);
#43=VERTEX_POINT('',#187);
#44=VERTEX_POINT('',#189);
#45=VERTEX_POINT('',#192);
#46=VERTEX_POINT('',#194);
#47=VERTEX_POINT('',#200);
#48=VERTEX_POINT('',#202);
#49=VERTEX_POINT('',#206);
#50=VERTEX_POINT('',#208);
#51=CIRCLE('',#129,0.0025);
#52=CIRCLE('',#130,0.0025);
#53=CIRCLE('',#132,0.0065);
#54=CIRCLE('',#133,0.0065);
#55=CIRCLE('',#138,0.0025);
#56=CIRCLE('',#139,0.0025);
#57=CIRCLE('',#142,0.015);
#58=CIRCLE('',#143,0.015);
#59=EDGE_LOOP('',(#19));
#60=EDGE_LOOP('',(#20));
#61=EDGE_LOOP('',(#21));
#62=EDGE_LOOP('',(#22));
#63=EDGE_LOOP('',(#23));
#64=EDGE_LOOP('',(#24));
#65=EDGE_LOOP('',(#25));
#66=EDGE_LOOP('',(#26));
#67=EDGE_LOOP('',(#27));
#68=EDGE_LOOP('',(#28));
#69=EDGE_LOOP('',(#29));
#70=EDGE_LOOP('',(#30));
#71=EDGE_LOOP('',(#31));
#72=EDGE_LOOP('',(#32));
#73=EDGE_LOOP('',(#33));
#74=EDGE_LOOP('',(#34));
#75=FACE_BOUND('',#59,.T.);
#76=FACE_BOUND('',#60,.T.);
#77=FACE_BOUND('',#61,.T.);
#78=FACE_BOUND('',#62,.T.);
#79=FACE_BOUND('',#63,.T.);
#80=FACE_BOUND('',#64,.T.);
#81=FACE_BOUND('',#65,.T.);
#82=FACE_BOUND('',#66,.T.);
#83=FACE_BOUND('',#67,.T.);
#84=FACE_BOUND('',#68,.T.);
#85=FACE_BOUND('',#69,.T.);
#86=FACE_BOUND('',#70,.T.);
#87=FACE_BOUND('',#71,.T.);
#88=FACE_BOUND('',#72,.T.);
#89=FACE_BOUND('',#73,.T.);
#90=FACE_BOUND('',#74,.T.);
#91=CYLINDRICAL_SURFACE('',#128,0.0025);
#92=CYLINDRICAL_SURFACE('',#131,0.0065);
#93=CYLINDRICAL_SURFACE('',#137,0.0025);
#94=CYLINDRICAL_SURFACE('',#141,0.015);
#95=ADVANCED_FACE('',(#75,#76),#91,.F.);
#96=ADVANCED_FACE('',(#77,#78),#92,.T.);
#97=ADVANCED_FACE('',(#79,#80),#14,.F.);
#98=ADVANCED_FACE('',(#81,#82),#15,.T.);
#99=ADVANCED_FACE('',(#83,#84),#93,.T.);
#100=ADVANCED_FACE('',(#85),#16,.T.);
#101=ADVANCED_FACE('',(#86,#87),#94,.T.);
#102=ADVANCED_FACE('',(#88,#89),#17,.T.);
#103=ADVANCED_FACE('',(#90),#18,.F.);
#104=CLOSED_SHELL('',(#95,#96,#97,#98));
#105=CLOSED_SHELL('',(#99,#100,#101,#102,#103));
#106=STYLED_ITEM('',(#108),#121);
#107=STYLED_ITEM('',(#109),#122);
#108=PRESENTATION_STYLE_ASSIGNMENT((#110));
#109=PRESENTATION_STYLE_ASSIGNMENT((#111));
#110=SURFACE_STYLE_USAGE(.BOTH.,#112);
#111=SURFACE_STYLE_USAGE(.BOTH.,#113);
#112=SURFACE_SIDE_STYLE('',(#114));
#113=SURFACE_SIDE_STYLE('',(#115));
#114=SURFACE_STYLE_FILL_AREA(#116);
#115=SURFACE_STYLE_FILL_AREA(#117);
#116=FILL_AREA_STYLE('',(#118));
#117=FILL_AREA_STYLE('',(#119));
#118=FILL_AREA_STYLE_COLOUR('',#120);
#119=FILL_AREA_STYLE_COLOUR('',#120);
#120=COLOUR_RGB('',0.886274509803922,0.682352941176471,0.443137254901961);
#121=MANIFOLD_SOLID_BREP('Part 2',#104);
#122=MANIFOLD_SOLID_BREP('Part 1',#105);
#123=SHAPE_DEFINITION_REPRESENTATION(#223,#125);
#124=SHAPE_DEFINITION_REPRESENTATION(#224,#126);
#125=SHAPE_REPRESENTATION('Part 2',(#127),#213);
#126=SHAPE_REPRESENTATION('Part 1',(#136),#214);
#127=AXIS2_PLACEMENT_3D('',#184,#146,#147);
#128=AXIS2_PLACEMENT_3D('',#185,#148,#149);
#129=AXIS2_PLACEMENT_3D('',#186,#150,#151);
#130=AXIS2_PLACEMENT_3D('',#188,#152,#153);
#131=AXIS2_PLACEMENT_3D('',#190,#154,#155);
#132=AXIS2_PLACEMENT_3D('',#191,#156,#157);
#133=AXIS2_PLACEMENT_3D('',#193,#158,#159);
#134=AXIS2_PLACEMENT_3D('',#195,#160,#161);
#135=AXIS2_PLACEMENT_3D('',#196,#162,#163);
#136=AXIS2_PLACEMENT_3D('',#197,#164,#165);
#137=AXIS2_PLACEMENT_3D('',#198,#166,#167);
#138=AXIS2_PLACEMENT_3D('',#199,#168,#169);
#139=AXIS2_PLACEMENT_3D('',#201,#170,#171);
#140=AXIS2_PLACEMENT_3D('',#203,#172,#173);
#141=AXIS2_PLACEMENT_3D('',#204,#174,#175);
#142=AXIS2_PLACEMENT_3D('',#205,#176,#177);
#143=AXIS2_PLACEMENT_3D('',#207,#178,#179);
#144=AXIS2_PLACEMENT_3D('',#209,#180,#181);
#145=AXIS2_PLACEMENT_3D('',#210,#182,#183);
#146=DIRECTION('',(0.,0.,1.));
#147=DIRECTION('',(1.,0.,0.));
#148=DIRECTION('',(0.,0.,1.));
#149=DIRECTION('',(1.,0.,0.));
#150=DIRECTION('',(0.,0.,1.));
#151=DIRECTION('',(1.,0.,0.));
#152=DIRECTION('',(0.,0.,1.));
#153=DIRECTION('',(1.,0.,0.));
#154=DIRECTION('',(0.,0.,1.));
#155=DIRECTION('',(1.,0.,0.));
#156=DIRECTION('',(0.,0.,1.));
#157=DIRECTION('',(1.,0.,0.));
#158=DIRECTION('',(0.,0.,1.));
#159=DIRECTION('',(1.,0.,0.));
#160=DIRECTION('',(0.,0.,1.));
#161=DIRECTION('',(1.,0.,0.));
#162=DIRECTION('',(0.,0.,1.));
#163=DIRECTION('',(1.,0.,0.));
#164=DIRECTION('',(0.,0.,1.));
#165=DIRECTION('',(1.,0.,0.));
#166=DIRECTION('',(0.,0.,-1.));
#167=DIRECTION('',(-1.,0.,0.));
#168=DIRECTION('',(0.,0.,1.));
#169=DIRECTION('',(1.,0.,0.));
#170=DIRECTION('',(0.,0.,1.));
#171=DIRECTION('',(1.,0.,0.));
#172=DIRECTION('',(0.,0.,1.));
#173=DIRECTION('',(1.,0.,0.));
#174=DIRECTION('',(0.,0.,-1.));
#175=DIRECTION('',(-1.,0.,0.));
#176=DIRECTION('',(0.,0.,1.));
#177=DIRECTION('',(1.,0.,0.));
#178=DIRECTION('',(0.,0.,1.));
#179=DIRECTION('',(1.,0.,0.));
#180=DIRECTION('',(0.,0.,1.));
#181=DIRECTION('',(1.,0.,0.));
#182=DIRECTION('',(0.,0.,1.));
#183=DIRECTION('',(1.,0.,0.));
#184=CARTESIAN_POINT('',(0.,0.,0.));
#185=CARTESIAN_POINT('',(0.,1.53080849893419E-19,0.0275));
#186=CARTESIAN_POINT('',(0.,1.53080849893419E-19,0.0275));
#187=CARTESIAN_POINT('',(0.0025,1.53080849893419E-19,0.0275));
#188=CARTESIAN_POINT('',(0.,1.53080849893419E-19,0.03));
#189=CARTESIAN_POINT('',(0.0025,1.53080849893419E-19,0.03));
#190=CARTESIAN_POINT('',(0.,5.51091059616309E-19,0.0275));
#191=CARTESIAN_POINT('',(0.,5.51091059616309E-19,0.0275));
#192=CARTESIAN_POINT('',(0.0065,5.51091059616309E-19,0.0275));
#193=CARTESIAN_POINT('',(0.,5.51091059616309E-19,0.03));
#194=CARTESIAN_POINT('',(0.0065,5.51091059616309E-19,0.03));
#195=CARTESIAN_POINT('',(0.,0.,0.0275));
#196=CARTESIAN_POINT('',(0.,0.,0.03));
#197=CARTESIAN_POINT('',(0.,0.,0.));
#198=CARTESIAN_POINT('',(0.,1.53080849893419E-19,0.03));
#199=CARTESIAN_POINT('',(0.,1.53080849893419E-19,0.004));
#200=CARTESIAN_POINT('',(0.0025,1.53080849893419E-19,0.004));
#201=CARTESIAN_POINT('',(0.,1.53080849893419E-19,0.03));
#202=CARTESIAN_POINT('',(0.0025,1.53080849893419E-19,0.03));
#203=CARTESIAN_POINT('',(0.,0.,0.03));
#204=CARTESIAN_POINT('',(0.,9.18485099360515E-19,0.004));
#205=CARTESIAN_POINT('',(0.,9.18485099360515E-19,0.004));
#206=CARTESIAN_POINT('',(0.015,9.18485099360515E-19,0.004));
#207=CARTESIAN_POINT('',(0.,9.18485099360515E-19,0.));
#208=CARTESIAN_POINT('',(0.015,9.18485099360515E-19,0.));
#209=CARTESIAN_POINT('',(0.,0.,0.004));
#210=CARTESIAN_POINT('',(0.,0.,0.));
#211=MECHANICAL_DESIGN_GEOMETRIC_PRESENTATION_REPRESENTATION('',(#106),
#213);
#212=MECHANICAL_DESIGN_GEOMETRIC_PRESENTATION_REPRESENTATION('',(#107),
#214);
#213=(
GEOMETRIC_REPRESENTATION_CONTEXT(3)
GLOBAL_UNCERTAINTY_ASSIGNED_CONTEXT((#215))
GLOBAL_UNIT_ASSIGNED_CONTEXT((#221,#219,#217))
REPRESENTATION_CONTEXT('Part 2','TOP_LEVEL_ASSEMBLY_PART')
);
#214=(
GEOMETRIC_REPRESENTATION_CONTEXT(3)
GLOBAL_UNCERTAINTY_ASSIGNED_CONTEXT((#216))
GLOBAL_UNIT_ASSIGNED_CONTEXT((#222,#220,#218))
REPRESENTATION_CONTEXT('Part 1','TOP_LEVEL_ASSEMBLY_PART')
);
#215=UNCERTAINTY_MEASURE_WITH_UNIT(LENGTH_MEASURE(1.E-8),#221,
'DISTANCE_ACCURACY_VALUE','Maximum Tolerance applied to model');
#216=UNCERTAINTY_MEASURE_WITH_UNIT(LENGTH_MEASURE(1.E-8),#222,
'DISTANCE_ACCURACY_VALUE','Maximum Tolerance applied to model');
#217=(
NAMED_UNIT(*)
SI_UNIT($,.STERADIAN.)
SOLID_ANGLE_UNIT()
);
#218=(
NAMED_UNIT(*)
SI_UNIT($,.STERADIAN.)
SOLID_ANGLE_UNIT()
);
#219=(
NAMED_UNIT(*)
PLANE_ANGLE_UNIT()
SI_UNIT($,.RADIAN.)
);
#220=(
NAMED_UNIT(*)
PLANE_ANGLE_UNIT()
SI_UNIT($,.RADIAN.)
);
#221=(
LENGTH_UNIT()
NAMED_UNIT(*)
SI_UNIT($,.METRE.)
);
#222=(
LENGTH_UNIT()
NAMED_UNIT(*)
SI_UNIT($,.METRE.)
);
#223=PRODUCT_DEFINITION_SHAPE('','',#225);
#224=PRODUCT_DEFINITION_SHAPE('','',#226);
#225=PRODUCT_DEFINITION('','',#229,#227);
#226=PRODUCT_DEFINITION('','',#230,#228);
#227=PRODUCT_DEFINITION_CONTEXT('',#241,'design');
#228=PRODUCT_DEFINITION_CONTEXT('',#242,'design');
#229=PRODUCT_DEFINITION_FORMATION_WITH_SPECIFIED_SOURCE('','',#233,
 .NOT_KNOWN.);
#230=PRODUCT_DEFINITION_FORMATION_WITH_SPECIFIED_SOURCE('','',#234,
 .NOT_KNOWN.);
#231=PRODUCT_RELATED_PRODUCT_CATEGORY('','',(#233));
#232=PRODUCT_RELATED_PRODUCT_CATEGORY('','',(#234));
#233=PRODUCT('Part 2','Part 2','Part 2',(#237));
#234=PRODUCT('Part 1','Part 1','Part 1',(#238));
#235=PRODUCT_CATEGORY('','');
#236=PRODUCT_CATEGORY('','');
#237=PRODUCT_CONTEXT('',#241,'mechanical');
#238=PRODUCT_CONTEXT('',#242,'mechanical');
#239=APPLICATION_PROTOCOL_DEFINITION('international standard',
'ap242_managed_model_based_3d_engineering',2020,#241);
#240=APPLICATION_PROTOCOL_DEFINITION('international standard',
'ap242_managed_model_based_3d_engineering',2020,#242);
#241=APPLICATION_CONTEXT('managed model based 3d engineering');
#242=APPLICATION_CONTEXT('managed model based 3d engineering');
ENDSEC;
END-ISO-10303-21;
